<svg width="394" height="86" viewBox="0 0 394 86" fill="none" xmlns="http://www.w3.org/2000/svg">
<rect x="0.746094" y="0.65625" width="392.508" height="85.1992" rx="8" fill="#D6EAF9"/>
<g filter="url(#filter0_d_3079_1343)">
<rect x="16.0547" y="17.9785" width="360.925" height="50.7498" rx="6.79447" fill="white"/>
</g>
<rect x="31.9814" y="37.2236" width="12.2578" height="12.2578" rx="6.12888" fill="#0069BD"/>
<rect x="31.9814" y="37.2236" width="12.2578" height="12.2578" rx="6.12888" stroke="#0069BD" stroke-width="0.314301"/>
<path d="M37.3783 44.6679L36.1708 43.4604L35.6523 43.9789L37.3783 45.7049L40.9377 42.1454L40.4192 41.627L37.3783 44.6679Z" fill="white" fill-opacity="0.866667"/>
<path d="M55.295 33.6649V34.4834H53.6669V39.7812H52.6637V34.4834H51.0268V33.6649H55.295ZM58.4144 39.8605C57.9567 39.8605 57.5431 39.7578 57.1735 39.5524C56.8039 39.3412 56.5135 39.0479 56.3023 38.6724C56.0911 38.291 55.9854 37.851 55.9854 37.3523C55.9854 36.8595 56.094 36.4224 56.3111 36.0411C56.5281 35.6597 56.8244 35.3664 57.1999 35.161C57.5754 34.9557 57.9949 34.853 58.4584 34.853C58.9219 34.853 59.3413 34.9557 59.7168 35.161C60.0923 35.3664 60.3886 35.6597 60.6057 36.0411C60.8228 36.4224 60.9313 36.8595 60.9313 37.3523C60.9313 37.8452 60.8198 38.2822 60.5969 38.6636C60.3739 39.0449 60.0688 39.3412 59.6816 39.5524C59.3003 39.7578 58.8779 39.8605 58.4144 39.8605ZM58.4144 38.9892C58.6725 38.9892 58.9131 38.9276 59.136 38.8044C59.3648 38.6812 59.5496 38.4964 59.6904 38.25C59.8312 38.0036 59.9016 37.7043 59.9016 37.3523C59.9016 37.0003 59.8342 36.704 59.6992 36.4635C59.5643 36.2171 59.3853 36.0323 59.1624 35.9091C58.9395 35.7859 58.6989 35.7242 58.4408 35.7242C58.1826 35.7242 57.9421 35.7859 57.7191 35.9091C57.5021 36.0323 57.329 36.2171 57.1999 36.4635C57.0708 36.704 57.0063 37.0003 57.0063 37.3523C57.0063 37.8745 57.1383 38.2793 57.4023 38.5668C57.6722 38.8484 58.0095 38.9892 58.4144 38.9892ZM62.9263 35.6362C63.073 35.3898 63.2666 35.1992 63.5071 35.0642C63.7536 34.9234 64.044 34.853 64.3784 34.853V35.8915H64.1232C63.7301 35.8915 63.4309 35.9912 63.2255 36.1907C63.026 36.3901 62.9263 36.7363 62.9263 37.2291V39.7812H61.9231V34.9322H62.9263V35.6362ZM64.9662 37.3347C64.9662 36.8478 65.0659 36.4165 65.2654 36.0411C65.4707 35.6656 65.7465 35.3752 66.0926 35.1698C66.4446 34.9586 66.8348 34.853 67.2631 34.853C67.6386 34.853 67.97 34.9293 68.2575 35.0818C68.5509 35.2344 68.7767 35.4192 68.9352 35.6362V34.9322H69.9472V42.087H68.9352V39.0772C68.7767 39.2943 68.5479 39.4791 68.2487 39.6316C67.9495 39.7842 67.6092 39.8605 67.2279 39.8605C66.8113 39.8605 66.43 39.7548 66.0838 39.5436C65.7435 39.3266 65.4707 39.0273 65.2654 38.646C65.0659 38.2588 64.9662 37.8217 64.9662 37.3347ZM68.9352 37.3523C68.9352 37.0179 68.8648 36.7275 68.7239 36.4811C68.589 36.2347 68.4101 36.0469 68.1871 35.9179C67.9642 35.7888 67.7236 35.7242 67.4655 35.7242C67.2073 35.7242 66.9668 35.7888 66.7438 35.9179C66.5209 36.0411 66.339 36.2259 66.1982 36.4723C66.0633 36.7128 65.9958 37.0003 65.9958 37.3347C65.9958 37.6691 66.0633 37.9625 66.1982 38.2148C66.339 38.4671 66.5209 38.6607 66.7438 38.7956C66.9727 38.9247 67.2132 38.9892 67.4655 38.9892C67.7236 38.9892 67.9642 38.9247 68.1871 38.7956C68.4101 38.6665 68.589 38.4788 68.7239 38.2324C68.8648 37.9801 68.9352 37.6867 68.9352 37.3523ZM75.6564 34.9322V39.7812H74.6531V39.2092C74.4947 39.4087 74.2864 39.5671 74.0283 39.6844C73.776 39.7959 73.5061 39.8517 73.2186 39.8517C72.8373 39.8517 72.4941 39.7724 72.189 39.614C71.8898 39.4556 71.6522 39.221 71.4761 38.91C71.306 38.5991 71.2209 38.2236 71.2209 37.7836V34.9322H72.2154V37.6339C72.2154 38.0681 72.3239 38.4025 72.541 38.6372C72.7581 38.866 73.0544 38.9804 73.4298 38.9804C73.8053 38.9804 74.1016 38.866 74.3187 38.6372C74.5416 38.4025 74.6531 38.0681 74.6531 37.6339V34.9322H75.6564ZM81.4243 37.2379C81.4243 37.4198 81.4125 37.5841 81.3891 37.7307H77.6841C77.7134 38.118 77.8572 38.4289 78.1153 38.6636C78.3735 38.8983 78.6903 39.0156 79.0658 39.0156C79.6055 39.0156 79.9869 38.7897 80.2098 38.338H81.2923C81.1456 38.7839 80.8787 39.1506 80.4914 39.438C80.1101 39.7196 79.6349 39.8605 79.0658 39.8605C78.6023 39.8605 78.1857 39.7578 77.8161 39.5524C77.4524 39.3412 77.1649 39.0479 76.9537 38.6724C76.7483 38.291 76.6456 37.851 76.6456 37.3523C76.6456 36.8536 76.7454 36.4165 76.9449 36.0411C77.1502 35.6597 77.4348 35.3664 77.7985 35.161C78.1681 34.9557 78.5905 34.853 79.0658 34.853C79.5234 34.853 79.9311 34.9527 80.289 35.1522C80.6469 35.3517 80.9256 35.6333 81.1251 35.9971C81.3245 36.3549 81.4243 36.7686 81.4243 37.2379ZM80.377 36.9211C80.3712 36.5515 80.2392 36.2552 79.981 36.0323C79.7229 35.8093 79.4031 35.6978 79.0218 35.6978C78.6756 35.6978 78.3793 35.8093 78.1329 36.0323C77.8865 36.2493 77.7398 36.5456 77.6929 36.9211H80.377ZM89.4235 39.7812L88.6666 39.0244C88.3733 39.3178 88.0535 39.5378 87.7074 39.6844C87.3612 39.8253 86.974 39.8957 86.5457 39.8957C86.1116 39.8957 85.7273 39.8194 85.3929 39.6668C85.0585 39.5143 84.8003 39.2972 84.6184 39.0156C84.4366 38.7281 84.3456 38.3966 84.3456 38.0212C84.3456 37.5987 84.4659 37.2233 84.7064 36.8947C84.947 36.5603 85.3049 36.2963 85.7801 36.1027C85.6099 35.8973 85.4897 35.7066 85.4193 35.5306C85.3489 35.3488 85.3137 35.1493 85.3137 34.9322C85.3137 34.6623 85.3811 34.4218 85.5161 34.2106C85.6569 33.9994 85.8564 33.8322 86.1145 33.7089C86.3727 33.5857 86.6719 33.5241 87.0122 33.5241C87.3583 33.5241 87.6516 33.5916 87.8922 33.7265C88.1386 33.8556 88.3205 34.0346 88.4378 34.2634C88.561 34.4922 88.6109 34.7474 88.5874 35.029H87.5842C87.59 34.8119 87.5372 34.6447 87.4258 34.5274C87.3143 34.4042 87.1618 34.3426 86.9681 34.3426C86.7745 34.3426 86.6161 34.4012 86.4929 34.5186C86.3756 34.6301 86.3169 34.7679 86.3169 34.9322C86.3169 35.0906 86.3609 35.249 86.4489 35.4074C86.5428 35.56 86.7041 35.7594 86.9329 36.0059L88.5522 37.6163L89.1771 36.5867H90.2595L89.4675 37.942L89.2475 38.3028L90.7347 39.7812H89.4235ZM86.5457 39.042C87.0972 39.042 87.5842 38.8161 88.0066 38.3644L86.3873 36.7363C85.695 37.012 85.3489 37.4286 85.3489 37.986C85.3489 38.2852 85.4603 38.5375 85.6833 38.7428C85.9062 38.9423 86.1937 39.042 86.5457 39.042ZM55.6206 48.4866C55.6206 48.7976 55.5473 49.0909 55.4006 49.3667C55.254 49.6424 55.0193 49.8683 54.6966 50.0443C54.3739 50.2145 53.9603 50.2995 53.4557 50.2995H52.3469V52.7812H51.3436V46.6649H53.4557C53.9251 46.6649 54.3211 46.7471 54.6438 46.9114C54.9723 47.0698 55.2158 47.2868 55.3742 47.5626C55.5385 47.8383 55.6206 48.1464 55.6206 48.4866ZM53.4557 49.4811C53.8371 49.4811 54.1216 49.396 54.3094 49.2259C54.4971 49.0499 54.591 48.8035 54.591 48.4866C54.591 47.8178 54.2126 47.4834 53.4557 47.4834H52.3469V49.4811H53.4557ZM58.6808 52.8605C58.2232 52.8605 57.8095 52.7578 57.4399 52.5524C57.0703 52.3412 56.7799 52.0479 56.5687 51.6724C56.3575 51.291 56.2519 50.851 56.2519 50.3523C56.2519 49.8595 56.3604 49.4224 56.5775 49.0411C56.7946 48.6597 57.0908 48.3664 57.4663 48.161C57.8418 47.9557 58.2613 47.853 58.7248 47.853C59.1883 47.853 59.6078 47.9557 59.9833 48.161C60.3587 48.3664 60.655 48.6597 60.8721 49.0411C61.0892 49.4224 61.1977 49.8595 61.1977 50.3523C61.1977 50.8452 61.0862 51.2822 60.8633 51.6636C60.6404 52.0449 60.3353 52.3412 59.948 52.5524C59.5667 52.7578 59.1443 52.8605 58.6808 52.8605ZM58.6808 51.9892C58.9389 51.9892 59.1795 51.9276 59.4024 51.8044C59.6312 51.6812 59.816 51.4964 59.9569 51.25C60.0977 51.0036 60.1681 50.7043 60.1681 50.3523C60.1681 50.0003 60.1006 49.704 59.9657 49.4635C59.8307 49.2171 59.6518 49.0323 59.4288 48.9091C59.2059 48.7859 58.9653 48.7242 58.7072 48.7242C58.449 48.7242 58.2085 48.7859 57.9856 48.9091C57.7685 49.0323 57.5954 49.2171 57.4663 49.4635C57.3373 49.704 57.2727 50.0003 57.2727 50.3523C57.2727 50.8745 57.4047 51.2793 57.6687 51.5668C57.9386 51.8484 58.276 51.9892 58.6808 51.9892ZM68.7018 47.9322L67.1969 52.7812H66.1409L65.164 49.1995L64.1872 52.7812H63.1311L61.6175 47.9322H62.6383L63.6504 51.8308L64.68 47.9322H65.7273L66.7129 51.8132L67.7162 47.9322H68.7018ZM73.8958 50.2379C73.8958 50.4198 73.884 50.5841 73.8606 50.7307H70.1556C70.1849 51.118 70.3287 51.4289 70.5868 51.6636C70.845 51.8983 71.1618 52.0156 71.5373 52.0156C72.077 52.0156 72.4584 51.7897 72.6813 51.338H73.7638C73.6171 51.7839 73.3502 52.1506 72.9629 52.438C72.5816 52.7196 72.1064 52.8605 71.5373 52.8605C71.0738 52.8605 70.6572 52.7578 70.2876 52.5524C69.9239 52.3412 69.6364 52.0479 69.4252 51.6724C69.2198 51.291 69.1171 50.851 69.1171 50.3523C69.1171 49.8536 69.2169 49.4165 69.4164 49.0411C69.6217 48.6597 69.9063 48.3664 70.27 48.161C70.6396 47.9557 71.062 47.853 71.5373 47.853C71.9949 47.853 72.4026 47.9527 72.7605 48.1522C73.1184 48.3517 73.3971 48.6333 73.5966 48.9971C73.796 49.3549 73.8958 49.7686 73.8958 50.2379ZM72.8485 49.9211C72.8427 49.5515 72.7107 49.2552 72.4525 49.0323C72.1944 48.8093 71.8746 48.6978 71.4933 48.6978C71.1471 48.6978 70.8508 48.8093 70.6044 49.0323C70.358 49.2493 70.2113 49.5456 70.1644 49.9211H72.8485ZM75.8863 48.6362C76.033 48.3898 76.2266 48.1992 76.4672 48.0642C76.7136 47.9234 77.004 47.853 77.3384 47.853V48.8915H77.0832C76.6901 48.8915 76.3909 48.9912 76.1855 49.1907C75.9861 49.3901 75.8863 49.7363 75.8863 50.2291V52.7812H74.8831V47.9322H75.8863V48.6362ZM82.5619 52.8429C82.1513 52.8429 81.7816 52.7724 81.4531 52.6316C81.1245 52.485 80.8664 52.2796 80.6787 52.0156C80.4909 51.7516 80.397 51.4436 80.397 51.0916H81.4707C81.4942 51.3556 81.5968 51.5727 81.7787 51.7428C81.9664 51.9129 82.2275 51.998 82.5619 51.998C82.9081 51.998 83.178 51.9159 83.3716 51.7516C83.5652 51.5815 83.662 51.3644 83.662 51.1004C83.662 50.895 83.6004 50.7278 83.4772 50.5987C83.3599 50.4697 83.2102 50.3699 83.0284 50.2995C82.8524 50.2291 82.6059 50.1529 82.2891 50.0707C81.8902 49.9651 81.5646 49.8595 81.3123 49.7539C81.0659 49.6424 80.8547 49.4723 80.6787 49.2435C80.5026 49.0147 80.4146 48.7096 80.4146 48.3282C80.4146 47.9762 80.5026 47.6682 80.6787 47.4042C80.8547 47.1402 81.1011 46.9378 81.4179 46.797C81.7347 46.6561 82.1014 46.5857 82.5179 46.5857C83.1105 46.5857 83.5945 46.7353 83.97 47.0346C84.3514 47.3279 84.5626 47.7327 84.6036 48.249H83.4948C83.4772 48.0261 83.3716 47.8354 83.178 47.677C82.9844 47.5186 82.7292 47.4394 82.4123 47.4394C82.1249 47.4394 81.8902 47.5127 81.7083 47.6594C81.5264 47.8061 81.4355 48.0173 81.4355 48.293C81.4355 48.4808 81.4912 48.6362 81.6027 48.7594C81.72 48.8768 81.8667 48.9707 82.0427 49.0411C82.2187 49.1115 82.4593 49.1877 82.7644 49.2699C83.1692 49.3813 83.4977 49.4928 83.75 49.6043C84.0082 49.7158 84.2252 49.8888 84.4012 50.1235C84.5831 50.3523 84.6741 50.6603 84.6741 51.0476C84.6741 51.3585 84.589 51.6519 84.4188 51.9276C84.2546 52.2034 84.0111 52.4263 83.6884 52.5964C83.3716 52.7607 82.9961 52.8429 82.5619 52.8429ZM86.8611 48.645C87.0312 48.4221 87.263 48.2344 87.5563 48.0818C87.8497 47.9293 88.1812 47.853 88.5508 47.853C88.9732 47.853 89.3575 47.9586 89.7036 48.1698C90.0557 48.3752 90.3314 48.6656 90.5309 49.0411C90.7304 49.4165 90.8301 49.8478 90.8301 50.3347C90.8301 50.8217 90.7304 51.2588 90.5309 51.646C90.3314 52.0273 90.0557 52.3266 89.7036 52.5436C89.3575 52.7548 88.9732 52.8605 88.5508 52.8605C88.1812 52.8605 87.8526 52.7871 87.5651 52.6404C87.2777 52.4879 87.043 52.3002 86.8611 52.0772V55.087H85.8578V47.9322H86.8611V48.645ZM89.8092 50.3347C89.8092 50.0003 89.7388 49.7128 89.598 49.4723C89.4631 49.2259 89.2812 49.0411 89.0524 48.9179C88.8295 48.7888 88.5889 48.7242 88.3308 48.7242C88.0785 48.7242 87.8379 48.7888 87.6091 48.9179C87.3862 49.0469 87.2043 49.2347 87.0635 49.4811C86.9286 49.7275 86.8611 50.0179 86.8611 50.3523C86.8611 50.6867 86.9286 50.9801 87.0635 51.2324C87.2043 51.4788 87.3862 51.6665 87.6091 51.7956C87.8379 51.9247 88.0785 51.9892 88.3308 51.9892C88.5889 51.9892 88.8295 51.9247 89.0524 51.7956C89.2812 51.6607 89.4631 51.4671 89.598 51.2148C89.7388 50.9625 89.8092 50.6691 89.8092 50.3347ZM96.2664 50.2379C96.2664 50.4198 96.2547 50.5841 96.2312 50.7307H92.5262C92.5556 51.118 92.6993 51.4289 92.9575 51.6636C93.2156 51.8983 93.5324 52.0156 93.9079 52.0156C94.4477 52.0156 94.829 51.7897 95.052 51.338H96.1344C95.9877 51.7839 95.7208 52.1506 95.3336 52.438C94.9522 52.7196 94.477 52.8605 93.9079 52.8605C93.4444 52.8605 93.0279 52.7578 92.6582 52.5524C92.2945 52.3412 92.007 52.0479 91.7958 51.6724C91.5905 51.291 91.4878 50.851 91.4878 50.3523C91.4878 49.8536 91.5875 49.4165 91.787 49.0411C91.9923 48.6597 92.2769 48.3664 92.6406 48.161C93.0103 47.9557 93.4327 47.853 93.9079 47.853C94.3655 47.853 94.7733 47.9527 95.1312 48.1522C95.4891 48.3517 95.7677 48.6333 95.9672 48.9971C96.1667 49.3549 96.2664 49.7686 96.2664 50.2379ZM95.2192 49.9211C95.2133 49.5515 95.0813 49.2552 94.8232 49.0323C94.565 48.8093 94.2453 48.6978 93.8639 48.6978C93.5178 48.6978 93.2215 48.8093 92.9751 49.0323C92.7287 49.2493 92.582 49.5456 92.535 49.9211H95.2192ZM101.698 50.2379C101.698 50.4198 101.686 50.5841 101.663 50.7307H97.9578C97.9871 51.118 98.1308 51.4289 98.389 51.6636C98.6471 51.8983 98.9639 52.0156 99.3394 52.0156C99.8792 52.0156 100.261 51.7897 100.483 51.338H101.566C101.419 51.7839 101.152 52.1506 100.765 52.438C100.384 52.7196 99.9085 52.8605 99.3394 52.8605C98.8759 52.8605 98.4594 52.7578 98.0898 52.5524C97.726 52.3412 97.4385 52.0479 97.2273 51.6724C97.022 51.291 96.9193 50.851 96.9193 50.3523C96.9193 49.8536 97.0191 49.4165 97.2185 49.0411C97.4239 48.6597 97.7084 48.3664 98.0722 48.161C98.4418 47.9557 98.8642 47.853 99.3394 47.853C99.7971 47.853 100.205 47.9527 100.563 48.1522C100.921 48.3517 101.199 48.6333 101.399 48.9971C101.598 49.3549 101.698 49.7686 101.698 50.2379ZM100.651 49.9211C100.645 49.5515 100.513 49.2552 100.255 49.0323C99.9965 48.8093 99.6768 48.6978 99.2954 48.6978C98.9493 48.6978 98.653 48.8093 98.4066 49.0323C98.1602 49.2493 98.0135 49.5456 97.9666 49.9211H100.651ZM102.351 50.3347C102.351 49.8478 102.451 49.4165 102.65 49.0411C102.855 48.6656 103.131 48.3752 103.477 48.1698C103.829 47.9586 104.219 47.853 104.648 47.853C104.965 47.853 105.276 47.9234 105.581 48.0642C105.892 48.1992 106.138 48.381 106.32 48.6098V46.2689H107.332V52.7812H106.32V52.0508C106.156 52.2855 105.927 52.4791 105.633 52.6316C105.346 52.7842 105.014 52.8605 104.639 52.8605C104.217 52.8605 103.829 52.7548 103.477 52.5436C103.131 52.3266 102.855 52.0273 102.65 51.646C102.451 51.2588 102.351 50.8217 102.351 50.3347ZM106.32 50.3523C106.32 50.0179 106.249 49.7275 106.109 49.4811C105.974 49.2347 105.795 49.0469 105.572 48.9179C105.349 48.7888 105.108 48.7242 104.85 48.7242C104.592 48.7242 104.351 48.7888 104.129 48.9179C103.906 49.0411 103.724 49.2259 103.583 49.4723C103.448 49.7128 103.38 50.0003 103.38 50.3347C103.38 50.6691 103.448 50.9625 103.583 51.2148C103.724 51.4671 103.906 51.6607 104.129 51.7956C104.357 51.9247 104.598 51.9892 104.85 51.9892C105.108 51.9892 105.349 51.9247 105.572 51.7956C105.795 51.6665 105.974 51.4788 106.109 51.2324C106.249 50.9801 106.32 50.6867 106.32 50.3523Z" fill="#0069BD"/>
<rect x="121.243" y="37.2236" width="12.2578" height="12.2578" rx="6.12888" fill="#0069BD"/>
<rect x="121.243" y="37.2236" width="12.2578" height="12.2578" rx="6.12888" stroke="#0069BD" stroke-width="0.314301"/>
<path d="M126.64 44.6679L125.433 43.4604L124.914 43.9789L126.64 45.7049L130.199 42.1454L129.681 41.627L126.64 44.6679Z" fill="white" fill-opacity="0.866667"/>
<path d="M145.877 33.6649L143.58 39.7812H142.418L140.113 33.6649H141.186L142.999 38.7516L144.821 33.6649H145.877ZM148.819 39.8605C148.361 39.8605 147.948 39.7578 147.578 39.5524C147.209 39.3412 146.918 39.0479 146.707 38.6724C146.496 38.291 146.39 37.851 146.39 37.3523C146.39 36.8595 146.499 36.4224 146.716 36.0411C146.933 35.6597 147.229 35.3664 147.605 35.161C147.98 34.9557 148.4 34.853 148.863 34.853C149.327 34.853 149.746 34.9557 150.122 35.161C150.497 35.3664 150.793 35.6597 151.01 36.0411C151.227 36.4224 151.336 36.8595 151.336 37.3523C151.336 37.8452 151.225 38.2822 151.002 38.6636C150.779 39.0449 150.474 39.3412 150.086 39.5524C149.705 39.7578 149.283 39.8605 148.819 39.8605ZM148.819 38.9892C149.077 38.9892 149.318 38.9276 149.541 38.8044C149.77 38.6812 149.954 38.4964 150.095 38.25C150.236 38.0036 150.306 37.7043 150.306 37.3523C150.306 37.0003 150.239 36.704 150.104 36.4635C149.969 36.2171 149.79 36.0323 149.567 35.9091C149.344 35.7859 149.104 35.7242 148.846 35.7242C148.587 35.7242 148.347 35.7859 148.124 35.9091C147.907 36.0323 147.734 36.2171 147.605 36.4635C147.476 36.704 147.411 37.0003 147.411 37.3523C147.411 37.8745 147.543 38.2793 147.807 38.5668C148.077 38.8484 148.414 38.9892 148.819 38.9892ZM153.331 33.2689V39.7812H152.328V33.2689H153.331ZM155.819 35.7506V38.4348C155.819 38.6167 155.86 38.7487 155.942 38.8308C156.03 38.9071 156.177 38.9452 156.382 38.9452H156.998V39.7812H156.206C155.754 39.7812 155.408 39.6756 155.167 39.4644C154.927 39.2532 154.807 38.91 154.807 38.4348V35.7506H154.235V34.9322H154.807V33.7265H155.819V34.9322H156.998V35.7506H155.819ZM157.588 37.3347C157.588 36.8478 157.688 36.4165 157.887 36.0411C158.093 35.6656 158.369 35.3752 158.715 35.1698C159.067 34.9586 159.454 34.853 159.876 34.853C160.258 34.853 160.589 34.9293 160.871 35.0818C161.158 35.2285 161.387 35.4133 161.557 35.6362V34.9322H162.569V39.7812H161.557V39.0596C161.387 39.2884 161.155 39.4791 160.862 39.6316C160.569 39.7842 160.234 39.8605 159.859 39.8605C159.442 39.8605 159.061 39.7548 158.715 39.5436C158.369 39.3266 158.093 39.0273 157.887 38.646C157.688 38.2588 157.588 37.8217 157.588 37.3347ZM161.557 37.3523C161.557 37.0179 161.487 36.7275 161.346 36.4811C161.211 36.2347 161.032 36.0469 160.809 35.9179C160.586 35.7888 160.346 35.7242 160.088 35.7242C159.829 35.7242 159.589 35.7888 159.366 35.9179C159.143 36.0411 158.961 36.2259 158.82 36.4723C158.685 36.7128 158.618 37.0003 158.618 37.3347C158.618 37.6691 158.685 37.9625 158.82 38.2148C158.961 38.4671 159.143 38.6607 159.366 38.7956C159.595 38.9247 159.835 38.9892 160.088 38.9892C160.346 38.9892 160.586 38.9247 160.809 38.7956C161.032 38.6665 161.211 38.4788 161.346 38.2324C161.487 37.9801 161.557 37.6867 161.557 37.3523ZM165.841 34.853C166.216 34.853 166.548 34.9293 166.835 35.0818C167.128 35.2285 167.357 35.4133 167.522 35.6362V34.9322H168.534V39.8605C168.534 40.3063 168.44 40.7024 168.252 41.0485C168.064 41.4005 167.791 41.6763 167.434 41.8758C167.082 42.0752 166.659 42.175 166.166 42.175C165.509 42.175 164.964 42.0195 164.529 41.7085C164.095 41.4035 163.849 40.9869 163.79 40.4589H164.785C164.861 40.7112 165.022 40.9136 165.269 41.0661C165.521 41.2245 165.82 41.3037 166.166 41.3037C166.571 41.3037 166.897 41.1805 167.143 40.9341C167.395 40.6877 167.522 40.3298 167.522 39.8605V39.0508C167.351 39.2796 167.12 39.4732 166.826 39.6316C166.539 39.7842 166.21 39.8605 165.841 39.8605C165.418 39.8605 165.031 39.7548 164.679 39.5436C164.333 39.3266 164.057 39.0273 163.852 38.646C163.652 38.2588 163.553 37.8217 163.553 37.3347C163.553 36.8478 163.652 36.4165 163.852 36.0411C164.057 35.6656 164.333 35.3752 164.679 35.1698C165.031 34.9586 165.418 34.853 165.841 34.853ZM167.522 37.3523C167.522 37.0179 167.451 36.7275 167.31 36.4811C167.175 36.2347 166.996 36.0469 166.774 35.9179C166.551 35.7888 166.31 35.7242 166.052 35.7242C165.794 35.7242 165.553 35.7888 165.33 35.9179C165.107 36.0411 164.925 36.2259 164.785 36.4723C164.65 36.7128 164.582 37.0003 164.582 37.3347C164.582 37.6691 164.65 37.9625 164.785 38.2148C164.925 38.4671 165.107 38.6607 165.33 38.7956C165.559 38.9247 165.8 38.9892 166.052 38.9892C166.31 38.9892 166.551 38.9247 166.774 38.7956C166.996 38.6665 167.175 38.4788 167.31 38.2324C167.451 37.9801 167.522 37.6867 167.522 37.3523ZM174.296 37.2379C174.296 37.4198 174.284 37.5841 174.26 37.7307H170.555C170.585 38.118 170.728 38.4289 170.987 38.6636C171.245 38.8983 171.562 39.0156 171.937 39.0156C172.477 39.0156 172.858 38.7897 173.081 38.338H174.164C174.017 38.7839 173.75 39.1506 173.363 39.438C172.981 39.7196 172.506 39.8605 171.937 39.8605C171.474 39.8605 171.057 39.7578 170.687 39.5524C170.324 39.3412 170.036 39.0479 169.825 38.6724C169.62 38.291 169.517 37.851 169.517 37.3523C169.517 36.8536 169.617 36.4165 169.816 36.0411C170.021 35.6597 170.306 35.3664 170.67 35.161C171.039 34.9557 171.462 34.853 171.937 34.853C172.395 34.853 172.802 34.9527 173.16 35.1522C173.518 35.3517 173.797 35.6333 173.996 35.9971C174.196 36.3549 174.296 36.7686 174.296 37.2379ZM173.248 36.9211C173.242 36.5515 173.11 36.2552 172.852 36.0323C172.594 35.8093 172.274 35.6978 171.893 35.6978C171.547 35.6978 171.251 35.8093 171.004 36.0323C170.758 36.2493 170.611 36.5456 170.564 36.9211H173.248ZM142.621 52.8429C142.21 52.8429 141.84 52.7724 141.512 52.6316C141.183 52.485 140.925 52.2796 140.737 52.0156C140.55 51.7516 140.456 51.4436 140.456 51.0916H141.529C141.553 51.3556 141.656 51.5727 141.837 51.7428C142.025 51.9129 142.286 51.998 142.621 51.998C142.967 51.998 143.237 51.9159 143.43 51.7516C143.624 51.5815 143.721 51.3644 143.721 51.1004C143.721 50.895 143.659 50.7278 143.536 50.5987C143.419 50.4697 143.269 50.3699 143.087 50.2995C142.911 50.2291 142.665 50.1529 142.348 50.0707C141.949 49.9651 141.623 49.8595 141.371 49.7539C141.125 49.6424 140.913 49.4723 140.737 49.2435C140.561 49.0147 140.473 48.7096 140.473 48.3282C140.473 47.9762 140.561 47.6682 140.737 47.4042C140.913 47.1402 141.16 46.9378 141.477 46.797C141.793 46.6561 142.16 46.5857 142.577 46.5857C143.169 46.5857 143.653 46.7353 144.029 47.0346C144.41 47.3279 144.621 47.7327 144.662 48.249H143.553C143.536 48.0261 143.43 47.8354 143.237 47.677C143.043 47.5186 142.788 47.4394 142.471 47.4394C142.184 47.4394 141.949 47.5127 141.767 47.6594C141.585 47.8061 141.494 48.0173 141.494 48.293C141.494 48.4808 141.55 48.6362 141.661 48.7594C141.779 48.8768 141.925 48.9707 142.101 49.0411C142.277 49.1115 142.518 49.1877 142.823 49.2699C143.228 49.3813 143.556 49.4928 143.809 49.6043C144.067 49.7158 144.284 49.8888 144.46 50.1235C144.642 50.3523 144.733 50.6603 144.733 51.0476C144.733 51.3585 144.648 51.6519 144.478 51.9276C144.313 52.2034 144.07 52.4263 143.747 52.5964C143.43 52.7607 143.055 52.8429 142.621 52.8429ZM146.92 48.645C147.09 48.4221 147.322 48.2344 147.615 48.0818C147.908 47.9293 148.24 47.853 148.609 47.853C149.032 47.853 149.416 47.9586 149.762 48.1698C150.114 48.3752 150.39 48.6656 150.59 49.0411C150.789 49.4165 150.889 49.8478 150.889 50.3347C150.889 50.8217 150.789 51.2588 150.59 51.646C150.39 52.0273 150.114 52.3266 149.762 52.5436C149.416 52.7548 149.032 52.8605 148.609 52.8605C148.24 52.8605 147.911 52.7871 147.624 52.6404C147.336 52.4879 147.102 52.3002 146.92 52.0772V55.087H145.917V47.9322H146.92V48.645ZM149.868 50.3347C149.868 50.0003 149.798 49.7128 149.657 49.4723C149.522 49.2259 149.34 49.0411 149.111 48.9179C148.888 48.7888 148.648 48.7242 148.389 48.7242C148.137 48.7242 147.897 48.7888 147.668 48.9179C147.445 49.0469 147.263 49.2347 147.122 49.4811C146.987 49.7275 146.92 50.0179 146.92 50.3523C146.92 50.6867 146.987 50.9801 147.122 51.2324C147.263 51.4788 147.445 51.6665 147.668 51.7956C147.897 51.9247 148.137 51.9892 148.389 51.9892C148.648 51.9892 148.888 51.9247 149.111 51.7956C149.34 51.6607 149.522 51.4671 149.657 51.2148C149.798 50.9625 149.868 50.6691 149.868 50.3347ZM156.325 50.2379C156.325 50.4198 156.313 50.5841 156.29 50.7307H152.585C152.614 51.118 152.758 51.4289 153.016 51.6636C153.274 51.8983 153.591 52.0156 153.967 52.0156C154.506 52.0156 154.888 51.7897 155.111 51.338H156.193C156.046 51.7839 155.78 52.1506 155.392 52.438C155.011 52.7196 154.536 52.8605 153.967 52.8605C153.503 52.8605 153.087 52.7578 152.717 52.5524C152.353 52.3412 152.066 52.0479 151.855 51.6724C151.649 51.291 151.546 50.851 151.546 50.3523C151.546 49.8536 151.646 49.4165 151.846 49.0411C152.051 48.6597 152.336 48.3664 152.699 48.161C153.069 47.9557 153.491 47.853 153.967 47.853C154.424 47.853 154.832 47.9527 155.19 48.1522C155.548 48.3517 155.826 48.6333 156.026 48.9971C156.225 49.3549 156.325 49.7686 156.325 50.2379ZM155.278 49.9211C155.272 49.5515 155.14 49.2552 154.882 49.0323C154.624 48.8093 154.304 48.6978 153.923 48.6978C153.576 48.6978 153.28 48.8093 153.034 49.0323C152.787 49.2493 152.641 49.5456 152.594 49.9211H155.278ZM156.978 50.3523C156.978 49.8536 157.078 49.4165 157.277 49.0411C157.483 48.6597 157.764 48.3664 158.122 48.161C158.48 47.9557 158.891 47.853 159.354 47.853C159.941 47.853 160.425 47.9938 160.806 48.2754C161.193 48.5512 161.455 48.9472 161.589 49.4635H160.507C160.419 49.2229 160.278 49.0352 160.085 48.9003C159.891 48.7653 159.647 48.6978 159.354 48.6978C158.943 48.6978 158.615 48.8445 158.368 49.1379C158.128 49.4253 158.008 49.8302 158.008 50.3523C158.008 50.8745 158.128 51.2822 158.368 51.5756C158.615 51.8689 158.943 52.0156 159.354 52.0156C159.935 52.0156 160.319 51.7604 160.507 51.25H161.589C161.449 51.7428 161.185 52.1359 160.797 52.4292C160.41 52.7167 159.929 52.8605 159.354 52.8605C158.891 52.8605 158.48 52.7578 158.122 52.5524C157.764 52.3412 157.483 52.0479 157.277 51.6724C157.078 51.291 156.978 50.851 156.978 50.3523ZM164.349 52.8605C163.968 52.8605 163.625 52.793 163.32 52.658C163.02 52.5172 162.783 52.3295 162.607 52.0948C162.431 51.8543 162.337 51.5873 162.325 51.294H163.364C163.381 51.4993 163.478 51.6724 163.654 51.8132C163.836 51.9481 164.062 52.0156 164.332 52.0156C164.613 52.0156 164.83 51.9628 164.983 51.8572C165.141 51.7457 165.221 51.6049 165.221 51.4348C165.221 51.2529 165.133 51.118 164.957 51.03C164.786 50.942 164.514 50.8452 164.138 50.7395C163.774 50.6398 163.478 50.543 163.249 50.4491C163.02 50.3553 162.821 50.2115 162.651 50.0179C162.487 49.8243 162.404 49.5691 162.404 49.2523C162.404 48.9941 162.481 48.7594 162.633 48.5482C162.786 48.3312 163.003 48.161 163.284 48.0378C163.572 47.9146 163.901 47.853 164.27 47.853C164.822 47.853 165.265 47.9938 165.599 48.2754C165.939 48.5512 166.121 48.9296 166.145 49.4107H165.141C165.124 49.1936 165.036 49.0205 164.877 48.8915C164.719 48.7624 164.505 48.6978 164.235 48.6978C163.971 48.6978 163.769 48.7477 163.628 48.8475C163.487 48.9472 163.416 49.0792 163.416 49.2435C163.416 49.3725 163.463 49.4811 163.557 49.5691C163.651 49.6571 163.766 49.7275 163.901 49.7803C164.035 49.8272 164.235 49.8888 164.499 49.9651C164.851 50.059 165.138 50.1558 165.361 50.2555C165.59 50.3494 165.787 50.4902 165.951 50.6779C166.115 50.8657 166.2 51.115 166.206 51.426C166.206 51.7017 166.13 51.9481 165.977 52.1652C165.825 52.3823 165.608 52.5524 165.326 52.6756C165.05 52.7989 164.725 52.8605 164.349 52.8605Z" fill="#0069BD"/>
<line x1="112.285" y1="43.6681" x2="117.314" y2="43.6681" stroke="#B4B4B4" stroke-width="0.628603"/>
<rect x="210.505" y="37.2236" width="12.2578" height="12.2578" rx="6.12888" fill="#0069BD"/>
<rect x="210.505" y="37.2236" width="12.2578" height="12.2578" rx="6.12888" stroke="#0069BD" stroke-width="0.314301"/>
<path d="M215.902 44.6679L214.694 43.4604L214.176 43.9789L215.902 45.7049L219.461 42.1454L218.943 41.627L215.902 44.6679Z" fill="white" fill-opacity="0.866667"/>
<path d="M234.144 35.4866C234.144 35.7976 234.071 36.0909 233.924 36.3667C233.777 36.6424 233.543 36.8683 233.22 37.0443C232.897 37.2145 232.484 37.2995 231.979 37.2995H230.87V39.7812H229.867V33.6649H231.979C232.449 33.6649 232.845 33.7471 233.167 33.9114C233.496 34.0698 233.739 34.2868 233.898 34.5626C234.062 34.8383 234.144 35.1464 234.144 35.4866ZM231.979 36.4811C232.361 36.4811 232.645 36.396 232.833 36.2259C233.021 36.0499 233.114 35.8035 233.114 35.4866C233.114 34.8178 232.736 34.4834 231.979 34.4834H230.87V36.4811H231.979ZM239.545 37.2379C239.545 37.4198 239.533 37.5841 239.51 37.7307H235.805C235.834 38.118 235.978 38.4289 236.236 38.6636C236.494 38.8983 236.811 39.0156 237.187 39.0156C237.726 39.0156 238.108 38.7897 238.331 38.338H239.413C239.266 38.7839 239 39.1506 238.612 39.438C238.231 39.7196 237.756 39.8605 237.187 39.8605C236.723 39.8605 236.307 39.7578 235.937 39.5524C235.573 39.3412 235.286 39.0479 235.075 38.6724C234.869 38.291 234.767 37.851 234.767 37.3523C234.767 36.8536 234.866 36.4165 235.066 36.0411C235.271 35.6597 235.556 35.3664 235.919 35.161C236.289 34.9557 236.711 34.853 237.187 34.853C237.644 34.853 238.052 34.9527 238.41 35.1522C238.768 35.3517 239.046 35.6333 239.246 35.9971C239.445 36.3549 239.545 36.7686 239.545 37.2379ZM238.498 36.9211C238.492 36.5515 238.36 36.2552 238.102 36.0323C237.844 35.8093 237.524 35.6978 237.143 35.6978C236.796 35.6978 236.5 35.8093 236.254 36.0323C236.007 36.2493 235.861 36.5456 235.814 36.9211H238.498ZM241.536 35.6362C241.682 35.3898 241.876 35.1992 242.117 35.0642C242.363 34.9234 242.653 34.853 242.988 34.853V35.8915H242.733C242.339 35.8915 242.04 35.9912 241.835 36.1907C241.635 36.3901 241.536 36.7363 241.536 37.2291V39.7812H240.532V34.9322H241.536V35.6362ZM245.943 35.7506H245.045V39.7812H244.033V35.7506H243.461V34.9322H244.033V34.589C244.033 34.0316 244.18 33.6268 244.473 33.3745C244.772 33.1164 245.239 32.9873 245.872 32.9873V33.8234C245.567 33.8234 245.353 33.882 245.23 33.9994C245.107 34.1108 245.045 34.3074 245.045 34.589V34.9322H245.943V35.7506ZM248.935 39.8605C248.478 39.8605 248.064 39.7578 247.694 39.5524C247.325 39.3412 247.034 39.0479 246.823 38.6724C246.612 38.291 246.506 37.851 246.506 37.3523C246.506 36.8595 246.615 36.4224 246.832 36.0411C247.049 35.6597 247.345 35.3664 247.721 35.161C248.096 34.9557 248.516 34.853 248.979 34.853C249.443 34.853 249.862 34.9557 250.238 35.161C250.613 35.3664 250.91 35.6597 251.127 36.0411C251.344 36.4224 251.452 36.8595 251.452 37.3523C251.452 37.8452 251.341 38.2822 251.118 38.6636C250.895 39.0449 250.59 39.3412 250.203 39.5524C249.821 39.7578 249.399 39.8605 248.935 39.8605ZM248.935 38.9892C249.193 38.9892 249.434 38.9276 249.657 38.8044C249.886 38.6812 250.071 38.4964 250.211 38.25C250.352 38.0036 250.423 37.7043 250.423 37.3523C250.423 37.0003 250.355 36.704 250.22 36.4635C250.085 36.2171 249.906 36.0323 249.683 35.9091C249.46 35.7859 249.22 35.7242 248.962 35.7242C248.704 35.7242 248.463 35.7859 248.24 35.9091C248.023 36.0323 247.85 36.2171 247.721 36.4635C247.592 36.704 247.527 37.0003 247.527 37.3523C247.527 37.8745 247.659 38.2793 247.923 38.5668C248.193 38.8484 248.53 38.9892 248.935 38.9892ZM253.447 35.6362C253.594 35.3898 253.788 35.1992 254.028 35.0642C254.274 34.9234 254.565 34.853 254.899 34.853V35.8915H254.644C254.251 35.8915 253.952 35.9912 253.746 36.1907C253.547 36.3901 253.447 36.7363 253.447 37.2291V39.7812H252.444V34.9322H253.447V35.6362ZM261.691 34.853C262.073 34.853 262.413 34.9322 262.712 35.0906C263.017 35.249 263.255 35.4837 263.425 35.7947C263.601 36.1056 263.689 36.4811 263.689 36.9211V39.7812H262.695V37.0707C262.695 36.6366 262.586 36.3051 262.369 36.0763C262.152 35.8416 261.856 35.7242 261.48 35.7242C261.105 35.7242 260.805 35.8416 260.583 36.0763C260.365 36.3051 260.257 36.6366 260.257 37.0707V39.7812H259.262V37.0707C259.262 36.6366 259.154 36.3051 258.937 36.0763C258.72 35.8416 258.423 35.7242 258.048 35.7242C257.673 35.7242 257.373 35.8416 257.15 36.0763C256.933 36.3051 256.825 36.6366 256.825 37.0707V39.7812H255.821V34.9322H256.825V35.4866C256.989 35.2872 257.197 35.1317 257.45 35.0202C257.702 34.9087 257.972 34.853 258.259 34.853C258.646 34.853 258.993 34.9351 259.298 35.0994C259.603 35.2637 259.837 35.5013 260.002 35.8123C260.148 35.5189 260.377 35.2872 260.688 35.117C260.999 34.941 261.333 34.853 261.691 34.853ZM264.631 37.3347C264.631 36.8478 264.731 36.4165 264.93 36.0411C265.136 35.6656 265.412 35.3752 265.758 35.1698C266.11 34.9586 266.497 34.853 266.919 34.853C267.301 34.853 267.632 34.9293 267.914 35.0818C268.201 35.2285 268.43 35.4133 268.6 35.6362V34.9322H269.612V39.7812H268.6V39.0596C268.43 39.2884 268.198 39.4791 267.905 39.6316C267.612 39.7842 267.277 39.8605 266.902 39.8605C266.485 39.8605 266.104 39.7548 265.758 39.5436C265.412 39.3266 265.136 39.0273 264.93 38.646C264.731 38.2588 264.631 37.8217 264.631 37.3347ZM268.6 37.3523C268.6 37.0179 268.53 36.7275 268.389 36.4811C268.254 36.2347 268.075 36.0469 267.852 35.9179C267.629 35.7888 267.389 35.7242 267.131 35.7242C266.872 35.7242 266.632 35.7888 266.409 35.9179C266.186 36.0411 266.004 36.2259 265.863 36.4723C265.728 36.7128 265.661 37.0003 265.661 37.3347C265.661 37.6691 265.728 37.9625 265.863 38.2148C266.004 38.4671 266.186 38.6607 266.409 38.7956C266.638 38.9247 266.878 38.9892 267.131 38.9892C267.389 38.9892 267.629 38.9247 267.852 38.7956C268.075 38.6665 268.254 38.4788 268.389 38.2324C268.53 37.9801 268.6 37.6867 268.6 37.3523ZM273.377 34.853C273.758 34.853 274.098 34.9322 274.397 35.0906C274.703 35.249 274.94 35.4837 275.11 35.7947C275.28 36.1056 275.365 36.4811 275.365 36.9211V39.7812H274.371V37.0707C274.371 36.6366 274.262 36.3051 274.045 36.0763C273.828 35.8416 273.532 35.7242 273.157 35.7242C272.781 35.7242 272.482 35.8416 272.259 36.0763C272.042 36.3051 271.933 36.6366 271.933 37.0707V39.7812H270.93V34.9322H271.933V35.4866C272.098 35.2872 272.306 35.1317 272.558 35.0202C272.816 34.9087 273.089 34.853 273.377 34.853ZM276.311 37.3523C276.311 36.8536 276.411 36.4165 276.61 36.0411C276.815 35.6597 277.097 35.3664 277.455 35.161C277.813 34.9557 278.223 34.853 278.687 34.853C279.274 34.853 279.758 34.9938 280.139 35.2754C280.526 35.5512 280.787 35.9472 280.922 36.4635H279.84C279.752 36.2229 279.611 36.0352 279.417 35.9003C279.224 35.7653 278.98 35.6978 278.687 35.6978C278.276 35.6978 277.948 35.8445 277.701 36.1379C277.461 36.4253 277.34 36.8302 277.34 37.3523C277.34 37.8745 277.461 38.2822 277.701 38.5756C277.948 38.8689 278.276 39.0156 278.687 39.0156C279.268 39.0156 279.652 38.7604 279.84 38.25H280.922C280.781 38.7428 280.517 39.1359 280.13 39.4292C279.743 39.7167 279.262 39.8605 278.687 39.8605C278.223 39.8605 277.813 39.7578 277.455 39.5524C277.097 39.3412 276.815 39.0479 276.61 38.6724C276.411 38.291 276.311 37.851 276.311 37.3523ZM286.366 37.2379C286.366 37.4198 286.354 37.5841 286.331 37.7307H282.626C282.655 38.118 282.799 38.4289 283.057 38.6636C283.315 38.8983 283.632 39.0156 284.008 39.0156C284.547 39.0156 284.929 38.7897 285.152 38.338H286.234C286.088 38.7839 285.821 39.1506 285.433 39.438C285.052 39.7196 284.577 39.8605 284.008 39.8605C283.544 39.8605 283.128 39.7578 282.758 39.5524C282.394 39.3412 282.107 39.0479 281.896 38.6724C281.69 38.291 281.588 37.851 281.588 37.3523C281.588 36.8536 281.687 36.4165 281.887 36.0411C282.092 35.6597 282.377 35.3664 282.74 35.161C283.11 34.9557 283.532 34.853 284.008 34.853C284.465 34.853 284.873 34.9527 285.231 35.1522C285.589 35.3517 285.868 35.6333 286.067 35.9971C286.266 36.3549 286.366 36.7686 286.366 37.2379ZM285.319 36.9211C285.313 36.5515 285.181 36.2552 284.923 36.0323C284.665 35.8093 284.345 35.6978 283.964 35.6978C283.618 35.6978 283.321 35.8093 283.075 36.0323C282.828 36.2493 282.682 36.5456 282.635 36.9211H285.319ZM231.882 52.8429C231.472 52.8429 231.102 52.7724 230.774 52.6316C230.445 52.485 230.187 52.2796 229.999 52.0156C229.811 51.7516 229.717 51.4436 229.717 51.0916H230.791C230.815 51.3556 230.917 51.5727 231.099 51.7428C231.287 51.9129 231.548 51.998 231.882 51.998C232.229 51.998 232.498 51.9159 232.692 51.7516C232.886 51.5815 232.982 51.3644 232.982 51.1004C232.982 50.895 232.921 50.7278 232.798 50.5987C232.68 50.4697 232.531 50.3699 232.349 50.2995C232.173 50.2291 231.926 50.1529 231.61 50.0707C231.211 49.9651 230.885 49.8595 230.633 49.7539C230.386 49.6424 230.175 49.4723 229.999 49.2435C229.823 49.0147 229.735 48.7096 229.735 48.3282C229.735 47.9762 229.823 47.6682 229.999 47.4042C230.175 47.1402 230.421 46.9378 230.738 46.797C231.055 46.6561 231.422 46.5857 231.838 46.5857C232.431 46.5857 232.915 46.7353 233.29 47.0346C233.672 47.3279 233.883 47.7327 233.924 48.249H232.815C232.798 48.0261 232.692 47.8354 232.498 47.677C232.305 47.5186 232.05 47.4394 231.733 47.4394C231.445 47.4394 231.211 47.5127 231.029 47.6594C230.847 47.8061 230.756 48.0173 230.756 48.293C230.756 48.4808 230.812 48.6362 230.923 48.7594C231.04 48.8768 231.187 48.9707 231.363 49.0411C231.539 49.1115 231.78 49.1877 232.085 49.2699C232.49 49.3813 232.818 49.4928 233.07 49.6043C233.329 49.7158 233.546 49.8888 233.722 50.1235C233.904 50.3523 233.994 50.6603 233.994 51.0476C233.994 51.3585 233.909 51.6519 233.739 51.9276C233.575 52.2034 233.332 52.4263 233.009 52.5964C232.692 52.7607 232.317 52.8429 231.882 52.8429ZM236.182 48.645C236.352 48.4221 236.583 48.2344 236.877 48.0818C237.17 47.9293 237.502 47.853 237.871 47.853C238.294 47.853 238.678 47.9586 239.024 48.1698C239.376 48.3752 239.652 48.6656 239.851 49.0411C240.051 49.4165 240.151 49.8478 240.151 50.3347C240.151 50.8217 240.051 51.2588 239.851 51.646C239.652 52.0273 239.376 52.3266 239.024 52.5436C238.678 52.7548 238.294 52.8605 237.871 52.8605C237.502 52.8605 237.173 52.7871 236.886 52.6404C236.598 52.4879 236.363 52.3002 236.182 52.0772V55.087H235.178V47.9322H236.182V48.645ZM239.13 50.3347C239.13 50.0003 239.059 49.7128 238.918 49.4723C238.784 49.2259 238.602 49.0411 238.373 48.9179C238.15 48.7888 237.909 48.7242 237.651 48.7242C237.399 48.7242 237.158 48.7888 236.93 48.9179C236.707 49.0469 236.525 49.2347 236.384 49.4811C236.249 49.7275 236.182 50.0179 236.182 50.3523C236.182 50.6867 236.249 50.9801 236.384 51.2324C236.525 51.4788 236.707 51.6665 236.93 51.7956C237.158 51.9247 237.399 51.9892 237.651 51.9892C237.909 51.9892 238.15 51.9247 238.373 51.7956C238.602 51.6607 238.784 51.4671 238.918 51.2148C239.059 50.9625 239.13 50.6691 239.13 50.3347ZM245.587 50.2379C245.587 50.4198 245.575 50.5841 245.552 50.7307H241.847C241.876 51.118 242.02 51.4289 242.278 51.6636C242.536 51.8983 242.853 52.0156 243.228 52.0156C243.768 52.0156 244.149 51.7897 244.372 51.338H245.455C245.308 51.7839 245.041 52.1506 244.654 52.438C244.273 52.7196 243.797 52.8605 243.228 52.8605C242.765 52.8605 242.348 52.7578 241.979 52.5524C241.615 52.3412 241.327 52.0479 241.116 51.6724C240.911 51.291 240.808 50.851 240.808 50.3523C240.808 49.8536 240.908 49.4165 241.107 49.0411C241.313 48.6597 241.597 48.3664 241.961 48.161C242.331 47.9557 242.753 47.853 243.228 47.853C243.686 47.853 244.094 47.9527 244.452 48.1522C244.809 48.3517 245.088 48.6333 245.288 48.9971C245.487 49.3549 245.587 49.7686 245.587 50.2379ZM244.54 49.9211C244.534 49.5515 244.402 49.2552 244.144 49.0323C243.885 48.8093 243.566 48.6978 243.184 48.6978C242.838 48.6978 242.542 48.8093 242.295 49.0323C242.049 49.2493 241.902 49.5456 241.855 49.9211H244.54ZM246.24 50.3523C246.24 49.8536 246.339 49.4165 246.539 49.0411C246.744 48.6597 247.026 48.3664 247.384 48.161C247.742 47.9557 248.152 47.853 248.616 47.853C249.203 47.853 249.687 47.9938 250.068 48.2754C250.455 48.5512 250.716 48.9472 250.851 49.4635H249.769C249.681 49.2229 249.54 49.0352 249.346 48.9003C249.153 48.7653 248.909 48.6978 248.616 48.6978C248.205 48.6978 247.877 48.8445 247.63 49.1379C247.39 49.4253 247.269 49.8302 247.269 50.3523C247.269 50.8745 247.39 51.2822 247.63 51.5756C247.877 51.8689 248.205 52.0156 248.616 52.0156C249.197 52.0156 249.581 51.7604 249.769 51.25H250.851C250.71 51.7428 250.446 52.1359 250.059 52.4292C249.672 52.7167 249.191 52.8605 248.616 52.8605C248.152 52.8605 247.742 52.7578 247.384 52.5524C247.026 52.3412 246.744 52.0479 246.539 51.6724C246.339 51.291 246.24 50.851 246.24 50.3523ZM253.611 52.8605C253.23 52.8605 252.886 52.793 252.581 52.658C252.282 52.5172 252.045 52.3295 251.869 52.0948C251.693 51.8543 251.599 51.5873 251.587 51.294H252.625C252.643 51.4993 252.74 51.6724 252.916 51.8132C253.098 51.9481 253.324 52.0156 253.593 52.0156C253.875 52.0156 254.092 51.9628 254.245 51.8572C254.403 51.7457 254.482 51.6049 254.482 51.4348C254.482 51.2529 254.394 51.118 254.218 51.03C254.048 50.942 253.775 50.8452 253.4 50.7395C253.036 50.6398 252.74 50.543 252.511 50.4491C252.282 50.3553 252.083 50.2115 251.913 50.0179C251.748 49.8243 251.666 49.5691 251.666 49.2523C251.666 48.9941 251.742 48.7594 251.895 48.5482C252.048 48.3312 252.265 48.161 252.546 48.0378C252.834 47.9146 253.162 47.853 253.532 47.853C254.083 47.853 254.526 47.9938 254.861 48.2754C255.201 48.5512 255.383 48.9296 255.406 49.4107H254.403C254.386 49.1936 254.297 49.0205 254.139 48.8915C253.981 48.7624 253.767 48.6978 253.497 48.6978C253.233 48.6978 253.03 48.7477 252.889 48.8475C252.749 48.9472 252.678 49.0792 252.678 49.2435C252.678 49.3725 252.725 49.4811 252.819 49.5691C252.913 49.6571 253.027 49.7275 253.162 49.7803C253.297 49.8272 253.497 49.8888 253.761 49.9651C254.113 50.059 254.4 50.1558 254.623 50.2555C254.852 50.3494 255.048 50.4902 255.213 50.6779C255.377 50.8657 255.462 51.115 255.468 51.426C255.468 51.7017 255.392 51.9481 255.239 52.1652C255.087 52.3823 254.87 52.5524 254.588 52.6756C254.312 52.7989 253.987 52.8605 253.611 52.8605Z" fill="#0069BD"/>
<line x1="201.547" y1="43.6681" x2="206.576" y2="43.6681" stroke="#B4B4B4" stroke-width="0.628603"/>
<rect x="299.924" y="37.3807" width="11.9435" height="11.9435" rx="5.97173" fill="#0069BD" fill-opacity="0.1"/>
<rect x="299.924" y="37.3807" width="11.9435" height="11.9435" rx="5.97173" stroke="#0069BD" stroke-width="0.628603"/>
<rect x="303.383" y="40.8379" width="5.02882" height="5.02882" rx="2.51441" fill="#0069BD"/>
<path d="M322.728 33.6649V34.4834H320.132V36.2875H322.156V37.1059H320.132V39.7812H319.129V33.6649H322.728ZM325.761 39.8605C325.304 39.8605 324.89 39.7578 324.52 39.5524C324.151 39.3412 323.86 39.0479 323.649 38.6724C323.438 38.291 323.332 37.851 323.332 37.3523C323.332 36.8595 323.441 36.4224 323.658 36.0411C323.875 35.6597 324.171 35.3664 324.547 35.161C324.922 34.9557 325.342 34.853 325.805 34.853C326.269 34.853 326.688 34.9557 327.064 35.161C327.439 35.3664 327.735 35.6597 327.953 36.0411C328.17 36.4224 328.278 36.8595 328.278 37.3523C328.278 37.8452 328.167 38.2822 327.944 38.6636C327.721 39.0449 327.416 39.3412 327.028 39.5524C326.647 39.7578 326.225 39.8605 325.761 39.8605ZM325.761 38.9892C326.019 38.9892 326.26 38.9276 326.483 38.8044C326.712 38.6812 326.896 38.4964 327.037 38.25C327.178 38.0036 327.248 37.7043 327.248 37.3523C327.248 37.0003 327.181 36.704 327.046 36.4635C326.911 36.2171 326.732 36.0323 326.509 35.9091C326.286 35.7859 326.046 35.7242 325.788 35.7242C325.529 35.7242 325.289 35.7859 325.066 35.9091C324.849 36.0323 324.676 36.2171 324.547 36.4635C324.418 36.704 324.353 37.0003 324.353 37.3523C324.353 37.8745 324.485 38.2793 324.749 38.5668C325.019 38.8484 325.356 38.9892 325.761 38.9892ZM330.273 35.6362C330.42 35.3898 330.613 35.1992 330.854 35.0642C331.1 34.9234 331.391 34.853 331.725 34.853V35.8915H331.47C331.077 35.8915 330.778 35.9912 330.572 36.1907C330.373 36.3901 330.273 36.7363 330.273 37.2291V39.7812H329.27V34.9322H330.273V35.6362ZM332.313 37.3523C332.313 36.8536 332.413 36.4165 332.612 36.0411C332.818 35.6597 333.099 35.3664 333.457 35.161C333.815 34.9557 334.226 34.853 334.689 34.853C335.276 34.853 335.76 34.9938 336.141 35.2754C336.528 35.5512 336.789 35.9472 336.924 36.4635H335.842C335.754 36.2229 335.613 36.0352 335.42 35.9003C335.226 35.7653 334.982 35.6978 334.689 35.6978C334.278 35.6978 333.95 35.8445 333.703 36.1379C333.463 36.4253 333.343 36.8302 333.343 37.3523C333.343 37.8745 333.463 38.2822 333.703 38.5756C333.95 38.8689 334.278 39.0156 334.689 39.0156C335.27 39.0156 335.654 38.7604 335.842 38.25H336.924C336.784 38.7428 336.52 39.1359 336.132 39.4292C335.745 39.7167 335.264 39.8605 334.689 39.8605C334.226 39.8605 333.815 39.7578 333.457 39.5524C333.099 39.3412 332.818 39.0479 332.612 38.6724C332.413 38.291 332.313 37.851 332.313 37.3523ZM342.368 37.2379C342.368 37.4198 342.357 37.5841 342.333 37.7307H338.628C338.658 38.118 338.801 38.4289 339.06 38.6636C339.318 38.8983 339.634 39.0156 340.01 39.0156C340.55 39.0156 340.931 38.7897 341.154 38.338H342.236C342.09 38.7839 341.823 39.1506 341.436 39.438C341.054 39.7196 340.579 39.8605 340.01 39.8605C339.546 39.8605 339.13 39.7578 338.76 39.5524C338.397 39.3412 338.109 39.0479 337.898 38.6724C337.693 38.291 337.59 37.851 337.59 37.3523C337.59 36.8536 337.69 36.4165 337.889 36.0411C338.094 35.6597 338.379 35.3664 338.743 35.161C339.112 34.9557 339.535 34.853 340.01 34.853C340.468 34.853 340.875 34.9527 341.233 35.1522C341.591 35.3517 341.87 35.6333 342.069 35.9971C342.269 36.3549 342.368 36.7686 342.368 37.2379ZM341.321 36.9211C341.315 36.5515 341.183 36.2552 340.925 36.0323C340.667 35.8093 340.347 35.6978 339.966 35.6978C339.62 35.6978 339.324 35.8093 339.077 36.0323C338.831 36.2493 338.684 36.5456 338.637 36.9211H341.321ZM347.745 39.8605C347.288 39.8605 346.874 39.7578 346.504 39.5524C346.135 39.3412 345.844 39.0479 345.633 38.6724C345.422 38.291 345.316 37.851 345.316 37.3523C345.316 36.8595 345.425 36.4224 345.642 36.0411C345.859 35.6597 346.155 35.3664 346.531 35.161C346.906 34.9557 347.326 34.853 347.789 34.853C348.253 34.853 348.672 34.9557 349.048 35.161C349.423 35.3664 349.719 35.6597 349.936 36.0411C350.154 36.4224 350.262 36.8595 350.262 37.3523C350.262 37.8452 350.151 38.2822 349.928 38.6636C349.705 39.0449 349.4 39.3412 349.012 39.5524C348.631 39.7578 348.209 39.8605 347.745 39.8605ZM347.745 38.9892C348.003 38.9892 348.244 38.9276 348.467 38.8044C348.696 38.6812 348.88 38.4964 349.021 38.25C349.162 38.0036 349.232 37.7043 349.232 37.3523C349.232 37.0003 349.165 36.704 349.03 36.4635C348.895 36.2171 348.716 36.0323 348.493 35.9091C348.27 35.7859 348.03 35.7242 347.772 35.7242C347.513 35.7242 347.273 35.7859 347.05 35.9091C346.833 36.0323 346.66 36.2171 346.531 36.4635C346.402 36.704 346.337 37.0003 346.337 37.3523C346.337 37.8745 346.469 38.2793 346.733 38.5668C347.003 38.8484 347.34 38.9892 347.745 38.9892ZM353.7 34.853C354.082 34.853 354.422 34.9322 354.721 35.0906C355.026 35.249 355.264 35.4837 355.434 35.7947C355.604 36.1056 355.689 36.4811 355.689 36.9211V39.7812H354.695V37.0707C354.695 36.6366 354.586 36.3051 354.369 36.0763C354.152 35.8416 353.856 35.7242 353.48 35.7242C353.105 35.7242 352.806 35.8416 352.583 36.0763C352.366 36.3051 352.257 36.6366 352.257 37.0707V39.7812H351.254V34.9322H352.257V35.4866C352.421 35.2872 352.63 35.1317 352.882 35.0202C353.14 34.9087 353.413 34.853 353.7 34.853ZM324.4 46.6649L322.103 52.7812H320.942L318.636 46.6649H319.71L321.523 51.7516L323.344 46.6649H324.4ZM329.683 50.2379C329.683 50.4198 329.672 50.5841 329.648 50.7307H325.943C325.973 51.118 326.116 51.4289 326.375 51.6636C326.633 51.8983 326.949 52.0156 327.325 52.0156C327.865 52.0156 328.246 51.7897 328.469 51.338H329.551C329.405 51.7839 329.138 52.1506 328.751 52.438C328.369 52.7196 327.894 52.8605 327.325 52.8605C326.861 52.8605 326.445 52.7578 326.075 52.5524C325.712 52.3412 325.424 52.0479 325.213 51.6724C325.007 51.291 324.905 50.851 324.905 50.3523C324.905 49.8536 325.005 49.4165 325.204 49.0411C325.409 48.6597 325.694 48.3664 326.058 48.161C326.427 47.9557 326.85 47.853 327.325 47.853C327.783 47.853 328.19 47.9527 328.548 48.1522C328.906 48.3517 329.185 48.6333 329.384 48.9971C329.584 49.3549 329.683 49.7686 329.683 50.2379ZM328.636 49.9211C328.63 49.5515 328.498 49.2552 328.24 49.0323C327.982 48.8093 327.662 48.6978 327.281 48.6978C326.935 48.6978 326.639 48.8093 326.392 49.0323C326.146 49.2493 325.999 49.5456 325.952 49.9211H328.636ZM333.179 47.853C333.549 47.853 333.877 47.9322 334.165 48.0906C334.458 48.249 334.687 48.4837 334.851 48.7947C335.021 49.1056 335.106 49.4811 335.106 49.9211V52.7812H334.112V50.0707C334.112 49.6366 334.003 49.3051 333.786 49.0763C333.569 48.8416 333.273 48.7242 332.897 48.7242C332.522 48.7242 332.223 48.8416 332 49.0763C331.783 49.3051 331.674 49.6366 331.674 50.0707V52.7812H330.671V46.2689H331.674V48.4954C331.844 48.2901 332.058 48.1317 332.316 48.0202C332.58 47.9087 332.868 47.853 333.179 47.853ZM336.896 47.2898C336.714 47.2898 336.562 47.2282 336.439 47.105C336.315 46.9818 336.254 46.8292 336.254 46.6473C336.254 46.4655 336.315 46.3129 336.439 46.1897C336.562 46.0665 336.714 46.0049 336.896 46.0049C337.072 46.0049 337.222 46.0665 337.345 46.1897C337.468 46.3129 337.53 46.4655 337.53 46.6473C337.53 46.8292 337.468 46.9818 337.345 47.105C337.222 47.2282 337.072 47.2898 336.896 47.2898ZM337.389 47.9322V52.7812H336.386V47.9322H337.389ZM338.372 50.3523C338.372 49.8536 338.472 49.4165 338.671 49.0411C338.876 48.6597 339.158 48.3664 339.516 48.161C339.874 47.9557 340.285 47.853 340.748 47.853C341.335 47.853 341.819 47.9938 342.2 48.2754C342.587 48.5512 342.848 48.9472 342.983 49.4635H341.901C341.813 49.2229 341.672 49.0352 341.478 48.9003C341.285 48.7653 341.041 48.6978 340.748 48.6978C340.337 48.6978 340.009 48.8445 339.762 49.1379C339.522 49.4253 339.402 49.8302 339.402 50.3523C339.402 50.8745 339.522 51.2822 339.762 51.5756C340.009 51.8689 340.337 52.0156 340.748 52.0156C341.329 52.0156 341.713 51.7604 341.901 51.25H342.983C342.843 51.7428 342.579 52.1359 342.191 52.4292C341.804 52.7167 341.323 52.8605 340.748 52.8605C340.285 52.8605 339.874 52.7578 339.516 52.5524C339.158 52.3412 338.876 52.0479 338.671 51.6724C338.472 51.291 338.372 50.851 338.372 50.3523ZM344.986 46.2689V52.7812H343.983V46.2689H344.986ZM350.748 50.2379C350.748 50.4198 350.736 50.5841 350.713 50.7307H347.008C347.037 51.118 347.181 51.4289 347.439 51.6636C347.697 51.8983 348.014 52.0156 348.389 52.0156C348.929 52.0156 349.31 51.7897 349.533 51.338H350.616C350.469 51.7839 350.202 52.1506 349.815 52.438C349.434 52.7196 348.958 52.8605 348.389 52.8605C347.926 52.8605 347.509 52.7578 347.14 52.5524C346.776 52.3412 346.488 52.0479 346.277 51.6724C346.072 51.291 345.969 50.851 345.969 50.3523C345.969 49.8536 346.069 49.4165 346.268 49.0411C346.474 48.6597 346.758 48.3664 347.122 48.161C347.492 47.9557 347.914 47.853 348.389 47.853C348.847 47.853 349.255 47.9527 349.613 48.1522C349.97 48.3517 350.249 48.6333 350.449 48.9971C350.648 49.3549 350.748 49.7686 350.748 50.2379ZM349.701 49.9211C349.695 49.5515 349.563 49.2552 349.305 49.0323C349.046 48.8093 348.727 48.6978 348.345 48.6978C347.999 48.6978 347.703 48.8093 347.456 49.0323C347.21 49.2493 347.063 49.5456 347.016 49.9211H349.701Z" fill="#0069BD"/>
<line x1="290.809" y1="43.6681" x2="295.837" y2="43.6681" stroke="#B4B4B4" stroke-width="0.628603"/>
<defs>
<filter id="filter0_d_3079_1343" x="10.963" y="17.9785" width="366.017" height="55.8417" filterUnits="userSpaceOnUse" color-interpolation-filters="sRGB">
<feFlood flood-opacity="0" result="BackgroundImageFix"/>
<feColorMatrix in="SourceAlpha" type="matrix" values="0 0 0 0 0 0 0 0 0 0 0 0 0 0 0 0 0 0 127 0" result="hardAlpha"/>
<feOffset dx="-2.82871" dy="2.82871"/>
<feGaussianBlur stdDeviation="1.13148"/>
<feComposite in2="hardAlpha" operator="out"/>
<feColorMatrix type="matrix" values="0 0 0 0 0.466667 0 0 0 0 0.466667 0 0 0 0 0.466667 0 0 0 0.25 0"/>
<feBlend mode="normal" in2="BackgroundImageFix" result="effect1_dropShadow_3079_1343"/>
<feBlend mode="normal" in="SourceGraphic" in2="effect1_dropShadow_3079_1343" result="shape"/>
</filter>
</defs>
</svg>
