<svg width="394" height="342" viewBox="0 0 394 342" fill="none" xmlns="http://www.w3.org/2000/svg">
<rect x="0.601562" y="0.308594" width="392.508" height="341.627" rx="8" fill="#D6EAF9"/>
<g filter="url(#filter0_d_3066_1337)">
<rect x="126.074" y="50.1953" width="141.57" height="137.61" rx="17.82" fill="white"/>
</g>
<g clip-path="url(#clip0_3066_1337)">
<path d="M226.461 93.7656H233.737C234.455 93.7656 235.037 94.3451 235.037 95.065V97.6637C235.037 98.381 234.486 99.145 233.802 99.3737" stroke="#0069BD" stroke-width="2.673" stroke-miterlimit="10" stroke-linecap="round" stroke-linejoin="round"/>
<path d="M172.665 128.848V135.345C172.665 136.779 171.503 137.943 170.066 137.943H164.868C163.431 137.943 162.27 136.779 162.27 135.345V128.848" stroke="#0069BD" stroke-width="2.673" stroke-miterlimit="10" stroke-linecap="round" stroke-linejoin="round"/>
<path d="M232.438 127.549V135.345C232.438 136.78 231.276 137.944 229.839 137.944H224.642C223.205 137.944 222.043 136.78 222.043 135.345V127.549" stroke="#0069BD" stroke-width="2.673" stroke-miterlimit="10" stroke-linecap="round" stroke-linejoin="round"/>
<path d="M168.248 93.7656H160.971C160.254 93.7656 159.672 94.3451 159.672 95.065V97.6637C159.672 98.381 160.223 99.145 160.906 99.3737" stroke="#0069BD" stroke-width="2.673" stroke-miterlimit="10" stroke-linecap="round" stroke-linejoin="round"/>
<path d="M166.453 102.87L170.336 85.3547C171.03 82.2362 173.54 79.8428 176.697 79.3438C178.909 78.9982 181.656 78.6629 185.738 78.4395" stroke="#0069BD" stroke-width="2.673" stroke-miterlimit="10" stroke-linecap="round" stroke-linejoin="round"/>
<path d="M210.262 78.5137C213.648 78.7346 216.044 79.036 218.009 79.3427C221.166 79.8416 223.679 82.2351 224.37 85.3536L228.253 102.872" stroke="#0069BD" stroke-width="2.673" stroke-miterlimit="10" stroke-linecap="round" stroke-linejoin="round"/>
<path d="M232.437 127.549H162.271C160.834 127.549 159.672 126.385 159.672 124.95V122.352H235.036V124.95C235.036 126.385 233.874 127.549 232.437 127.549Z" stroke="#0069BD" stroke-width="2.673" stroke-miterlimit="10" stroke-linecap="round" stroke-linejoin="round"/>
<path d="M159.672 115.856V109.359C159.672 101.724 168.983 101.562 197.354 101.562C225.724 101.562 235.036 101.726 235.036 109.359V115.045" stroke="#0069BD" stroke-width="2.673" stroke-miterlimit="10" stroke-linecap="round" stroke-linejoin="round"/>
<path d="M235.038 109.357V117.154H219.445V111.956C219.445 110.519 220.607 109.357 222.044 109.357H229.84" stroke="#0069BD" stroke-width="2.673" stroke-miterlimit="10" stroke-linecap="round" stroke-linejoin="round"/>
<path d="M164.869 109.357H172.666C174.103 109.357 175.264 110.519 175.264 111.956V117.154H159.672V109.357" stroke="#0069BD" stroke-width="2.673" stroke-miterlimit="10" stroke-linecap="round" stroke-linejoin="round"/>
<path d="M180.465 117.154V114.555C180.465 111.696 182.804 109.357 185.662 109.357H209.051C211.91 109.357 214.249 111.696 214.249 114.555V117.154" stroke="#0069BD" stroke-width="2.673" stroke-miterlimit="10" stroke-linecap="round" stroke-linejoin="round"/>
<path d="M206.449 75.566H198.838L201.252 62.5723L188.258 83.3623H196.054L193.455 96.356L206.449 75.566Z" fill="#222222" stroke="#222222" stroke-width="2.673" stroke-miterlimit="10" stroke-linecap="round" stroke-linejoin="round"/>
</g>
<path d="M189.974 157.462V161.097H194.251V162.754H189.974V166.55H194.785V168.207H187.942V155.804H194.785V157.462H189.974ZM207.962 155.822L203.311 168.207H200.958L196.289 155.822H198.463L202.134 166.122L205.823 155.822H207.962Z" fill="black"/>
<g filter="url(#filter1_d_3066_1337)">
<rect x="36.1914" y="220.684" width="318.295" height="80.7342" rx="10.8089" fill="white"/>
</g>
<rect x="52.2772" y="253.439" width="15.2229" height="15.2229" rx="7.61147" fill="#0069BD"/>
<rect x="52.2772" y="253.439" width="15.2229" height="15.2229" rx="7.61147" stroke="#0069BD" stroke-width="0.390332"/>
<path d="M58.9794 262.683L57.4799 261.183L56.8359 261.827L58.9794 263.971L63.3999 259.55L62.756 258.906L58.9794 262.683Z" fill="white" fill-opacity="0.866667"/>
<path d="M82.8663 249.842L80.0138 257.438H78.5711L75.7077 249.842H77.041L79.2925 256.159L81.5548 249.842H82.8663ZM89.4276 254.279C89.4276 254.505 89.413 254.709 89.3839 254.891H84.7826C84.8191 255.372 84.9976 255.758 85.3182 256.049C85.6388 256.341 86.0322 256.487 86.4985 256.487C87.1689 256.487 87.6425 256.206 87.9194 255.645H89.2637C89.0815 256.199 88.75 256.654 88.2691 257.011C87.7955 257.361 87.2053 257.536 86.4985 257.536C85.9229 257.536 85.4056 257.408 84.9466 257.153C84.4948 256.891 84.1378 256.527 83.8755 256.06C83.6205 255.587 83.493 255.04 83.493 254.421C83.493 253.802 83.6169 253.259 83.8646 252.793C84.1196 252.319 84.473 251.955 84.9247 251.7C85.3838 251.445 85.9084 251.317 86.4985 251.317C87.0669 251.317 87.5733 251.441 88.0177 251.689C88.4622 251.936 88.8083 252.286 89.056 252.738C89.3037 253.182 89.4276 253.696 89.4276 254.279ZM88.127 253.885C88.1197 253.426 87.9558 253.058 87.6352 252.782C87.3146 252.505 86.9175 252.366 86.4439 252.366C86.014 252.366 85.6461 252.505 85.34 252.782C85.034 253.051 84.8519 253.419 84.7936 253.885H88.127ZM93.7686 251.317C94.2276 251.317 94.6356 251.415 94.9927 251.612C95.357 251.809 95.6411 252.1 95.8451 252.487C96.0564 252.873 96.1621 253.339 96.1621 253.885V257.438H94.9271V254.071C94.9271 253.532 94.7923 253.12 94.5227 252.836C94.2531 252.545 93.8852 252.399 93.4188 252.399C92.9525 252.399 92.5809 252.545 92.304 252.836C92.0345 253.12 91.8997 253.532 91.8997 254.071V257.438H90.6537V249.35H91.8997V252.115C92.111 251.86 92.3769 251.663 92.6975 251.525C93.0254 251.386 93.3824 251.317 93.7686 251.317ZM98.3853 250.618C98.1594 250.618 97.9699 250.541 97.8169 250.388C97.6639 250.235 97.5874 250.046 97.5874 249.82C97.5874 249.594 97.6639 249.404 97.8169 249.251C97.9699 249.098 98.1594 249.022 98.3853 249.022C98.6038 249.022 98.7896 249.098 98.9427 249.251C99.0957 249.404 99.1722 249.594 99.1722 249.82C99.1722 250.046 99.0957 250.235 98.9427 250.388C98.7896 250.541 98.6038 250.618 98.3853 250.618ZM98.9973 251.415V257.438H97.7514V251.415H98.9973ZM100.218 254.421C100.218 253.802 100.342 253.259 100.589 252.793C100.844 252.319 101.194 251.955 101.639 251.7C102.083 251.445 102.593 251.317 103.169 251.317C103.897 251.317 104.498 251.492 104.972 251.842C105.453 252.184 105.777 252.676 105.945 253.317H104.6C104.491 253.018 104.316 252.785 104.076 252.618C103.835 252.45 103.533 252.366 103.169 252.366C102.659 252.366 102.251 252.548 101.945 252.913C101.646 253.27 101.497 253.773 101.497 254.421C101.497 255.069 101.646 255.576 101.945 255.94C102.251 256.304 102.659 256.487 103.169 256.487C103.89 256.487 104.367 256.17 104.6 255.536H105.945C105.77 256.148 105.442 256.636 104.961 257C104.48 257.357 103.883 257.536 103.169 257.536C102.593 257.536 102.083 257.408 101.639 257.153C101.194 256.891 100.844 256.527 100.589 256.06C100.342 255.587 100.218 255.04 100.218 254.421ZM108.432 249.35V257.438H107.186V249.35H108.432ZM115.587 254.279C115.587 254.505 115.573 254.709 115.544 254.891H110.943C110.979 255.372 111.157 255.758 111.478 256.049C111.799 256.341 112.192 256.487 112.658 256.487C113.329 256.487 113.802 256.206 114.079 255.645H115.424C115.241 256.199 114.91 256.654 114.429 257.011C113.955 257.361 113.365 257.536 112.658 257.536C112.083 257.536 111.565 257.408 111.106 257.153C110.655 256.891 110.298 256.527 110.035 256.06C109.78 255.587 109.653 255.04 109.653 254.421C109.653 253.802 109.777 253.259 110.024 252.793C110.279 252.319 110.633 251.955 111.085 251.7C111.544 251.445 112.068 251.317 112.658 251.317C113.227 251.317 113.733 251.441 114.178 251.689C114.622 251.936 114.968 252.286 115.216 252.738C115.464 253.182 115.587 253.696 115.587 254.279ZM114.287 253.885C114.28 253.426 114.116 253.058 113.795 252.782C113.474 252.505 113.077 252.366 112.604 252.366C112.174 252.366 111.806 252.505 111.5 252.782C111.194 253.051 111.012 253.419 110.953 253.885H114.287ZM81.6313 267.104C81.6313 267.49 81.5403 267.854 81.3581 268.197C81.1759 268.539 80.8845 268.82 80.4838 269.038C80.083 269.25 79.5693 269.355 78.9427 269.355H77.5656V272.438H76.3197V264.842H78.9427C79.5256 264.842 80.0174 264.944 80.4182 265.148C80.8262 265.344 81.1286 265.614 81.3253 265.956C81.5293 266.299 81.6313 266.681 81.6313 267.104ZM78.9427 268.339C79.4163 268.339 79.7697 268.233 80.0029 268.022C80.236 267.803 80.3526 267.497 80.3526 267.104C80.3526 266.273 79.8826 265.858 78.9427 265.858H77.5656V268.339H78.9427ZM82.4043 269.399C82.4043 268.794 82.5282 268.259 82.7759 267.793C83.0309 267.326 83.3734 266.966 83.8033 266.711C84.2404 266.448 84.7213 266.317 85.2459 266.317C85.7195 266.317 86.1312 266.412 86.481 266.601C86.838 266.783 87.1221 267.013 87.3334 267.29V266.415H88.5903V272.438H87.3334V271.541C87.1221 271.825 86.8343 272.062 86.47 272.252C86.1057 272.441 85.6904 272.536 85.2241 272.536C84.7068 272.536 84.2332 272.405 83.8033 272.142C83.3734 271.873 83.0309 271.501 82.7759 271.028C82.5282 270.547 82.4043 270.004 82.4043 269.399ZM87.3334 269.421C87.3334 269.006 87.246 268.645 87.0711 268.339C86.9036 268.033 86.6813 267.8 86.4044 267.64C86.1276 267.479 85.8288 267.399 85.5082 267.399C85.1877 267.399 84.8889 267.479 84.612 267.64C84.3352 267.793 84.1093 268.022 83.9344 268.328C83.7668 268.627 83.6831 268.984 83.6831 269.399C83.6831 269.814 83.7668 270.179 83.9344 270.492C84.1093 270.805 84.3352 271.046 84.612 271.213C84.8962 271.374 85.1949 271.454 85.5082 271.454C85.8288 271.454 86.1276 271.374 86.4044 271.213C86.6813 271.053 86.9036 270.82 87.0711 270.514C87.246 270.201 87.3334 269.836 87.3334 269.421ZM91.4727 267.29C91.6549 266.984 91.8953 266.747 92.1941 266.579C92.5001 266.405 92.8608 266.317 93.2761 266.317V267.607H92.9591C92.4709 267.607 92.0994 267.731 91.8443 267.978C91.5966 268.226 91.4727 268.656 91.4727 269.268V272.438H90.2268V266.415H91.4727V267.29ZM94.006 269.399C94.006 268.794 94.1299 268.259 94.3776 267.793C94.6326 267.326 94.9751 266.966 95.405 266.711C95.8422 266.448 96.323 266.317 96.8476 266.317C97.3213 266.317 97.7329 266.412 98.0827 266.601C98.4397 266.783 98.7238 267.013 98.9351 267.29V266.415H100.192V272.438H98.9351V271.541C98.7238 271.825 98.436 272.062 98.0717 272.252C97.7074 272.441 97.2921 272.536 96.8258 272.536C96.3085 272.536 95.8349 272.405 95.405 272.142C94.9751 271.873 94.6326 271.501 94.3776 271.028C94.1299 270.547 94.006 270.004 94.006 269.399ZM98.9351 269.421C98.9351 269.006 98.8477 268.645 98.6728 268.339C98.5053 268.033 98.283 267.8 98.0062 267.64C97.7293 267.479 97.4305 267.399 97.11 267.399C96.7894 267.399 96.4906 267.479 96.2137 267.64C95.9369 267.793 95.711 268.022 95.5361 268.328C95.3685 268.627 95.2848 268.984 95.2848 269.399C95.2848 269.814 95.3685 270.179 95.5361 270.492C95.711 270.805 95.9369 271.046 96.2137 271.213C96.4979 271.374 96.7966 271.454 97.11 271.454C97.4305 271.454 97.7293 271.374 98.0062 271.213C98.283 271.053 98.5053 270.82 98.6728 270.514C98.8477 270.201 98.9351 269.836 98.9351 269.421ZM109.118 266.317C109.592 266.317 110.015 266.415 110.386 266.612C110.765 266.809 111.06 267.1 111.271 267.487C111.49 267.873 111.599 268.339 111.599 268.885V272.438H110.364V269.071C110.364 268.532 110.229 268.12 109.96 267.836C109.69 267.545 109.322 267.399 108.856 267.399C108.39 267.399 108.018 267.545 107.741 267.836C107.472 268.12 107.337 268.532 107.337 269.071V272.438H106.102V269.071C106.102 268.532 105.967 268.12 105.697 267.836C105.428 267.545 105.06 267.399 104.594 267.399C104.127 267.399 103.756 267.545 103.479 267.836C103.209 268.12 103.074 268.532 103.074 269.071V272.438H101.829V266.415H103.074V267.104C103.278 266.856 103.537 266.663 103.85 266.525C104.164 266.386 104.499 266.317 104.856 266.317C105.337 266.317 105.767 266.419 106.146 266.623C106.524 266.827 106.816 267.122 107.02 267.508C107.202 267.144 107.486 266.856 107.872 266.645C108.259 266.426 108.674 266.317 109.118 266.317ZM118.704 269.279C118.704 269.505 118.689 269.709 118.66 269.891H114.059C114.096 270.372 114.274 270.758 114.595 271.049C114.915 271.341 115.309 271.487 115.775 271.487C116.445 271.487 116.919 271.206 117.196 270.645H118.54C118.358 271.199 118.026 271.654 117.546 272.011C117.072 272.361 116.482 272.536 115.775 272.536C115.199 272.536 114.682 272.408 114.223 272.153C113.771 271.891 113.414 271.527 113.152 271.06C112.897 270.587 112.769 270.04 112.769 269.421C112.769 268.802 112.893 268.259 113.141 267.793C113.396 267.319 113.749 266.955 114.201 266.7C114.66 266.445 115.185 266.317 115.775 266.317C116.343 266.317 116.85 266.441 117.294 266.689C117.739 266.936 118.085 267.286 118.332 267.738C118.58 268.182 118.704 268.696 118.704 269.279ZM117.403 268.885C117.396 268.426 117.232 268.058 116.912 267.782C116.591 267.505 116.194 267.366 115.72 267.366C115.29 267.366 114.922 267.505 114.616 267.782C114.31 268.051 114.128 268.419 114.07 268.885H117.403ZM121.384 267.432V270.765C121.384 270.991 121.435 271.155 121.537 271.257C121.646 271.352 121.828 271.399 122.083 271.399H122.848V272.438H121.865C121.304 272.438 120.874 272.306 120.575 272.044C120.276 271.782 120.127 271.355 120.127 270.765V267.432H119.416V266.415H120.127V264.918H121.384V266.415H122.848V267.432H121.384ZM129.516 269.279C129.516 269.505 129.501 269.709 129.472 269.891H124.871C124.907 270.372 125.086 270.758 125.406 271.049C125.727 271.341 126.121 271.487 126.587 271.487C127.257 271.487 127.731 271.206 128.008 270.645H129.352C129.17 271.199 128.838 271.654 128.357 272.011C127.884 272.361 127.294 272.536 126.587 272.536C126.011 272.536 125.494 272.408 125.035 272.153C124.583 271.891 124.226 271.527 123.964 271.06C123.709 270.587 123.581 270.04 123.581 269.421C123.581 268.802 123.705 268.259 123.953 267.793C124.208 267.319 124.561 266.955 125.013 266.7C125.472 266.445 125.997 266.317 126.587 266.317C127.155 266.317 127.662 266.441 128.106 266.689C128.55 266.936 128.897 267.286 129.144 267.738C129.392 268.182 129.516 268.696 129.516 269.279ZM128.215 268.885C128.208 268.426 128.044 268.058 127.724 267.782C127.403 267.505 127.006 267.366 126.532 267.366C126.102 267.366 125.734 267.505 125.428 267.782C125.122 268.051 124.94 268.419 124.882 268.885H128.215ZM131.988 267.29C132.17 266.984 132.411 266.747 132.709 266.579C133.015 266.405 133.376 266.317 133.791 266.317V267.607H133.474C132.986 267.607 132.615 267.731 132.36 267.978C132.112 268.226 131.988 268.656 131.988 269.268V272.438H130.742V266.415H131.988V267.29ZM137.122 272.536C136.649 272.536 136.223 272.452 135.844 272.284C135.472 272.11 135.177 271.876 134.958 271.585C134.74 271.286 134.623 270.955 134.609 270.59H135.898C135.92 270.845 136.04 271.06 136.259 271.235C136.485 271.403 136.765 271.487 137.101 271.487C137.45 271.487 137.72 271.421 137.909 271.29C138.106 271.151 138.204 270.977 138.204 270.765C138.204 270.539 138.095 270.372 137.877 270.263C137.665 270.153 137.326 270.033 136.86 269.902C136.408 269.778 136.04 269.658 135.756 269.541C135.472 269.425 135.224 269.246 135.013 269.006C134.809 268.765 134.707 268.448 134.707 268.055C134.707 267.734 134.802 267.443 134.991 267.181C135.181 266.911 135.45 266.7 135.8 266.547C136.157 266.394 136.565 266.317 137.024 266.317C137.709 266.317 138.259 266.492 138.674 266.842C139.097 267.184 139.323 267.654 139.352 268.252H138.106C138.084 267.982 137.975 267.767 137.778 267.607C137.581 267.446 137.316 267.366 136.98 267.366C136.652 267.366 136.401 267.428 136.226 267.552C136.051 267.676 135.964 267.84 135.964 268.044C135.964 268.204 136.022 268.339 136.139 268.448C136.255 268.558 136.397 268.645 136.565 268.711C136.733 268.769 136.98 268.845 137.308 268.94C137.745 269.057 138.102 269.177 138.379 269.301C138.663 269.417 138.908 269.592 139.112 269.825C139.316 270.059 139.421 270.368 139.429 270.754C139.429 271.097 139.334 271.403 139.144 271.672C138.955 271.942 138.685 272.153 138.336 272.306C137.993 272.459 137.589 272.536 137.122 272.536Z" fill="#0069BD"/>
<rect x="163.133" y="253.439" width="15.2229" height="15.2229" rx="7.61147" fill="#0069BD"/>
<rect x="163.133" y="253.439" width="15.2229" height="15.2229" rx="7.61147" stroke="#0069BD" stroke-width="0.390332"/>
<path d="M169.835 262.683L168.335 261.183L167.691 261.827L169.835 263.971L174.255 259.55L173.611 258.906L169.835 262.683Z" fill="white" fill-opacity="0.866667"/>
<path d="M192.487 252.104C192.487 252.49 192.396 252.854 192.214 253.197C192.031 253.539 191.74 253.82 191.339 254.038C190.938 254.25 190.425 254.355 189.798 254.355H188.421V257.438H187.175V249.842H189.798C190.381 249.842 190.873 249.944 191.274 250.148C191.682 250.344 191.984 250.614 192.181 250.956C192.385 251.299 192.487 251.681 192.487 252.104ZM189.798 253.339C190.272 253.339 190.625 253.233 190.858 253.022C191.091 252.803 191.208 252.497 191.208 252.104C191.208 251.273 190.738 250.858 189.798 250.858H188.421V253.339H189.798ZM199.194 254.279C199.194 254.505 199.18 254.709 199.151 254.891H194.549C194.586 255.372 194.764 255.758 195.085 256.049C195.406 256.341 195.799 256.487 196.265 256.487C196.936 256.487 197.409 256.206 197.686 255.645H199.03C198.848 256.199 198.517 256.654 198.036 257.011C197.562 257.361 196.972 257.536 196.265 257.536C195.69 257.536 195.172 257.408 194.713 257.153C194.262 256.891 193.905 256.527 193.642 256.06C193.387 255.587 193.26 255.04 193.26 254.421C193.26 253.802 193.384 253.259 193.631 252.793C193.886 252.319 194.24 251.955 194.692 251.7C195.151 251.445 195.675 251.317 196.265 251.317C196.834 251.317 197.34 251.441 197.785 251.689C198.229 251.936 198.575 252.286 198.823 252.738C199.071 253.182 199.194 253.696 199.194 254.279ZM197.894 253.885C197.887 253.426 197.723 253.058 197.402 252.782C197.081 252.505 196.684 252.366 196.211 252.366C195.781 252.366 195.413 252.505 195.107 252.782C194.801 253.051 194.619 253.419 194.56 253.885H197.894ZM201.666 252.29C201.849 251.984 202.089 251.747 202.388 251.579C202.694 251.405 203.054 251.317 203.47 251.317V252.607H203.153C202.665 252.607 202.293 252.731 202.038 252.978C201.79 253.226 201.666 253.656 201.666 254.268V257.438H200.421V251.415H201.666V252.29ZM207.14 252.432H206.025V257.438H204.768V252.432H204.058V251.415H204.768V250.989C204.768 250.297 204.95 249.794 205.315 249.481C205.686 249.16 206.265 249 207.052 249V250.038C206.673 250.038 206.407 250.111 206.254 250.257C206.101 250.395 206.025 250.639 206.025 250.989V251.415H207.14V252.432ZM210.856 257.536C210.288 257.536 209.774 257.408 209.315 257.153C208.856 256.891 208.495 256.527 208.233 256.06C207.971 255.587 207.84 255.04 207.84 254.421C207.84 253.809 207.974 253.266 208.244 252.793C208.514 252.319 208.881 251.955 209.348 251.7C209.814 251.445 210.335 251.317 210.911 251.317C211.486 251.317 212.007 251.445 212.474 251.7C212.94 251.955 213.308 252.319 213.577 252.793C213.847 253.266 213.982 253.809 213.982 254.421C213.982 255.033 213.843 255.576 213.567 256.049C213.29 256.523 212.911 256.891 212.43 257.153C211.956 257.408 211.432 257.536 210.856 257.536ZM210.856 256.454C211.177 256.454 211.475 256.377 211.752 256.224C212.036 256.071 212.266 255.842 212.441 255.536C212.616 255.23 212.703 254.858 212.703 254.421C212.703 253.984 212.619 253.616 212.452 253.317C212.284 253.011 212.062 252.782 211.785 252.629C211.508 252.476 211.209 252.399 210.889 252.399C210.568 252.399 210.27 252.476 209.993 252.629C209.723 252.782 209.508 253.011 209.348 253.317C209.188 253.616 209.107 253.984 209.107 254.421C209.107 255.069 209.271 255.572 209.599 255.929C209.934 256.279 210.353 256.454 210.856 256.454ZM216.459 252.29C216.642 251.984 216.882 251.747 217.181 251.579C217.487 251.405 217.847 251.317 218.263 251.317V252.607H217.946C217.458 252.607 217.086 252.731 216.831 252.978C216.583 253.226 216.459 253.656 216.459 254.268V257.438H215.214V251.415H216.459V252.29ZM226.698 251.317C227.171 251.317 227.594 251.415 227.966 251.612C228.345 251.809 228.64 252.1 228.851 252.487C229.07 252.873 229.179 253.339 229.179 253.885V257.438H227.944V254.071C227.944 253.532 227.809 253.12 227.539 252.836C227.27 252.545 226.902 252.399 226.436 252.399C225.969 252.399 225.598 252.545 225.321 252.836C225.051 253.12 224.916 253.532 224.916 254.071V257.438H223.681V254.071C223.681 253.532 223.547 253.12 223.277 252.836C223.007 252.545 222.639 252.399 222.173 252.399C221.707 252.399 221.335 252.545 221.058 252.836C220.789 253.12 220.654 253.532 220.654 254.071V257.438H219.408V251.415H220.654V252.104C220.858 251.856 221.117 251.663 221.43 251.525C221.743 251.386 222.078 251.317 222.435 251.317C222.916 251.317 223.346 251.419 223.725 251.623C224.104 251.827 224.395 252.122 224.599 252.508C224.782 252.144 225.066 251.856 225.452 251.645C225.838 251.426 226.253 251.317 226.698 251.317ZM230.349 254.399C230.349 253.794 230.473 253.259 230.721 252.793C230.976 252.326 231.318 251.966 231.748 251.711C232.185 251.448 232.666 251.317 233.191 251.317C233.664 251.317 234.076 251.412 234.426 251.601C234.783 251.783 235.067 252.013 235.278 252.29V251.415H236.535V257.438H235.278V256.541C235.067 256.825 234.779 257.062 234.415 257.252C234.05 257.441 233.635 257.536 233.169 257.536C232.651 257.536 232.178 257.405 231.748 257.142C231.318 256.873 230.976 256.501 230.721 256.028C230.473 255.547 230.349 255.004 230.349 254.399ZM235.278 254.421C235.278 254.006 235.191 253.645 235.016 253.339C234.848 253.033 234.626 252.8 234.349 252.64C234.072 252.479 233.773 252.399 233.453 252.399C233.132 252.399 232.834 252.479 232.557 252.64C232.28 252.793 232.054 253.022 231.879 253.328C231.711 253.627 231.628 253.984 231.628 254.399C231.628 254.814 231.711 255.179 231.879 255.492C232.054 255.805 232.28 256.046 232.557 256.213C232.841 256.374 233.14 256.454 233.453 256.454C233.773 256.454 234.072 256.374 234.349 256.213C234.626 256.053 234.848 255.82 235.016 255.514C235.191 255.201 235.278 254.836 235.278 254.421ZM241.21 251.317C241.683 251.317 242.106 251.415 242.478 251.612C242.856 251.809 243.152 252.1 243.363 252.487C243.574 252.873 243.68 253.339 243.68 253.885V257.438H242.445V254.071C242.445 253.532 242.31 253.12 242.04 252.836C241.771 252.545 241.403 252.399 240.937 252.399C240.47 252.399 240.099 252.545 239.822 252.836C239.552 253.12 239.417 253.532 239.417 254.071V257.438H238.171V251.415H239.417V252.104C239.621 251.856 239.88 251.663 240.193 251.525C240.514 251.386 240.853 251.317 241.21 251.317ZM244.854 254.421C244.854 253.802 244.978 253.259 245.225 252.793C245.48 252.319 245.83 251.955 246.275 251.7C246.719 251.445 247.229 251.317 247.805 251.317C248.533 251.317 249.134 251.492 249.608 251.842C250.089 252.184 250.413 252.676 250.581 253.317H249.236C249.127 253.018 248.952 252.785 248.712 252.618C248.471 252.45 248.169 252.366 247.805 252.366C247.295 252.366 246.887 252.548 246.581 252.913C246.282 253.27 246.132 253.773 246.132 254.421C246.132 255.069 246.282 255.576 246.581 255.94C246.887 256.304 247.295 256.487 247.805 256.487C248.526 256.487 249.003 256.17 249.236 255.536H250.581C250.406 256.148 250.078 256.636 249.597 257C249.116 257.357 248.519 257.536 247.805 257.536C247.229 257.536 246.719 257.408 246.275 257.153C245.83 256.891 245.48 256.527 245.225 256.06C244.978 255.587 244.854 255.04 244.854 254.421ZM257.342 254.279C257.342 254.505 257.327 254.709 257.298 254.891H252.697C252.733 255.372 252.912 255.758 253.232 256.049C253.553 256.341 253.946 256.487 254.413 256.487C255.083 256.487 255.557 256.206 255.833 255.645H257.178C256.996 256.199 256.664 256.654 256.183 257.011C255.71 257.361 255.119 257.536 254.413 257.536C253.837 257.536 253.32 257.408 252.861 257.153C252.409 256.891 252.052 256.527 251.79 256.06C251.535 255.587 251.407 255.04 251.407 254.421C251.407 253.802 251.531 253.259 251.779 252.793C252.034 252.319 252.387 251.955 252.839 251.7C253.298 251.445 253.822 251.317 254.413 251.317C254.981 251.317 255.487 251.441 255.932 251.689C256.376 251.936 256.722 252.286 256.97 252.738C257.218 253.182 257.342 253.696 257.342 254.279ZM256.041 253.885C256.034 253.426 255.87 253.058 255.549 252.782C255.229 252.505 254.832 252.366 254.358 252.366C253.928 252.366 253.56 252.505 253.254 252.782C252.948 253.051 252.766 253.419 252.708 253.885H256.041ZM189.678 272.514C189.168 272.514 188.709 272.427 188.301 272.252C187.893 272.07 187.572 271.815 187.339 271.487C187.106 271.159 186.989 270.776 186.989 270.339H188.323C188.352 270.667 188.479 270.937 188.705 271.148C188.938 271.359 189.263 271.465 189.678 271.465C190.108 271.465 190.443 271.363 190.683 271.159C190.924 270.947 191.044 270.678 191.044 270.35C191.044 270.095 190.968 269.887 190.815 269.727C190.669 269.567 190.483 269.443 190.257 269.355C190.039 269.268 189.733 269.173 189.339 269.071C188.844 268.94 188.439 268.809 188.126 268.678C187.82 268.539 187.558 268.328 187.339 268.044C187.121 267.76 187.011 267.381 187.011 266.907C187.011 266.47 187.121 266.088 187.339 265.76C187.558 265.432 187.864 265.18 188.257 265.006C188.651 264.831 189.106 264.743 189.623 264.743C190.359 264.743 190.96 264.929 191.427 265.301C191.9 265.665 192.163 266.168 192.214 266.809H190.836C190.815 266.532 190.683 266.295 190.443 266.099C190.203 265.902 189.886 265.803 189.492 265.803C189.135 265.803 188.844 265.894 188.618 266.077C188.392 266.259 188.279 266.521 188.279 266.864C188.279 267.097 188.348 267.29 188.487 267.443C188.632 267.589 188.815 267.705 189.033 267.793C189.252 267.88 189.55 267.975 189.929 268.077C190.432 268.215 190.84 268.354 191.153 268.492C191.474 268.63 191.744 268.845 191.962 269.137C192.188 269.421 192.301 269.804 192.301 270.284C192.301 270.671 192.195 271.035 191.984 271.377C191.78 271.72 191.478 271.997 191.077 272.208C190.683 272.412 190.217 272.514 189.678 272.514ZM195.017 267.301C195.228 267.024 195.516 266.791 195.881 266.601C196.245 266.412 196.657 266.317 197.116 266.317C197.64 266.317 198.117 266.448 198.547 266.711C198.984 266.966 199.327 267.326 199.575 267.793C199.822 268.259 199.946 268.794 199.946 269.399C199.946 270.004 199.822 270.547 199.575 271.028C199.327 271.501 198.984 271.873 198.547 272.142C198.117 272.405 197.64 272.536 197.116 272.536C196.657 272.536 196.248 272.445 195.891 272.263C195.534 272.073 195.243 271.84 195.017 271.563V275.301H193.771V266.415H195.017V267.301ZM198.678 269.399C198.678 268.984 198.591 268.627 198.416 268.328C198.249 268.022 198.023 267.793 197.739 267.64C197.462 267.479 197.163 267.399 196.842 267.399C196.529 267.399 196.23 267.479 195.946 267.64C195.669 267.8 195.443 268.033 195.268 268.339C195.101 268.645 195.017 269.006 195.017 269.421C195.017 269.836 195.101 270.201 195.268 270.514C195.443 270.82 195.669 271.053 195.946 271.213C196.23 271.374 196.529 271.454 196.842 271.454C197.163 271.454 197.462 271.374 197.739 271.213C198.023 271.046 198.249 270.805 198.416 270.492C198.591 270.179 198.678 269.814 198.678 269.399ZM206.698 269.279C206.698 269.505 206.683 269.709 206.654 269.891H202.053C202.089 270.372 202.268 270.758 202.588 271.049C202.909 271.341 203.302 271.487 203.769 271.487C204.439 271.487 204.913 271.206 205.189 270.645H206.534C206.352 271.199 206.02 271.654 205.539 272.011C205.066 272.361 204.475 272.536 203.769 272.536C203.193 272.536 202.676 272.408 202.217 272.153C201.765 271.891 201.408 271.527 201.146 271.06C200.891 270.587 200.763 270.04 200.763 269.421C200.763 268.802 200.887 268.259 201.135 267.793C201.39 267.319 201.743 266.955 202.195 266.7C202.654 266.445 203.178 266.317 203.769 266.317C204.337 266.317 204.843 266.441 205.288 266.689C205.732 266.936 206.078 267.286 206.326 267.738C206.574 268.182 206.698 268.696 206.698 269.279ZM205.397 268.885C205.39 268.426 205.226 268.058 204.905 267.782C204.585 267.505 204.188 267.366 203.714 267.366C203.284 267.366 202.916 267.505 202.61 267.782C202.304 268.051 202.122 268.419 202.064 268.885H205.397ZM207.508 269.421C207.508 268.802 207.632 268.259 207.88 267.793C208.135 267.319 208.485 266.955 208.929 266.7C209.374 266.445 209.884 266.317 210.459 266.317C211.188 266.317 211.789 266.492 212.263 266.842C212.744 267.184 213.068 267.676 213.235 268.317H211.891C211.782 268.018 211.607 267.785 211.366 267.618C211.126 267.45 210.824 267.366 210.459 267.366C209.949 267.366 209.541 267.548 209.235 267.913C208.937 268.27 208.787 268.773 208.787 269.421C208.787 270.069 208.937 270.576 209.235 270.94C209.541 271.304 209.949 271.487 210.459 271.487C211.181 271.487 211.658 271.17 211.891 270.536H213.235C213.061 271.148 212.733 271.636 212.252 272C211.771 272.357 211.173 272.536 210.459 272.536C209.884 272.536 209.374 272.408 208.929 272.153C208.485 271.891 208.135 271.527 207.88 271.06C207.632 270.587 207.508 270.04 207.508 269.421ZM216.663 272.536C216.189 272.536 215.763 272.452 215.384 272.284C215.013 272.11 214.718 271.876 214.499 271.585C214.28 271.286 214.164 270.955 214.149 270.59H215.439C215.461 270.845 215.581 271.06 215.8 271.235C216.025 271.403 216.306 271.487 216.641 271.487C216.991 271.487 217.26 271.421 217.45 271.29C217.647 271.151 217.745 270.977 217.745 270.765C217.745 270.539 217.636 270.372 217.417 270.263C217.206 270.153 216.867 270.033 216.401 269.902C215.949 269.778 215.581 269.658 215.297 269.541C215.013 269.425 214.765 269.246 214.554 269.006C214.35 268.765 214.248 268.448 214.248 268.055C214.248 267.734 214.342 267.443 214.532 267.181C214.721 266.911 214.991 266.7 215.34 266.547C215.697 266.394 216.106 266.317 216.565 266.317C217.249 266.317 217.8 266.492 218.215 266.842C218.637 267.184 218.863 267.654 218.892 268.252H217.647C217.625 267.982 217.515 267.767 217.319 267.607C217.122 267.446 216.856 267.366 216.521 267.366C216.193 267.366 215.942 267.428 215.767 267.552C215.592 267.676 215.504 267.84 215.504 268.044C215.504 268.204 215.563 268.339 215.679 268.448C215.796 268.558 215.938 268.645 216.106 268.711C216.273 268.769 216.521 268.845 216.849 268.94C217.286 269.057 217.643 269.177 217.92 269.301C218.204 269.417 218.448 269.592 218.652 269.825C218.856 270.059 218.962 270.368 218.969 270.754C218.969 271.097 218.874 271.403 218.685 271.672C218.495 271.942 218.226 272.153 217.876 272.306C217.534 272.459 217.129 272.536 216.663 272.536Z" fill="#0069BD"/>
<line x1="152.008" y1="261.442" x2="158.253" y2="261.442" stroke="#B4B4B4" stroke-width="0.780664"/>
<rect x="274.183" y="253.634" width="14.8326" height="14.8326" rx="7.41631" fill="#0069BD" fill-opacity="0.1"/>
<rect x="274.183" y="253.634" width="14.8326" height="14.8326" rx="7.41631" stroke="#0069BD" stroke-width="0.780664"/>
<rect x="278.477" y="257.928" width="6.24531" height="6.24531" rx="3.12266" fill="#0069BD"/>
<path d="M300.512 249.842C301.32 249.842 302.027 249.998 302.632 250.312C303.244 250.618 303.714 251.062 304.042 251.645C304.377 252.221 304.544 252.895 304.544 253.667C304.544 254.439 304.377 255.11 304.042 255.678C303.714 256.246 303.244 256.683 302.632 256.989C302.027 257.288 301.32 257.438 300.512 257.438H298.031V249.842H300.512ZM300.512 256.421C301.401 256.421 302.082 256.181 302.555 255.7C303.029 255.219 303.266 254.541 303.266 253.667C303.266 252.785 303.029 252.097 302.555 251.601C302.082 251.106 301.401 250.858 300.512 250.858H299.277V256.421H300.512ZM307.025 252.29C307.207 251.984 307.448 251.747 307.747 251.579C308.053 251.405 308.413 251.317 308.829 251.317V252.607H308.512C308.023 252.607 307.652 252.731 307.397 252.978C307.149 253.226 307.025 253.656 307.025 254.268V257.438H305.779V251.415H307.025V252.29ZM310.608 250.618C310.382 250.618 310.192 250.541 310.039 250.388C309.886 250.235 309.81 250.046 309.81 249.82C309.81 249.594 309.886 249.404 310.039 249.251C310.192 249.098 310.382 249.022 310.608 249.022C310.826 249.022 311.012 249.098 311.165 249.251C311.318 249.404 311.395 249.594 311.395 249.82C311.395 250.046 311.318 250.235 311.165 250.388C311.012 250.541 310.826 250.618 310.608 250.618ZM311.22 251.415V257.438H309.974V251.415H311.22ZM315.184 256.323L316.889 251.415H318.211L315.916 257.438H314.429L312.145 251.415H313.479L315.184 256.323ZM324.672 254.279C324.672 254.505 324.658 254.709 324.628 254.891H320.027C320.064 255.372 320.242 255.758 320.563 256.049C320.883 256.341 321.277 256.487 321.743 256.487C322.413 256.487 322.887 256.206 323.164 255.645H324.508C324.326 256.199 323.994 256.654 323.514 257.011C323.04 257.361 322.45 257.536 321.743 257.536C321.167 257.536 320.65 257.408 320.191 257.153C319.739 256.891 319.382 256.527 319.12 256.06C318.865 255.587 318.737 255.04 318.737 254.421C318.737 253.802 318.861 253.259 319.109 252.793C319.364 252.319 319.717 251.955 320.169 251.7C320.628 251.445 321.153 251.317 321.743 251.317C322.311 251.317 322.818 251.441 323.262 251.689C323.707 251.936 324.053 252.286 324.3 252.738C324.548 253.182 324.672 253.696 324.672 254.279ZM323.371 253.885C323.364 253.426 323.2 253.058 322.88 252.782C322.559 252.505 322.162 252.366 321.688 252.366C321.258 252.366 320.891 252.505 320.585 252.782C320.278 253.051 320.096 253.419 320.038 253.885H323.371ZM328.937 251.317C329.41 251.317 329.833 251.415 330.204 251.612C330.583 251.809 330.878 252.1 331.09 252.487C331.301 252.873 331.407 253.339 331.407 253.885V257.438H330.172V254.071C330.172 253.532 330.037 253.12 329.767 252.836C329.498 252.545 329.13 252.399 328.663 252.399C328.197 252.399 327.825 252.545 327.549 252.836C327.279 253.12 327.144 253.532 327.144 254.071V257.438H325.898V251.415H327.144V252.104C327.348 251.856 327.607 251.663 327.92 251.525C328.241 251.386 328.58 251.317 328.937 251.317ZM297.615 268.623C297.615 267.88 297.787 267.213 298.129 266.623C298.479 266.033 298.949 265.574 299.539 265.246C300.136 264.911 300.788 264.743 301.495 264.743C302.304 264.743 303.022 264.944 303.648 265.344C304.282 265.738 304.741 266.299 305.025 267.027H303.528C303.331 266.627 303.058 266.328 302.708 266.131C302.359 265.935 301.954 265.836 301.495 265.836C300.992 265.836 300.544 265.949 300.151 266.175C299.757 266.401 299.448 266.725 299.222 267.148C299.003 267.57 298.894 268.062 298.894 268.623C298.894 269.184 299.003 269.676 299.222 270.099C299.448 270.521 299.757 270.849 300.151 271.082C300.544 271.308 300.992 271.421 301.495 271.421C301.954 271.421 302.359 271.323 302.708 271.126C303.058 270.929 303.331 270.631 303.528 270.23H305.025C304.741 270.958 304.282 271.519 303.648 271.913C303.022 272.306 302.304 272.503 301.495 272.503C300.781 272.503 300.129 272.339 299.539 272.011C298.949 271.676 298.479 271.213 298.129 270.623C297.787 270.033 297.615 269.366 297.615 268.623ZM311.905 266.415L308.211 275.268H306.921L308.145 272.339L305.773 266.415H307.161L308.855 271.006L310.615 266.415H311.905ZM312.43 269.421C312.43 268.802 312.554 268.259 312.801 267.793C313.056 267.319 313.406 266.955 313.85 266.7C314.295 266.445 314.805 266.317 315.381 266.317C316.109 266.317 316.71 266.492 317.184 266.842C317.665 267.184 317.989 267.676 318.157 268.317H316.812C316.703 268.018 316.528 267.785 316.288 267.618C316.047 267.45 315.745 267.366 315.381 267.366C314.871 267.366 314.462 267.548 314.156 267.913C313.858 268.27 313.708 268.773 313.708 269.421C313.708 270.069 313.858 270.576 314.156 270.94C314.462 271.304 314.871 271.487 315.381 271.487C316.102 271.487 316.579 271.17 316.812 270.536H318.157C317.982 271.148 317.654 271.636 317.173 272C316.692 272.357 316.095 272.536 315.381 272.536C314.805 272.536 314.295 272.408 313.85 272.153C313.406 271.891 313.056 271.527 312.801 271.06C312.554 270.587 312.43 270.04 312.43 269.421ZM320.644 264.35V272.438H319.398V264.35H320.644ZM327.799 269.279C327.799 269.505 327.785 269.709 327.756 269.891H323.154C323.191 270.372 323.369 270.758 323.69 271.049C324.01 271.341 324.404 271.487 324.87 271.487C325.541 271.487 326.014 271.206 326.291 270.645H327.635C327.453 271.199 327.122 271.654 326.641 272.011C326.167 272.361 325.577 272.536 324.87 272.536C324.295 272.536 323.777 272.408 323.318 272.153C322.867 271.891 322.51 271.527 322.247 271.06C321.992 270.587 321.865 270.04 321.865 269.421C321.865 268.802 321.989 268.259 322.236 267.793C322.491 267.319 322.845 266.955 323.296 266.7C323.755 266.445 324.28 266.317 324.87 266.317C325.439 266.317 325.945 266.441 326.389 266.689C326.834 266.936 327.18 267.286 327.428 267.738C327.675 268.182 327.799 268.696 327.799 269.279ZM326.499 268.885C326.491 268.426 326.327 268.058 326.007 267.782C325.686 267.505 325.289 267.366 324.816 267.366C324.386 267.366 324.018 267.505 323.712 267.782C323.406 268.051 323.224 268.419 323.165 268.885H326.499Z" fill="#0069BD"/>
<line x1="262.863" y1="261.442" x2="269.109" y2="261.442" stroke="#B4B4B4" stroke-width="0.780664"/>
<defs>
<filter id="filter0_d_3066_1337" x="117.974" y="50.1953" width="149.67" height="145.709" filterUnits="userSpaceOnUse" color-interpolation-filters="sRGB">
<feFlood flood-opacity="0" result="BackgroundImageFix"/>
<feColorMatrix in="SourceAlpha" type="matrix" values="0 0 0 0 0 0 0 0 0 0 0 0 0 0 0 0 0 0 127 0" result="hardAlpha"/>
<feOffset dx="-4.5" dy="4.5"/>
<feGaussianBlur stdDeviation="1.8"/>
<feComposite in2="hardAlpha" operator="out"/>
<feColorMatrix type="matrix" values="0 0 0 0 0.466667 0 0 0 0 0.466667 0 0 0 0 0.466667 0 0 0 0.25 0"/>
<feBlend mode="normal" in2="BackgroundImageFix" result="effect1_dropShadow_3066_1337"/>
<feBlend mode="normal" in="SourceGraphic" in2="effect1_dropShadow_3066_1337" result="shape"/>
</filter>
<filter id="filter1_d_3066_1337" x="28.0914" y="220.684" width="326.393" height="88.8344" filterUnits="userSpaceOnUse" color-interpolation-filters="sRGB">
<feFlood flood-opacity="0" result="BackgroundImageFix"/>
<feColorMatrix in="SourceAlpha" type="matrix" values="0 0 0 0 0 0 0 0 0 0 0 0 0 0 0 0 0 0 127 0" result="hardAlpha"/>
<feOffset dx="-4.5" dy="4.5"/>
<feGaussianBlur stdDeviation="1.8"/>
<feComposite in2="hardAlpha" operator="out"/>
<feColorMatrix type="matrix" values="0 0 0 0 0.466667 0 0 0 0 0.466667 0 0 0 0 0.466667 0 0 0 0.25 0"/>
<feBlend mode="normal" in2="BackgroundImageFix" result="effect1_dropShadow_3066_1337"/>
<feBlend mode="normal" in="SourceGraphic" in2="effect1_dropShadow_3066_1337" result="shape"/>
</filter>
<clipPath id="clip0_3066_1337">
<rect width="83.16" height="83.16" fill="white" transform="translate(155.773 61.0859)"/>
</clipPath>
</defs>
</svg>
