<svg width="226" height="161" viewBox="0 0 226 161" fill="none" xmlns="http://www.w3.org/2000/svg">
<path d="M84.4764 104.551L114.083 93.3537L99.6593 65.1779L75.1582 45.1365L57.9688 71.7154L52.863 102.955L84.4764 104.551Z" stroke="url(#paint0_radial_2939_10691)" stroke-width="0.726428"/>
<path d="M82.3631 104.787L112.833 96.2123L100.92 66.8867L78.2587 44.7861L58.8183 69.7657L51.0092 100.442L82.3631 104.787Z" stroke="url(#paint1_radial_2939_10691)" stroke-width="0.726428"/>
<path d="M80.2364 104.842L111.337 98.9552L102.026 68.7029L81.377 44.7113L59.8334 67.9015L49.3805 97.7801L80.2364 104.842Z" stroke="url(#paint2_radial_2939_10691)" stroke-width="0.726428"/>
<path d="M78.1164 104.709L109.612 101.556L102.973 70.6068L84.4935 44.9069L61.0107 66.1312L47.9934 94.985L78.1164 104.709Z" stroke="url(#paint3_radial_2939_10691)" stroke-width="0.726427"/>
<path d="M76.0108 104.394L107.661 103.997L103.745 72.5878L87.5757 45.3752L62.3324 64.472L46.8499 92.0815L76.0108 104.394Z" stroke="url(#paint4_radial_2939_10691)" stroke-width="0.726428"/>
<path d="M73.9451 103.894L105.51 106.257L104.345 74.6262L90.6098 46.1077L63.7982 62.9318L45.9683 89.0868L73.9451 103.894Z" stroke="url(#paint5_radial_2939_10691)" stroke-width="0.726427"/>
<path d="M71.932 103.214L103.171 108.32L104.768 76.7071L93.5697 47.1001L65.3938 61.5235L45.3522 86.025L71.932 103.214Z" stroke="url(#paint6_radial_2939_10691)" stroke-width="0.726428"/>
<path d="M69.9822 102.366L100.657 110.175L105.003 78.822L96.4283 48.3518L67.1025 60.2645L45.0017 82.9261L69.9822 102.366Z" stroke="url(#paint7_radial_2939_10691)" stroke-width="0.726428"/>
<path d="M68.124 101.345L98.0014 111.798L105.064 80.9427L99.1771 49.841L68.9247 59.1525L44.9329 79.8016L68.124 101.345Z" stroke="url(#paint8_radial_2939_10691)" stroke-width="0.726428"/>
<path d="M66.3521 100.17L95.2048 113.186L104.929 83.0643L101.776 51.568L70.827 58.2074L45.1269 76.6869L66.3521 100.17Z" stroke="url(#paint9_radial_2939_10691)" stroke-width="0.726428"/>
<path d="M64.6861 98.8467L92.2945 114.329L104.607 85.1688L104.211 53.5174L72.8012 57.4342L45.5882 73.6035L64.6861 98.8467Z" stroke="url(#paint10_radial_2939_10691)" stroke-width="0.726428"/>
<path d="M63.1503 97.38L89.3043 115.209L104.112 87.2334L106.476 55.668L74.8439 56.8323L46.3253 70.5683L63.1503 97.38Z" stroke="url(#paint11_radial_2939_10691)" stroke-width="0.726428"/>
<path d="M61.7427 95.7862L86.2433 115.827L103.433 89.2483L108.539 58.0089L76.9258 56.412L47.3185 67.6101L61.7427 95.7862Z" stroke="url(#paint12_radial_2939_10691)" stroke-width="0.726428"/>
<path d="M60.4772 94.0789L83.1379 116.179L102.578 91.1994L110.387 60.5239L79.0342 56.1778L48.5636 64.7529L60.4772 94.0789Z" stroke="url(#paint13_radial_2939_10691)" stroke-width="0.726428"/>
<path d="M59.3756 92.2616L80.0239 116.252L101.567 93.0624L112.02 63.1843L81.1653 56.1221L50.0632 62.0089L59.3756 92.2616Z" stroke="url(#paint14_radial_2939_10691)" stroke-width="0.726428"/>
<path d="M58.4282 90.358L76.907 116.057L100.39 94.833L113.407 65.9797L83.2848 56.2551L51.788 59.4088L58.4282 90.358Z" stroke="url(#paint15_radial_2939_10691)" stroke-width="0.726427"/>
<path d="M57.6445 88.3827L73.8131 115.595L99.0563 96.4979L114.539 68.8888L85.3787 56.576L53.7269 56.9725L57.6445 88.3827Z" stroke="url(#paint16_radial_2939_10691)" stroke-width="0.726428"/>
<path d="M66.3624 98.3485C75.6925 106.422 89.7042 103.481 97.0135 94.1858L97.0191 94.179L97.0254 94.1729C105.16 86.4046 103.932 72.0725 95.5073 65.0693L95.4495 65.0213L95.4633 64.9465C95.5971 64.2369 95.373 63.4421 94.5743 62.8217C88.9124 58.4984 83.0322 57.259 77.7086 58.1136C72.3825 58.9685 67.604 61.9214 64.1533 65.9977C57.2517 74.1506 55.6775 86.7704 65.6277 96.0485L65.683 96.0995L65.6649 96.1733C65.4726 96.9457 65.7126 97.7992 66.3609 98.3473L66.3624 98.3485ZM66.8851 94.6403C58.8022 86.3738 60.1941 75.4288 66.0466 68.4889C68.9732 65.0186 73.0198 62.5429 77.5623 61.902C82.107 61.2607 87.1372 62.4582 92.0256 66.3119C92.8059 66.8505 93.5833 66.8551 94.2028 66.5679L94.2812 66.5315L94.3443 66.5901C97.803 69.83 99.7412 74.5588 99.8991 79.2823C100.057 84.004 98.4355 88.7327 94.758 91.9689C91.7554 95.688 87.2096 98.2152 82.4989 98.944C77.9295 99.6508 73.1961 98.6662 69.5658 95.4257L69.2177 95.1051C68.6037 94.5436 67.7528 94.4041 67.0204 94.67L66.9433 94.6987L66.8851 94.6403Z" fill="white" stroke="url(#paint17_radial_2939_10691)" stroke-width="0.255763"/>
<path d="M56.1106 111.192C58.6291 113.293 62.1963 114.088 64.964 112.124L65.0296 112.077L65.1019 112.115C68.672 113.982 72.8611 114.871 76.8743 115.405L76.9515 115.415L76.9797 115.487C78.2332 118.659 81.3224 120.053 84.2811 119.791C87.2391 119.53 90.0417 117.617 90.7227 114.193L90.732 114.144L90.7728 114.113C93.7276 111.891 96.3136 110.27 98.5041 109.265C100.691 108.261 102.501 107.861 103.896 108.103C104.581 108.222 105.288 108.179 105.74 107.729C107.204 106.272 108.904 104.085 109.545 103.143C109.892 102.633 110.002 102.242 109.941 101.924C109.881 101.607 109.643 101.323 109.199 101.045C108.81 100.801 108.356 100.945 107.963 101.193C107.771 101.314 107.605 101.452 107.487 101.562C107.428 101.616 107.381 101.664 107.349 101.696C107.334 101.713 107.321 101.725 107.313 101.734C107.309 101.738 107.306 101.742 107.305 101.744C107.304 101.745 107.302 101.746 107.302 101.746C106.764 102.4 106.34 102.97 105.968 103.453C105.596 103.936 105.274 104.336 104.948 104.639C104.62 104.944 104.283 105.157 103.878 105.257C103.475 105.358 103.016 105.344 102.452 105.221C102.2 105.166 101.859 105.176 101.439 105.248C101.021 105.319 100.535 105.451 99.9966 105.633C98.9197 105.996 97.6453 106.555 96.3152 107.22C93.9876 108.383 91.4982 109.861 89.6101 111.156L88.8402 111.698L88.8355 111.701L88.719 111.783C88.1561 112.206 87.8694 112.837 87.6187 113.523C87.3563 114.242 87.1311 115.037 86.6389 115.621L86.6301 115.63L86.6205 115.639L86.4175 115.79C85.3741 116.513 83.922 116.739 82.6471 116.457C81.2852 116.155 80.0958 115.264 79.8334 113.74C79.6712 112.945 79.0021 112.382 78.2321 112.316L78.2328 112.317C73.8495 111.953 69.5727 110.66 65.7221 108.53L65.7214 108.53L65.7169 108.527C65.3972 108.33 65.1013 108.276 64.8206 108.307C64.5363 108.338 64.258 108.458 63.9767 108.622C63.6935 108.787 63.4205 108.989 63.1372 109.184C62.8597 109.375 62.5736 109.556 62.2795 109.664L62.2803 109.665C61.4046 110.015 60.5526 109.895 59.773 109.543C58.9983 109.194 58.2873 108.614 57.6786 108.029C56.1279 106.877 56.0306 104.782 56.9991 103.205L56.9997 103.204C57.3822 102.596 57.3058 101.826 56.8662 101.305C54.0078 97.9367 51.8903 93.9508 50.6802 89.7006C50.4922 89.0437 49.9024 88.6081 49.2543 88.5821C46.4086 88.5689 44.819 85.7553 45.6409 83.1876C46.1968 81.411 47.4747 79.8418 48.5658 78.3052C49.8613 76.3146 50.5561 74.0494 51.1022 71.7223C51.6448 69.4104 52.043 67.0228 52.7435 64.8204C52.7879 63.0141 52.0045 62.2935 51.6658 61.374C51.495 60.9102 51.4586 60.4228 51.7324 59.7783C52.0019 59.1439 52.571 58.3587 53.5948 57.2832L53.5954 57.2825C53.7971 57.0743 54.033 56.9064 54.2944 56.7813L54.3031 56.7784C54.9256 56.531 55.5685 56.4404 56.2221 56.3988C56.5486 56.3781 56.8804 56.3694 57.2137 56.36C57.3808 56.3553 57.5485 56.3504 57.7171 56.3437L58.2257 56.3166C60.7601 56.0335 63.0983 54.9266 65.4121 53.7093C67.7185 52.496 70.0058 51.1681 72.4114 50.4759C72.8558 50.2901 73.0949 49.9845 73.2525 49.6015C73.4156 49.205 73.4864 48.7445 73.6018 48.2417C73.7152 47.7478 73.8699 47.2288 74.2061 46.7672C74.502 46.361 74.9328 46.0064 75.5812 45.7447L75.873 45.6379L75.8845 45.6347C77.4492 45.2686 78.5255 45.1314 79.308 45.1763C80.098 45.2216 80.5943 45.4532 80.989 45.8238C81.3715 46.183 81.6588 46.6766 82.0295 47.2063C82.4029 47.7397 82.8782 48.339 83.6522 48.9577C85.7354 49.7698 87.8469 50.5195 89.9966 51.1745C90.6135 51.3211 91.2441 51.5052 91.8801 51.6956C92.5197 51.8872 93.1648 52.0847 93.8124 52.2573C95.1052 52.6018 96.3965 52.8436 97.6469 52.7427C97.9866 52.6743 98.3357 52.5506 98.6939 52.4123C99.0508 52.2746 99.4203 52.121 99.7835 52.0031C100.511 51.7671 101.263 51.6571 101.957 52.1027L101.961 52.1058C103.732 53.3446 104.741 54.394 105.275 55.3089C105.812 56.2294 105.867 57.0086 105.741 57.6915C105.678 58.0299 105.572 58.3422 105.463 58.6314C105.353 58.9246 105.243 59.1859 105.165 59.4407C105.087 59.6931 105.044 59.9243 105.064 60.1456C105.084 60.3637 105.167 60.5812 105.352 60.8068C107.403 63.3121 107.24 63.1135 108.302 64.731C108.557 65.1183 108.958 65.7676 109.439 66.2759C109.679 66.5296 109.932 66.7411 110.19 66.867C110.445 66.9918 110.698 67.0301 110.947 66.9499C111.399 66.8043 111.665 66.5828 111.813 66.3326C111.963 66.0803 112.003 65.7815 111.971 65.4649C111.908 64.828 111.56 64.1602 111.33 63.7664C108.921 60.4478 110.677 62.7999 108.224 59.763L108.176 59.7037L108.204 59.6318C109.048 57.472 108.549 55.3145 107.352 53.4797C106.156 51.6441 104.267 50.1424 102.364 49.3095C101.084 48.8553 99.4877 49.2398 98.3839 49.6754C97.5578 50.0077 96.512 50.0397 95.3681 49.8948C94.2212 49.7495 92.9605 49.4244 91.698 49.0293C90.4353 48.6342 89.1656 48.1672 88.0001 47.7372C86.8326 47.3064 85.7723 46.9141 84.9216 46.6634L84.8809 46.6513L84.8542 46.6177C84.6107 46.3063 84.3786 45.9698 84.1455 45.6336C83.9115 45.2962 83.6763 44.9582 83.4232 44.6383C82.9173 43.9989 82.3474 43.4417 81.5993 43.1171C79.4884 42.3291 76.9699 42.3827 74.8936 43.235C72.8182 44.0871 71.1963 45.7305 70.8501 48.1168L70.8381 48.1969L70.7616 48.2235C68.7122 48.9206 66.8488 49.9026 64.9759 50.8676C63.1061 51.8311 61.2272 52.7773 59.1623 53.3895L59.1242 53.2627L59.1617 53.3903L59.1494 53.3928C58.5827 53.5043 57.9916 53.5494 57.3975 53.5786C56.8001 53.608 56.2049 53.6206 55.6116 53.6663C54.5021 53.7517 53.435 53.951 52.4977 54.5682L52.312 54.6971C50.8233 55.8081 49.5938 57.3768 49.0445 59.0795C48.4966 60.7782 48.6245 62.6093 49.8438 64.2668L49.8843 64.322L49.8633 64.3871C49.2726 66.1719 48.8916 68.3309 48.3784 70.5025C47.8675 72.6649 47.2272 74.8302 46.1167 76.5862L46.1098 76.5945C45.1314 77.8974 44.0648 79.3176 43.323 80.8503C42.5821 82.381 42.1711 84.0138 42.4963 85.7429L42.4977 85.7504L42.4984 85.7587C42.7049 88.6342 45.1184 91.0064 47.8969 91.5406L47.9746 91.5556L47.9982 91.6311C49.2196 95.5365 51.1412 99.2256 53.6445 102.473L53.6949 102.537L53.6594 102.611C52.1746 105.728 53.5926 109.091 56.1106 111.192Z" fill="white" stroke="url(#paint18_radial_2939_10691)" stroke-width="0.264892"/>
<path d="M85.5309 68.9893L81.8805 69.9528L79.4306 68.9893L75.4297 82.3361H79.6508L75.955 92.2998L85.0064 78.9537H79.558L85.5309 68.9893Z" fill="white"/>
<path d="M111.771 97.8418V90.1213H113.249L116.536 95.5698H115.752L118.984 90.1213H120.451L120.473 97.8418H118.797L118.786 92.6911H119.094L116.514 97.0256H115.708L113.072 92.6911H113.447V97.8418H111.771ZM126.071 97.9741C125.461 97.9741 124.895 97.8749 124.373 97.6764C123.858 97.4778 123.41 97.1984 123.027 96.8381C122.652 96.4778 122.358 96.055 122.145 95.5698C121.939 95.0845 121.836 94.5551 121.836 93.9815C121.836 93.408 121.939 92.8786 122.145 92.3933C122.358 91.908 122.656 91.4852 123.038 91.1249C123.421 90.7646 123.869 90.4852 124.384 90.2867C124.899 90.0882 125.457 89.9889 126.06 89.9889C126.671 89.9889 127.229 90.0882 127.737 90.2867C128.251 90.4852 128.696 90.7646 129.071 91.1249C129.454 91.4852 129.751 91.908 129.965 92.3933C130.178 92.8712 130.285 93.4006 130.285 93.9815C130.285 94.5551 130.178 95.0881 129.965 95.5808C129.751 96.0661 129.454 96.4889 129.071 96.8492C128.696 97.2021 128.251 97.4778 127.737 97.6764C127.229 97.8749 126.674 97.9741 126.071 97.9741ZM126.06 96.4521C126.406 96.4521 126.722 96.3933 127.009 96.2756C127.303 96.158 127.56 95.9889 127.781 95.7683C128.001 95.5477 128.171 95.2867 128.288 94.9852C128.413 94.6837 128.476 94.3492 128.476 93.9815C128.476 93.6139 128.413 93.2793 128.288 92.9779C128.171 92.6764 128.001 92.4154 127.781 92.1948C127.568 91.9742 127.314 91.8051 127.02 91.6874C126.726 91.5698 126.406 91.511 126.06 91.511C125.715 91.511 125.395 91.5698 125.101 91.6874C124.814 91.8051 124.56 91.9742 124.34 92.1948C124.119 92.4154 123.946 92.6764 123.821 92.9779C123.704 93.2793 123.645 93.6139 123.645 93.9815C123.645 94.3418 123.704 94.6764 123.821 94.9852C123.946 95.2867 124.115 95.5477 124.329 95.7683C124.549 95.9889 124.807 96.158 125.101 96.2756C125.395 96.3933 125.715 96.4521 126.06 96.4521ZM133.135 97.8418V91.5771H130.665V90.1213H137.393V91.5771H134.922V97.8418H133.135ZM142.013 97.9741C141.403 97.9741 140.836 97.8749 140.314 97.6764C139.8 97.4778 139.351 97.1984 138.969 96.8381C138.594 96.4778 138.3 96.055 138.086 95.5698C137.881 95.0845 137.778 94.5551 137.778 93.9815C137.778 93.408 137.881 92.8786 138.086 92.3933C138.3 91.908 138.598 91.4852 138.98 91.1249C139.362 90.7646 139.811 90.4852 140.325 90.2867C140.84 90.0882 141.399 89.9889 142.002 89.9889C142.612 89.9889 143.171 90.0882 143.678 90.2867C144.193 90.4852 144.638 90.7646 145.013 91.1249C145.395 91.4852 145.693 91.908 145.906 92.3933C146.12 92.8712 146.226 93.4006 146.226 93.9815C146.226 94.5551 146.12 95.0881 145.906 95.5808C145.693 96.0661 145.395 96.4889 145.013 96.8492C144.638 97.2021 144.193 97.4778 143.678 97.6764C143.171 97.8749 142.616 97.9741 142.013 97.9741ZM142.002 96.4521C142.347 96.4521 142.664 96.3933 142.95 96.2756C143.245 96.158 143.502 95.9889 143.722 95.7683C143.943 95.5477 144.112 95.2867 144.23 94.9852C144.355 94.6837 144.417 94.3492 144.417 93.9815C144.417 93.6139 144.355 93.2793 144.23 92.9779C144.112 92.6764 143.943 92.4154 143.722 92.1948C143.509 91.9742 143.256 91.8051 142.961 91.6874C142.667 91.5698 142.347 91.511 142.002 91.511C141.656 91.511 141.336 91.5698 141.042 91.6874C140.756 91.8051 140.502 91.9742 140.281 92.1948C140.061 92.4154 139.888 92.6764 139.763 92.9779C139.645 93.2793 139.586 93.6139 139.586 93.9815C139.586 94.3418 139.645 94.6764 139.763 94.9852C139.888 95.2867 140.057 95.5477 140.27 95.7683C140.491 95.9889 140.748 96.158 141.042 96.2756C141.336 96.3933 141.656 96.4521 142.002 96.4521ZM147.585 97.8418V90.1213H150.927C151.619 90.1213 152.214 90.2352 152.714 90.4632C153.214 90.6838 153.6 91.0036 153.872 91.4227C154.144 91.8418 154.28 92.3418 154.28 92.9227C154.28 93.4962 154.144 93.9926 153.872 94.4117C153.6 94.8234 153.214 95.1396 152.714 95.3602C152.214 95.5808 151.619 95.6911 150.927 95.6911H148.578L149.372 94.908V97.8418H147.585ZM152.494 97.8418L150.563 95.0403H152.471L154.424 97.8418H152.494ZM149.372 95.1065L148.578 94.2683H150.828C151.38 94.2683 151.791 94.1506 152.063 93.9154C152.335 93.6727 152.471 93.3418 152.471 92.9227C152.471 92.4962 152.335 92.1654 152.063 91.9301C151.791 91.6948 151.38 91.5771 150.828 91.5771H148.578L149.372 90.7279V95.1065Z" fill="white"/>
<path d="M115.449 83.0198C115.346 84.0544 114.777 84.6148 113.742 84.701C113.26 84.701 112.837 84.5458 112.475 84.2355C112.13 83.9078 111.958 83.5026 111.958 83.0198V70.8114C111.975 70.3286 112.156 69.932 112.501 69.6216C112.846 69.294 113.26 69.1302 113.742 69.1302H124.606C126.123 69.1819 127.27 69.5181 128.046 70.1389C128.822 70.7424 129.382 71.4322 129.727 72.2081C130.072 72.9841 130.244 73.7687 130.244 74.5619C130.244 75.3895 130.072 76.1914 129.727 76.9673C129.399 77.7433 128.839 78.4416 128.046 79.0624C127.27 79.6659 126.278 79.9591 125.071 79.9418H118.553C118.07 79.9418 117.665 79.7694 117.338 79.4245C116.993 79.0969 116.82 78.6917 116.82 78.2089C116.82 77.726 116.984 77.3208 117.312 76.9932C117.657 76.6483 118.07 76.4759 118.553 76.4759H125.227C125.554 76.4759 125.821 76.3724 126.028 76.1655C126.253 75.9413 126.416 75.6913 126.52 75.4154C126.623 75.1223 126.675 74.8291 126.675 74.536C126.675 74.2601 126.623 73.9842 126.52 73.7083C126.416 73.4152 126.253 73.1651 126.028 72.9582C125.821 72.734 125.554 72.6133 125.227 72.5961H116.122C115.674 72.6133 115.449 72.8375 115.449 73.2686V83.0198ZM134.811 72.3892C135.276 72.4064 135.673 72.5789 136 72.9065C136.328 73.2169 136.5 73.6048 136.518 74.0704V83.0198C136.414 84.0544 135.845 84.6148 134.811 84.701C134.328 84.701 133.905 84.5458 133.543 84.2355C133.198 83.9078 133.026 83.5026 133.026 83.0198V74.0704C133.043 73.5876 133.224 73.191 133.569 72.8806C133.914 72.553 134.328 72.3892 134.811 72.3892ZM132.638 69.0267C132.638 68.5439 132.845 68.13 133.259 67.7852C133.672 67.4403 134.173 67.2679 134.759 67.2679C135.345 67.2679 135.845 67.4403 136.259 67.7852C136.673 68.13 136.88 68.5439 136.88 69.0267C136.88 69.5268 136.673 69.9492 136.259 70.2941C135.845 70.639 135.345 70.8114 134.759 70.8114C134.173 70.8114 133.672 70.639 133.259 70.2941C132.845 69.9492 132.638 69.5268 132.638 69.0267ZM140.773 78.2347C140.394 78.2347 140.066 78.1054 139.791 77.8467C139.515 77.5708 139.377 77.2432 139.377 76.8639C139.377 76.4673 139.515 76.1396 139.791 75.881C140.066 75.6051 140.394 75.4671 140.773 75.4671H145.222C145.602 75.4671 145.929 75.6051 146.205 75.881C146.481 76.1396 146.619 76.4673 146.619 76.8639C146.619 77.2432 146.481 77.5708 146.205 77.8467C145.929 78.1054 145.602 78.2347 145.222 78.2347H140.773ZM155.427 72.5961C154.772 72.6306 154.22 72.8806 153.772 73.3462C153.341 73.8118 153.03 74.3463 152.84 74.9498C152.651 75.5361 152.556 76.1396 152.556 76.7604C152.556 77.3812 152.642 77.9933 152.815 78.5968C153.004 79.2004 153.323 79.7349 153.772 80.2005C154.22 80.6488 154.772 80.8902 155.427 80.9247H163.963C165.049 81.0282 165.644 81.6231 165.747 82.7094C165.73 83.1922 165.549 83.5975 165.204 83.9251C164.859 84.2355 164.445 84.3907 163.963 84.3907H155.712H154.522C153.315 84.3217 152.323 83.8647 151.547 83.0198C150.771 82.1576 150.211 81.1834 149.866 80.097C149.538 79.0107 149.375 77.8985 149.375 76.7604C149.375 75.9155 149.469 75.0792 149.659 74.2515C149.849 73.4238 150.142 72.6392 150.538 71.8977C150.952 71.139 151.495 70.4924 152.168 69.9578C152.858 69.4233 153.642 69.1474 154.522 69.1302H155.013H163.963C165.049 69.2336 165.644 69.8285 165.747 70.9149C165.747 71.3977 165.566 71.8029 165.204 72.1305C164.859 72.4409 164.445 72.5961 163.963 72.5961H155.427ZM173.986 80.3815C173.986 79.8987 174.15 79.4935 174.478 79.1659C174.823 78.821 175.236 78.6486 175.719 78.6486H179.677L179.004 76.7345C178.728 76.0276 178.452 75.3637 178.176 74.7429C177.918 74.1049 177.616 73.5272 177.271 73.0099C176.961 72.4926 176.607 72.2167 176.211 72.1823C175.797 72.2167 175.426 72.4926 175.098 73.0099C174.771 73.5272 174.469 74.1049 174.193 74.7429C173.935 75.3637 173.667 76.0276 173.391 76.7345L170.934 83.4595C170.762 83.8216 170.538 84.1234 170.262 84.3648C170.003 84.589 169.606 84.701 169.072 84.701C168.572 84.701 168.158 84.5286 167.83 84.1837C167.52 83.8389 167.382 83.425 167.416 82.9422C167.434 82.718 167.485 82.5111 167.572 82.3214L170.417 74.9757C171.21 73.0444 172.003 71.4839 172.796 70.2941C173.572 69.1215 174.71 68.5266 176.211 68.5094C177.694 68.5266 178.823 69.1215 179.599 70.2941C180.392 71.4494 181.185 73.0099 181.979 74.9757L184.824 82.3214C184.91 82.5111 184.962 82.718 184.979 82.9422C185.013 83.425 184.867 83.8389 184.539 84.1837C184.229 84.5286 183.824 84.701 183.324 84.701C182.755 84.701 182.332 84.589 182.056 84.3648C181.798 84.1234 181.582 83.8216 181.41 83.4595L180.918 82.1145H175.719C175.236 82.1145 174.831 81.9421 174.504 81.5972C174.159 81.2696 173.986 80.8644 173.986 80.3815ZM198.831 69.1302C200.038 69.1991 201.029 69.6647 201.805 70.5269C202.581 71.3718 203.142 72.3374 203.486 73.4238C203.831 74.5101 204.004 75.6223 204.004 76.7604C204.004 77.8985 203.831 79.0107 203.486 80.097C203.159 81.1834 202.598 82.1576 201.805 83.0198C201.029 83.8647 200.038 84.3217 198.831 84.3907H189.312C188.847 84.3734 188.45 84.2096 188.123 83.8992C187.812 83.5716 187.648 83.175 187.631 82.7094V76.2948C187.648 75.812 187.829 75.4154 188.174 75.105C188.519 74.7774 188.933 74.6136 189.416 74.6136C189.881 74.6308 190.278 74.8033 190.606 75.1309C190.933 75.4413 191.106 75.8293 191.123 76.2948V80.2263C191.123 80.6919 191.364 80.9247 191.847 80.9247H197.951C198.607 80.8902 199.15 80.6402 199.581 80.1746C200.012 79.709 200.322 79.1831 200.512 78.5968C200.719 77.9933 200.822 77.3812 200.822 76.7604C200.822 76.1396 200.719 75.5361 200.512 74.9498C200.322 74.3463 200.012 73.8118 199.581 73.3462C199.15 72.8806 198.607 72.6306 197.951 72.5961H189.312C188.278 72.5099 187.717 71.9495 187.631 70.9149C187.631 70.432 187.786 70.0182 188.097 69.6733C188.424 69.3285 188.83 69.1474 189.312 69.1302H198.831ZM223.598 70.8631C223.598 71.3459 223.425 71.7512 223.08 72.0788C222.753 72.4237 222.348 72.5961 221.865 72.5961H211.519C211.191 72.6133 210.915 72.6909 210.691 72.8289C210.484 72.9496 210.329 73.0962 210.225 73.2686C210.122 73.4238 210.07 73.5876 210.07 73.76C210.07 73.9325 210.122 74.1049 210.225 74.2773C210.329 74.4325 210.484 74.5791 210.691 74.717C210.915 74.8378 211.191 74.9067 211.519 74.924H218.864C220.071 74.9585 221.063 75.243 221.839 75.7775C222.632 76.2948 223.192 76.8984 223.52 77.5881C223.865 78.2606 224.037 78.9503 224.037 79.6573C224.037 80.3471 223.865 81.0368 223.52 81.7265C223.175 82.399 222.615 83.0026 221.839 83.5371C221.063 84.0544 220.071 84.3131 218.864 84.3131H218.709C218.606 84.3303 218.502 84.3389 218.399 84.3389H208.622C208.139 84.3389 207.725 84.1751 207.38 83.8475C207.053 83.5026 206.889 83.0888 206.889 82.6059C206.889 82.1231 207.061 81.7179 207.406 81.3903C207.734 81.0454 208.139 80.873 208.622 80.873H219.02C219.347 80.8902 219.614 80.8299 219.821 80.6919C220.045 80.554 220.209 80.3988 220.313 80.2263C220.416 80.0367 220.468 79.847 220.468 79.6573C220.468 79.5366 220.416 79.3728 220.313 79.1659C220.209 78.9417 220.045 78.7606 219.821 78.6227C219.614 78.4848 219.347 78.4072 219.02 78.3899H211.674C210.467 78.3554 209.467 78.0795 208.673 77.5622C207.897 77.0449 207.337 76.4586 206.992 75.8034C206.665 75.1309 206.501 74.4498 206.501 73.76C206.501 73.0875 206.673 72.4237 207.018 71.7684C207.363 71.0959 207.923 70.501 208.699 69.9837C209.475 69.4664 210.467 69.1905 211.674 69.156H211.829C211.932 69.1388 212.036 69.1302 212.139 69.1302H221.865C222.348 69.1302 222.753 69.3026 223.08 69.6475C223.425 69.9751 223.598 70.3803 223.598 70.8631Z" fill="white"/>
<defs>
<radialGradient id="paint0_radial_2939_10691" cx="0" cy="0" r="1" gradientUnits="userSpaceOnUse" gradientTransform="translate(80.7016 80.482) rotate(-38.9129) scale(36.3214)">
<stop offset="0.475962" stop-color="white"/>
<stop offset="0.942308" stop-color="#D9D9D9" stop-opacity="0"/>
</radialGradient>
<radialGradient id="paint1_radial_2939_10691" cx="0" cy="0" r="1" gradientUnits="userSpaceOnUse" gradientTransform="translate(80.7005 80.4803) rotate(-33.9129) scale(36.3214)">
<stop offset="0.475962" stop-color="white"/>
<stop offset="0.942308" stop-color="#D9D9D9" stop-opacity="0"/>
</radialGradient>
<radialGradient id="paint2_radial_2939_10691" cx="0" cy="0" r="1" gradientUnits="userSpaceOnUse" gradientTransform="translate(80.6985 80.4825) rotate(-28.9129) scale(36.3214)">
<stop offset="0.475962" stop-color="white"/>
<stop offset="0.942308" stop-color="#D9D9D9" stop-opacity="0"/>
</radialGradient>
<radialGradient id="paint3_radial_2939_10691" cx="0" cy="0" r="1" gradientUnits="userSpaceOnUse" gradientTransform="translate(80.6999 80.4828) rotate(-23.9129) scale(36.3214)">
<stop offset="0.475962" stop-color="white"/>
<stop offset="0.942308" stop-color="#D9D9D9" stop-opacity="0"/>
</radialGradient>
<radialGradient id="paint4_radial_2939_10691" cx="0" cy="0" r="1" gradientUnits="userSpaceOnUse" gradientTransform="translate(80.6959 80.4851) rotate(-18.9129) scale(36.3214)">
<stop offset="0.475962" stop-color="white"/>
<stop offset="0.942308" stop-color="#D9D9D9" stop-opacity="0"/>
</radialGradient>
<radialGradient id="paint5_radial_2939_10691" cx="0" cy="0" r="1" gradientUnits="userSpaceOnUse" gradientTransform="translate(80.6962 80.4844) rotate(-13.9129) scale(36.3214)">
<stop offset="0.475962" stop-color="white"/>
<stop offset="0.942308" stop-color="#D9D9D9" stop-opacity="0"/>
</radialGradient>
<radialGradient id="paint6_radial_2939_10691" cx="0" cy="0" r="1" gradientUnits="userSpaceOnUse" gradientTransform="translate(80.6977 80.482) rotate(-8.9129) scale(36.3214)">
<stop offset="0.475962" stop-color="white"/>
<stop offset="0.942308" stop-color="#D9D9D9" stop-opacity="0"/>
</radialGradient>
<radialGradient id="paint7_radial_2939_10691" cx="0" cy="0" r="1" gradientUnits="userSpaceOnUse" gradientTransform="translate(80.6958 80.4847) rotate(-3.91289) scale(36.3214)">
<stop offset="0.475962" stop-color="white"/>
<stop offset="0.942308" stop-color="#D9D9D9" stop-opacity="0"/>
</radialGradient>
<radialGradient id="paint8_radial_2939_10691" cx="0" cy="0" r="1" gradientUnits="userSpaceOnUse" gradientTransform="translate(80.7039 80.4805) rotate(1.08711) scale(36.3214)">
<stop offset="0.475962" stop-color="white"/>
<stop offset="0.942308" stop-color="#D9D9D9" stop-opacity="0"/>
</radialGradient>
<radialGradient id="paint9_radial_2939_10691" cx="0" cy="0" r="1" gradientUnits="userSpaceOnUse" gradientTransform="translate(80.7026 80.4808) rotate(6.08711) scale(36.3214)">
<stop offset="0.475962" stop-color="white"/>
<stop offset="0.942308" stop-color="#D9D9D9" stop-opacity="0"/>
</radialGradient>
<radialGradient id="paint10_radial_2939_10691" cx="0" cy="0" r="1" gradientUnits="userSpaceOnUse" gradientTransform="translate(80.6979 80.4836) rotate(11.0871) scale(36.3214)">
<stop offset="0.475962" stop-color="white"/>
<stop offset="0.942308" stop-color="#D9D9D9" stop-opacity="0"/>
</radialGradient>
<radialGradient id="paint11_radial_2939_10691" cx="0" cy="0" r="1" gradientUnits="userSpaceOnUse" gradientTransform="translate(80.7017 80.4823) rotate(16.0871) scale(36.3214)">
<stop offset="0.475962" stop-color="white"/>
<stop offset="0.942308" stop-color="#D9D9D9" stop-opacity="0"/>
</radialGradient>
<radialGradient id="paint12_radial_2939_10691" cx="0" cy="0" r="1" gradientUnits="userSpaceOnUse" gradientTransform="translate(80.7001 80.4825) rotate(21.0871) scale(36.3214)">
<stop offset="0.475962" stop-color="white"/>
<stop offset="0.942308" stop-color="#D9D9D9" stop-opacity="0"/>
</radialGradient>
<radialGradient id="paint13_radial_2939_10691" cx="0" cy="0" r="1" gradientUnits="userSpaceOnUse" gradientTransform="translate(80.6962 80.4857) rotate(26.0871) scale(36.3214)">
<stop offset="0.475962" stop-color="white"/>
<stop offset="0.942308" stop-color="#D9D9D9" stop-opacity="0"/>
</radialGradient>
<radialGradient id="paint14_radial_2939_10691" cx="0" cy="0" r="1" gradientUnits="userSpaceOnUse" gradientTransform="translate(80.7024 80.4823) rotate(31.0871) scale(36.3214)">
<stop offset="0.475962" stop-color="white"/>
<stop offset="0.942308" stop-color="#D9D9D9" stop-opacity="0"/>
</radialGradient>
<radialGradient id="paint15_radial_2939_10691" cx="0" cy="0" r="1" gradientUnits="userSpaceOnUse" gradientTransform="translate(80.7005 80.4823) rotate(36.0871) scale(36.3214)">
<stop offset="0.475962" stop-color="white"/>
<stop offset="0.942308" stop-color="#D9D9D9" stop-opacity="0"/>
</radialGradient>
<radialGradient id="paint16_radial_2939_10691" cx="0" cy="0" r="1" gradientUnits="userSpaceOnUse" gradientTransform="translate(80.6927 80.4857) rotate(41.0871) scale(36.3214)">
<stop offset="0.475962" stop-color="white"/>
<stop offset="0.942308" stop-color="#D9D9D9" stop-opacity="0"/>
</radialGradient>
<radialGradient id="paint17_radial_2939_10691" cx="0" cy="0" r="1" gradientUnits="userSpaceOnUse" gradientTransform="translate(80.3366 80.4776) rotate(-50.3121) scale(22.8082 21.8295)">
<stop offset="0.475962" stop-color="white"/>
<stop offset="0.942308" stop-color="#D9D9D9" stop-opacity="0"/>
</radialGradient>
<radialGradient id="paint18_radial_2939_10691" cx="0" cy="0" r="1" gradientUnits="userSpaceOnUse" gradientTransform="translate(80.7053 81.1789) rotate(-50.3121) scale(38.9351 39.1741)">
<stop offset="0.475962" stop-color="white"/>
<stop offset="0.942308" stop-color="#D9D9D9" stop-opacity="0"/>
</radialGradient>
</defs>
</svg>
