<svg width="159" height="113" viewBox="0 0 159 113" fill="none" xmlns="http://www.w3.org/2000/svg">
<path d="M59.0684 73.105L79.6971 65.3027L69.6475 45.6711L52.5767 31.7075L40.5996 50.2269L37.0432 71.9916L59.0684 73.105Z" stroke="url(#paint0_radial_1903_8540)" stroke-width="0.506146"/>
<path d="M57.5982 73.2682L78.8285 67.2935L70.5281 46.8607L54.7393 31.4625L41.1937 48.8675L35.7539 70.2394L57.5982 73.2682Z" stroke="url(#paint1_radial_1903_8540)" stroke-width="0.506145"/>
<path d="M56.1158 73.3067L77.786 69.2051L71.2981 48.1267L56.9114 31.411L41.9004 47.5692L34.6186 68.3856L56.1158 73.3067Z" stroke="url(#paint2_radial_1903_8540)" stroke-width="0.506146"/>
<path d="M54.6375 73.2139L76.5827 71.0166L71.9566 49.4529L59.0815 31.5469L42.7194 46.3354L33.651 66.4379L54.6375 73.2139Z" stroke="url(#paint3_radial_1903_8540)" stroke-width="0.506145"/>
<path d="M53.1716 72.9937L75.2248 72.7174L72.4956 50.8326L61.2302 31.8726L43.6414 45.1787L32.8555 64.4144L53.1716 72.9937Z" stroke="url(#paint4_radial_1903_8540)" stroke-width="0.506146"/>
<path d="M51.7327 72.6456L73.7261 74.2924L72.9147 52.2531L63.3446 32.3833L44.663 44.1059L32.2417 62.3283L51.7327 72.6456Z" stroke="url(#paint5_radial_1903_8540)" stroke-width="0.506145"/>
<path d="M50.3305 72.1714L72.0966 75.7288L73.2092 53.7026L65.4073 33.0744L45.7751 43.1241L31.8128 60.1946L50.3305 72.1714Z" stroke="url(#paint6_radial_1903_8540)" stroke-width="0.506145"/>
<path d="M48.9716 71.5813L70.3448 77.0222L73.3729 55.1768L67.3985 33.9471L46.9652 42.2475L31.5682 58.0362L48.9716 71.5813Z" stroke="url(#paint7_radial_1903_8540)" stroke-width="0.506146"/>
<path d="M47.6762 70.8695L68.494 78.1525L73.4144 56.6541L69.3131 34.9845L48.2341 41.4724L31.5196 55.8591L47.6762 70.8695Z" stroke="url(#paint8_radial_1903_8540)" stroke-width="0.506146"/>
<path d="M46.4412 70.0505L66.5449 79.1202L73.3204 58.1324L71.1233 36.1878L49.559 40.814L31.6543 53.6891L46.4412 70.0505Z" stroke="url(#paint9_radial_1903_8540)" stroke-width="0.506145"/>
<path d="M45.2808 69.1281L64.5175 79.9154L73.0964 59.598L72.8203 37.5455L50.9349 40.2745L31.9762 51.5402L45.2808 69.1281Z" stroke="url(#paint10_radial_1903_8540)" stroke-width="0.506146"/>
<path d="M44.21 68.1059L62.4334 80.5288L72.7504 61.0364L74.3973 39.0437L52.3573 39.8549L32.4889 49.4253L44.21 68.1059Z" stroke="url(#paint11_radial_1903_8540)" stroke-width="0.506146"/>
<path d="M43.2295 66.9964L60.3008 80.9602L72.2774 62.4413L75.8349 40.6758L53.808 39.563L33.1811 47.3653L43.2295 66.9964Z" stroke="url(#paint12_radial_1903_8540)" stroke-width="0.506146"/>
<path d="M42.348 65.8058L58.1373 81.2043L71.6824 63.7997L77.1233 42.427L55.2773 39.3987L34.0488 45.3736L42.348 65.8058Z" stroke="url(#paint13_radial_1903_8540)" stroke-width="0.506146"/>
<path d="M41.5804 64.5403L55.9676 81.2564L70.9781 65.0985L78.261 44.2814L56.7621 39.3606L35.0936 43.4626L41.5804 64.5403Z" stroke="url(#paint14_radial_1903_8540)" stroke-width="0.506146"/>
<path d="M40.9224 63.2135L53.7979 81.12L70.1595 66.3318L79.2291 46.2287L58.2408 39.4528L36.2973 41.6507L40.9224 63.2135Z" stroke="url(#paint15_radial_1903_8540)" stroke-width="0.506145"/>
<path d="M40.3762 61.8369L51.6421 80.7973L69.2303 67.4914L80.0175 48.2552L59.6996 39.676L37.6481 39.953L40.3762 61.8369Z" stroke="url(#paint16_radial_1903_8540)" stroke-width="0.506145"/>
<path d="M46.449 68.7823C52.9499 74.4075 62.7123 72.3584 67.8051 65.8819L67.8755 65.9377L67.8044 65.8812L67.814 65.8727C73.4817 60.4601 72.6266 50.4738 66.7565 45.5942L66.7159 45.5606L66.7257 45.509C66.8188 45.0147 66.6623 44.4614 66.1061 44.0291C62.1611 41.0168 58.0638 40.1524 54.3546 40.7478C50.6436 41.3435 47.3143 43.4012 44.91 46.2413C40.1012 51.9219 39.0043 60.7154 45.9373 67.18L45.9753 67.2153L45.9634 67.2664C45.8292 67.8047 45.9963 68.3997 46.4482 68.7817L46.449 68.7823ZM46.8134 66.1977C41.1817 60.4379 42.1518 52.8126 46.2296 47.9772C48.2687 45.5593 51.0877 43.8344 54.2526 43.3878C57.4179 42.9412 60.9208 43.7751 64.3256 46.4576L64.3262 46.4569C64.8714 46.8351 65.4145 46.8387 65.8473 46.6379L65.9019 46.6134L65.9452 46.6545C68.3551 48.9119 69.7061 52.2063 69.8161 55.4975C69.926 58.7868 68.7967 62.0808 66.2355 64.3356C64.1434 66.9278 60.9755 68.6888 57.6926 69.1967C54.5088 69.6892 51.2102 69.0039 48.6807 66.746L48.4387 66.5223C48.0108 66.131 47.4174 66.0342 46.907 66.2195L46.854 66.239L46.8134 66.1977Z" fill="#009400" stroke="url(#paint17_radial_1903_8540)" stroke-width="0.178206"/>
<path d="M60.57 80.8243L60.5629 80.8298C59.8298 81.416 58.742 81.6091 57.7946 81.3993C56.9041 81.202 56.1199 80.6431 55.8755 79.6976L55.8341 79.5059C55.728 78.9868 55.3117 78.6094 54.818 78.5268L54.719 78.5145C51.665 78.2614 48.6848 77.3613 46.0018 75.8769L45.9981 75.8738C45.7754 75.7365 45.5691 75.6995 45.3736 75.721C45.1756 75.7429 44.9816 75.8257 44.7857 75.94C44.5884 76.0553 44.3983 76.1972 44.2009 76.3329C44.0076 76.4656 43.8078 76.5917 43.6029 76.6666L43.6036 76.6672C42.9936 76.9113 42.4002 76.827 41.8571 76.582C41.3161 76.338 40.8193 75.9329 40.3946 75.5244C39.317 74.7215 39.25 73.2639 39.9242 72.1658L39.9248 72.1651C40.1913 71.7418 40.1373 71.2052 39.831 70.8422C37.8394 68.4954 36.3639 65.7178 35.5207 62.7565C35.406 62.3561 35.0778 62.074 34.6949 61.9976L34.528 61.9771C32.6069 61.9682 31.5078 60.1284 31.9617 58.3868L32.0105 58.2179C32.3983 56.9791 33.2899 55.8846 34.0505 54.8131C34.9517 53.427 35.4357 51.85 35.8158 50.2299C36.1939 48.6186 36.4704 46.9544 36.9588 45.4195C36.9892 44.1621 36.4438 43.6602 36.2079 43.0197C36.0889 42.6967 36.0638 42.3574 36.2544 41.9086C36.4421 41.4665 36.8384 40.9187 37.5518 40.1693L37.5524 40.1685C37.6929 40.0236 37.8575 39.9073 38.0395 39.8202L38.0455 39.8175C38.4792 39.6452 38.9276 39.582 39.3829 39.5531C39.6103 39.5386 39.8411 39.5322 40.0732 39.5257L40.7785 39.4955C42.5444 39.2983 44.1739 38.5284 45.7861 37.6803C47.3926 36.8351 48.9859 35.9105 50.6615 35.428C50.972 35.2986 51.1391 35.085 51.249 34.8178C51.3627 34.5415 51.4112 34.2199 51.4917 33.8694C51.5707 33.5253 51.6793 33.1643 51.9136 32.8427C52.1493 32.5191 52.5075 32.2429 53.0749 32.0564L53.0748 32.055L53.0823 32.0536C54.1726 31.7985 54.9228 31.7028 55.4681 31.734C56.0185 31.7656 56.3641 31.9273 56.6391 32.1855C56.9055 32.4357 57.1063 32.779 57.3645 33.1479C57.6248 33.5198 57.9557 33.9381 58.4955 34.3695C59.9449 34.9344 61.414 35.4561 62.9095 35.912L62.9102 35.9112C63.3417 36.0136 63.7829 36.143 64.2278 36.2762C64.6733 36.4096 65.1224 36.5469 65.5735 36.6671C66.4734 36.9069 67.3726 37.0754 68.2431 37.0056C68.4806 36.958 68.7251 36.8725 68.9756 36.7759C69.2241 36.6799 69.4812 36.5725 69.7341 36.4904C70.2408 36.3259 70.765 36.2492 71.2489 36.5596L71.2519 36.5621C72.4856 37.4252 73.1886 38.1567 73.5608 38.7942C73.9351 39.4355 73.9729 39.9783 73.8851 40.4541C73.8416 40.6898 73.7678 40.9073 73.6921 41.1087C73.6153 41.313 73.5386 41.4956 73.4838 41.6732C73.4296 41.8489 73.4001 42.0096 73.4143 42.1637C73.4283 42.3157 73.4852 42.4678 73.6139 42.6251C75.0432 44.3706 74.9296 44.232 75.6699 45.3591C75.8471 45.6289 76.127 46.0811 76.4621 46.4353C76.6294 46.6121 76.8066 46.7594 76.9858 46.8471C77.1634 46.9339 77.3391 46.9608 77.5127 46.9049C77.828 46.8034 78.0131 46.6488 78.1163 46.4743C78.2202 46.2986 78.2478 46.0904 78.2258 45.8698C78.1815 45.4272 77.9411 44.963 77.781 44.6885C76.1006 42.3737 77.3245 44.014 75.6158 41.898L75.5821 41.856L75.6017 41.8064C76.1898 40.3015 75.8416 38.7978 75.0082 37.5195C74.1745 36.2407 72.8588 35.1954 71.5328 34.615C70.7522 34.3378 69.8036 34.507 69.0632 34.7572L68.7601 34.8686C68.1843 35.1005 67.4551 35.1221 66.6577 35.0211C65.8586 34.9199 64.9804 34.6936 64.1008 34.4183C63.221 34.143 62.336 33.8181 61.524 33.5185C60.7105 33.2183 59.9714 32.9446 59.3787 32.7699L59.3502 32.7615L59.3327 32.7381C59.163 32.5212 59.0008 32.2867 58.8383 32.0525C58.6753 31.8174 58.5112 31.5821 58.3349 31.3593C57.9828 30.9144 57.5866 30.5266 57.0665 30.3003C55.5951 29.7504 53.8388 29.7871 52.3914 30.3813C50.9455 30.9751 49.8162 32.1202 49.5751 33.7827L49.5664 33.839L49.5133 33.8571C48.0854 34.3428 46.7869 35.027 45.4819 35.6994C44.342 36.2868 43.197 36.8647 41.9649 37.2859L41.4309 37.4569L41.4227 37.459L41.1236 37.509C40.8219 37.5517 40.5128 37.5732 40.2024 37.5885C39.786 37.6089 39.3706 37.6183 38.957 37.6502C38.1841 37.7097 37.4408 37.8477 36.7878 38.2777L36.6582 38.3681C35.6211 39.1422 34.765 40.2348 34.3823 41.421C34.0005 42.6047 34.0893 43.8802 34.9389 45.0352L34.9668 45.0735L34.9516 45.1193C34.54 46.3628 34.2753 47.8677 33.9178 49.3807C33.5618 50.8872 33.1139 52.395 32.3402 53.6184L32.3423 53.6189L32.3373 53.6249C31.6556 54.5327 30.9113 55.522 30.3945 56.59C29.8784 57.6564 29.5917 58.7942 29.8182 59.9988L29.8195 59.9987L29.8379 60.1967C30.0691 62.1156 31.7067 63.6782 33.5823 64.0387L33.636 64.049L33.6533 64.1015C34.5043 66.8227 35.8426 69.3938 37.5869 71.6563L37.6215 71.7003L37.5972 71.7525C36.5629 73.9242 37.5506 76.2669 39.305 77.7306C41.0598 79.1946 43.5453 79.7486 45.4738 78.3803L45.52 78.3476L45.5696 78.3735C48.0571 79.6744 50.9758 80.2945 53.7721 80.6665L53.8261 80.6732L53.8461 80.7241C54.7195 82.9337 56.8717 83.9054 58.9331 83.7235C60.9941 83.5416 62.9462 82.2079 63.4207 79.822L63.4279 79.7874L63.4558 79.7661C65.5146 78.2176 67.3167 77.0885 68.843 76.3878C70.3668 75.6882 71.6284 75.4102 72.6002 75.5793C73.0773 75.6623 73.5703 75.632 73.8853 75.3184C74.905 74.3029 76.0888 72.7795 76.5356 72.1231C76.7776 71.7676 76.8547 71.4946 76.8123 71.2728C76.7702 71.0524 76.6046 70.8546 76.2949 70.6607C76.0241 70.4912 75.708 70.5911 75.4341 70.7636C75.3004 70.8479 75.184 70.9444 75.1016 71.0206C75.0605 71.0586 75.0277 71.0919 75.0056 71.1148C74.9947 71.1261 74.9865 71.1354 74.981 71.1414C74.9788 71.1438 74.9766 71.1454 74.9753 71.1468C74.5996 71.6034 74.3029 72.0013 74.0431 72.3389C73.7846 72.6747 73.5606 72.9537 73.3334 73.165C73.1047 73.3778 72.8692 73.5262 72.5871 73.5964C72.3062 73.6663 71.9873 73.6565 71.5944 73.5708C71.419 73.5325 71.1812 73.5393 70.8887 73.5893C70.5976 73.6391 70.2582 73.731 69.8831 73.8575C69.1328 74.1106 68.2447 74.5007 67.318 74.9636C65.4647 75.8894 63.4642 77.1024 62.1099 78.0832L62.1067 78.0856L61.9491 78.2036C61.6064 78.4965 61.4217 78.9089 61.2587 79.3552C61.0759 79.8557 60.9189 80.4096 60.5762 80.8168L60.57 80.8243Z" fill="#009400" stroke="url(#paint18_radial_1903_8540)" stroke-width="0.184566"/>
<path d="M59.8045 48.3252L57.2611 48.9965L55.554 48.3252L52.7664 57.6247H55.7075L53.1324 64.567L59.4391 55.268H55.6428L59.8045 48.3252Z" fill="#0069BD"/>
<path d="M78.0885 68.8545V63.4751H79.1183L81.4084 67.2714H80.8627L83.1144 63.4751H84.1365L84.1518 68.8545H82.9837L82.9761 65.2657H83.1912L81.393 68.2858H80.832L78.9953 65.2657H79.2566V68.8545H78.0885ZM88.0525 68.9467C87.6272 68.9467 87.2328 68.8775 86.869 68.7392C86.5104 68.6009 86.1979 68.4062 85.9315 68.1552C85.6702 67.9041 85.4652 67.6096 85.3167 67.2714C85.1732 66.9333 85.1015 66.5644 85.1015 66.1648C85.1015 65.7652 85.1732 65.3963 85.3167 65.0582C85.4652 64.7201 85.6727 64.4255 85.9391 64.1744C86.2056 63.9234 86.5181 63.7287 86.8767 63.5904C87.2353 63.4521 87.6247 63.3829 88.0448 63.3829C88.47 63.3829 88.8594 63.4521 89.2129 63.5904C89.5715 63.7287 89.8814 63.9234 90.1427 64.1744C90.4091 64.4255 90.6166 64.7201 90.7652 65.0582C90.9138 65.3912 90.9881 65.7601 90.9881 66.1648C90.9881 66.5644 90.9138 66.9359 90.7652 67.2791C90.6166 67.6172 90.4091 67.9118 90.1427 68.1629C89.8814 68.4088 89.5715 68.6009 89.2129 68.7392C88.8594 68.8775 88.4726 68.9467 88.0525 68.9467ZM88.0448 67.8862C88.2856 67.8862 88.5059 67.8452 88.7057 67.7633C88.9106 67.6813 89.0899 67.5634 89.2436 67.4097C89.3973 67.2561 89.5151 67.0742 89.5971 66.8641C89.6842 66.6541 89.7278 66.421 89.7278 66.1648C89.7278 65.9087 89.6842 65.6755 89.5971 65.4655C89.5151 65.2554 89.3973 65.0736 89.2436 64.9199C89.095 64.7662 88.9183 64.6483 88.7134 64.5664C88.5084 64.4844 88.2856 64.4434 88.0448 64.4434C87.804 64.4434 87.5811 64.4844 87.3762 64.5664C87.1764 64.6483 86.9996 64.7662 86.846 64.9199C86.6923 65.0736 86.5719 65.2554 86.4848 65.4655C86.4028 65.6755 86.3618 65.9087 86.3618 66.1648C86.3618 66.4158 86.4028 66.649 86.4848 66.8641C86.5719 67.0742 86.6897 67.2561 86.8383 67.4097C86.992 67.5634 87.1713 67.6813 87.3762 67.7633C87.5811 67.8452 87.804 67.8862 88.0448 67.8862ZM92.9745 68.8545V64.4895H91.2531V63.4751H95.9408V64.4895H94.2194V68.8545H92.9745ZM99.1599 68.9467C98.7347 68.9467 98.3402 68.8775 97.9765 68.7392C97.6179 68.6009 97.3053 68.4062 97.0389 68.1552C96.7777 67.9041 96.5727 67.6096 96.4242 67.2714C96.2807 66.9333 96.209 66.5644 96.209 66.1648C96.209 65.7652 96.2807 65.3963 96.4242 65.0582C96.5727 64.7201 96.7802 64.4255 97.0466 64.1744C97.313 63.9234 97.6255 63.7287 97.9842 63.5904C98.3428 63.4521 98.7322 63.3829 99.1523 63.3829C99.5775 63.3829 99.9668 63.4521 100.32 63.5904C100.679 63.7287 100.989 63.9234 101.25 64.1744C101.517 64.4255 101.724 64.7201 101.873 65.0582C102.021 65.3912 102.096 65.7601 102.096 66.1648C102.096 66.5644 102.021 66.9359 101.873 67.2791C101.724 67.6172 101.517 67.9118 101.25 68.1629C100.989 68.4088 100.679 68.6009 100.32 68.7392C99.9668 68.8775 99.58 68.9467 99.1599 68.9467ZM99.1523 67.8862C99.393 67.8862 99.6133 67.8452 99.8131 67.7633C100.018 67.6813 100.197 67.5634 100.351 67.4097C100.505 67.2561 100.623 67.0742 100.705 66.8641C100.792 66.6541 100.835 66.421 100.835 66.1648C100.835 65.9087 100.792 65.6755 100.705 65.4655C100.623 65.2554 100.505 65.0736 100.351 64.9199C100.203 64.7662 100.026 64.6483 99.8208 64.5664C99.6159 64.4844 99.393 64.4434 99.1523 64.4434C98.9115 64.4434 98.6886 64.4844 98.4837 64.5664C98.2839 64.6483 98.1071 64.7662 97.9534 64.9199C97.7997 65.0736 97.6793 65.2554 97.5922 65.4655C97.5103 65.6755 97.4693 65.9087 97.4693 66.1648C97.4693 66.4158 97.5103 66.649 97.5922 66.8641C97.6793 67.0742 97.7972 67.2561 97.9457 67.4097C98.0994 67.5634 98.2788 67.6813 98.4837 67.7633C98.6886 67.8452 98.9115 67.8862 99.1523 67.8862ZM103.043 68.8545V63.4751H105.371C105.853 63.4751 106.268 63.5545 106.616 63.7134C106.964 63.8671 107.233 64.0899 107.423 64.3819C107.613 64.674 107.707 65.0223 107.707 65.4271C107.707 65.8267 107.613 66.1725 107.423 66.4645C107.233 66.7514 106.964 66.9717 106.616 67.1254C106.268 67.2791 105.853 67.356 105.371 67.356H103.734L104.288 66.8103V68.8545H103.043ZM106.462 68.8545L105.118 66.9026H106.447L107.807 68.8545H106.462ZM104.288 66.9487L103.734 66.3646H105.302C105.686 66.3646 105.973 66.2826 106.163 66.1187C106.352 65.9496 106.447 65.7191 106.447 65.4271C106.447 65.1299 106.352 64.8994 106.163 64.7354C105.973 64.5715 105.686 64.4895 105.302 64.4895H103.734L104.288 63.8978V66.9487Z" fill="#009400"/>
<path d="M80.6513 58.8633C80.5792 59.5842 80.1828 59.9746 79.4619 60.0347C79.1255 60.0347 78.8311 59.9266 78.5788 59.7103C78.3385 59.482 78.2184 59.1997 78.2184 58.8633V50.357C78.2304 50.0206 78.3566 49.7442 78.5968 49.528C78.8371 49.2997 79.1255 49.1855 79.4619 49.1855H87.0311C88.0884 49.2216 88.8873 49.4559 89.428 49.8884C89.9686 50.3089 90.3591 50.7895 90.5994 51.3301C90.8397 51.8708 90.9598 52.4175 90.9598 52.9701C90.9598 53.5468 90.8397 54.1055 90.5994 54.6462C90.3711 55.1868 89.9807 55.6734 89.428 56.1059C88.8873 56.5265 88.1965 56.7307 87.3555 56.7187H82.814C82.4776 56.7187 82.1952 56.5985 81.9669 56.3583C81.7266 56.13 81.6065 55.8476 81.6065 55.5112C81.6065 55.1748 81.7206 54.8925 81.9489 54.6642C82.1892 54.4239 82.4776 54.3038 82.814 54.3038H87.4636C87.6919 54.3038 87.8781 54.2317 88.0223 54.0875C88.1785 53.9313 88.2926 53.7571 88.3647 53.5649C88.4368 53.3606 88.4728 53.1564 88.4728 52.9521C88.4728 52.7599 88.4368 52.5677 88.3647 52.3754C88.2926 52.1712 88.1785 51.997 88.0223 51.8528C87.8781 51.6966 87.6919 51.6125 87.4636 51.6005H81.1199C80.8075 51.6125 80.6513 51.7687 80.6513 52.069V58.8633ZM94.1414 51.4563C94.4657 51.4683 94.7421 51.5885 94.9704 51.8167C95.1986 52.033 95.3188 52.3033 95.3308 52.6277V58.8633C95.2587 59.5842 94.8622 59.9746 94.1414 60.0347C93.8049 60.0347 93.5106 59.9266 93.2583 59.7103C93.018 59.482 92.8978 59.1997 92.8978 58.8633V52.6277C92.9099 52.2913 93.036 52.015 93.2763 51.7987C93.5166 51.5704 93.8049 51.4563 94.1414 51.4563ZM92.6275 49.1135C92.6275 48.7771 92.7717 48.4887 93.06 48.2484C93.3484 48.0081 93.6968 47.888 94.1053 47.888C94.5138 47.888 94.8622 48.0081 95.1506 48.2484C95.4389 48.4887 95.5831 48.7771 95.5831 49.1135C95.5831 49.4619 95.4389 49.7562 95.1506 49.9965C94.8622 50.2368 94.5138 50.357 94.1053 50.357C93.6968 50.357 93.3484 50.2368 93.06 49.9965C92.7717 49.7562 92.6275 49.4619 92.6275 49.1135ZM98.296 55.5292C98.0317 55.5292 97.8034 55.4391 97.6112 55.2589C97.419 55.0667 97.3229 54.8384 97.3229 54.5741C97.3229 54.2977 97.419 54.0695 97.6112 53.8893C97.8034 53.697 98.0317 53.6009 98.296 53.6009H101.396C101.66 53.6009 101.888 53.697 102.081 53.8893C102.273 54.0695 102.369 54.2977 102.369 54.5741C102.369 54.8384 102.273 55.0667 102.081 55.2589C101.888 55.4391 101.66 55.5292 101.396 55.5292H98.296ZM108.506 51.6005C108.05 51.6245 107.665 51.7987 107.353 52.1231C107.052 52.4475 106.836 52.82 106.704 53.2405C106.572 53.649 106.506 54.0695 106.506 54.502C106.506 54.9345 106.566 55.361 106.686 55.7816C106.818 56.2021 107.04 56.5745 107.353 56.8989C107.665 57.2113 108.05 57.3795 108.506 57.4035H114.453C115.21 57.4756 115.625 57.8901 115.697 58.647C115.685 58.9834 115.559 59.2658 115.318 59.4941C115.078 59.7103 114.79 59.8184 114.453 59.8184H108.704H107.875C107.034 59.7704 106.343 59.452 105.803 58.8633C105.262 58.2626 104.872 57.5837 104.631 56.8268C104.403 56.0699 104.289 55.295 104.289 54.502C104.289 53.9133 104.355 53.3306 104.487 52.7539C104.619 52.1772 104.824 51.6305 105.1 51.1139C105.388 50.5852 105.767 50.1347 106.235 49.7622C106.716 49.3898 107.263 49.1976 107.875 49.1855H108.218H114.453C115.21 49.2576 115.625 49.6721 115.697 50.4291C115.697 50.7655 115.571 51.0478 115.318 51.2761C115.078 51.4923 114.79 51.6005 114.453 51.6005H108.506ZM121.437 57.0251C121.437 56.6887 121.552 56.4063 121.78 56.178C122.02 55.9377 122.308 55.8176 122.645 55.8176H125.402L124.934 54.484C124.741 53.9914 124.549 53.5288 124.357 53.0963C124.177 52.6518 123.966 52.2493 123.726 51.8888C123.51 51.5284 123.264 51.3362 122.987 51.3121C122.699 51.3362 122.441 51.5284 122.212 51.8888C121.984 52.2493 121.774 52.6518 121.582 53.0963C121.401 53.5288 121.215 53.9914 121.023 54.484L119.311 59.1697C119.191 59.422 119.035 59.6322 118.842 59.8004C118.662 59.9566 118.386 60.0347 118.013 60.0347C117.665 60.0347 117.376 59.9146 117.148 59.6743C116.932 59.434 116.836 59.1456 116.86 58.8092C116.872 58.653 116.908 58.5089 116.968 58.3767L118.95 53.2585C119.503 51.9129 120.056 50.8255 120.608 49.9965C121.149 49.1795 121.942 48.765 122.987 48.753C124.021 48.765 124.808 49.1795 125.348 49.9965C125.901 50.8015 126.454 51.8888 127.006 53.2585L128.989 58.3767C129.049 58.5089 129.085 58.653 129.097 58.8092C129.121 59.1456 129.019 59.434 128.79 59.6743C128.574 59.9146 128.292 60.0347 127.943 60.0347C127.547 60.0347 127.252 59.9566 127.06 59.8004C126.88 59.6322 126.73 59.422 126.61 59.1697L126.267 58.2325H122.645C122.308 58.2325 122.026 58.1124 121.798 57.8721C121.558 57.6438 121.437 57.3615 121.437 57.0251ZM138.748 49.1855C139.589 49.2336 140.28 49.558 140.821 50.1587C141.361 50.7474 141.752 51.4203 141.992 52.1772C142.232 52.9341 142.352 53.709 142.352 54.502C142.352 55.295 142.232 56.0699 141.992 56.8268C141.764 57.5837 141.373 58.2626 140.821 58.8633C140.28 59.452 139.589 59.7704 138.748 59.8184H132.116C131.792 59.8064 131.515 59.6923 131.287 59.476C131.071 59.2478 130.957 58.9714 130.945 58.647V54.1776C130.957 53.8412 131.083 53.5649 131.323 53.3486C131.563 53.1203 131.852 53.0062 132.188 53.0062C132.513 53.0182 132.789 53.1383 133.017 53.3666C133.245 53.5829 133.366 53.8532 133.378 54.1776V56.9169C133.378 57.2413 133.546 57.4035 133.882 57.4035H138.135C138.592 57.3795 138.97 57.2053 139.271 56.8809C139.571 56.5565 139.787 56.19 139.919 55.7816C140.064 55.361 140.136 54.9345 140.136 54.502C140.136 54.0695 140.064 53.649 139.919 53.2405C139.787 52.82 139.571 52.4475 139.271 52.1231C138.97 51.7987 138.592 51.6245 138.135 51.6005H132.116C131.395 51.5404 131.005 51.1499 130.945 50.4291C130.945 50.0926 131.053 49.8043 131.269 49.564C131.497 49.3237 131.78 49.1976 132.116 49.1855H138.748ZM156.005 50.393C156.005 50.7294 155.885 51.0118 155.644 51.24C155.416 51.4803 155.134 51.6005 154.797 51.6005H147.588C147.36 51.6125 147.168 51.6666 147.012 51.7627C146.868 51.8468 146.759 51.9489 146.687 52.069C146.615 52.1772 146.579 52.2913 146.579 52.4115C146.579 52.5316 146.615 52.6518 146.687 52.7719C146.759 52.88 146.868 52.9822 147.012 53.0783C147.168 53.1624 147.36 53.2104 147.588 53.2224H152.707C153.548 53.2465 154.239 53.4447 154.779 53.8172C155.332 54.1776 155.722 54.5981 155.951 55.0787C156.191 55.5473 156.311 56.0278 156.311 56.5204C156.311 57.001 156.191 57.4816 155.951 57.9622C155.71 58.4308 155.32 58.8513 154.779 59.2237C154.239 59.5842 153.548 59.7644 152.707 59.7644H152.599C152.526 59.7764 152.454 59.7824 152.382 59.7824H145.57C145.234 59.7824 144.945 59.6683 144.705 59.44C144.477 59.1997 144.363 58.9113 144.363 58.5749C144.363 58.2385 144.483 57.9562 144.723 57.7279C144.951 57.4876 145.234 57.3675 145.57 57.3675H152.815C153.043 57.3795 153.229 57.3374 153.373 57.2413C153.53 57.1452 153.644 57.0371 153.716 56.9169C153.788 56.7848 153.824 56.6526 153.824 56.5204C153.824 56.4363 153.788 56.3222 153.716 56.178C153.644 56.0218 153.53 55.8957 153.373 55.7996C153.229 55.7035 153.043 55.6494 152.815 55.6374H147.697C146.856 55.6133 146.159 55.4211 145.606 55.0607C145.065 54.7002 144.675 54.2917 144.435 53.8352C144.206 53.3666 144.092 52.892 144.092 52.4115C144.092 51.9429 144.212 51.4803 144.453 51.0238C144.693 50.5552 145.083 50.1407 145.624 49.7803C146.165 49.4198 146.856 49.2276 147.697 49.2036H147.805C147.877 49.1916 147.949 49.1855 148.021 49.1855H154.797C155.134 49.1855 155.416 49.3057 155.644 49.546C155.885 49.7743 156.005 50.0566 156.005 50.393Z" fill="#0069BD"/>
<defs>
<radialGradient id="paint0_radial_1903_8540" cx="0" cy="0" r="1" gradientUnits="userSpaceOnUse" gradientTransform="translate(56.4397 56.3342) rotate(-38.9129) scale(25.3073)">
<stop offset="0.475962" stop-color="#0069BD"/>
<stop offset="0.942308" stop-color="#D9D9D9" stop-opacity="0"/>
</radialGradient>
<radialGradient id="paint1_radial_1903_8540" cx="0" cy="0" r="1" gradientUnits="userSpaceOnUse" gradientTransform="translate(56.4412 56.3321) rotate(-33.9129) scale(25.3073)">
<stop offset="0.475962" stop-color="#0069BD"/>
<stop offset="0.942308" stop-color="#D9D9D9" stop-opacity="0"/>
</radialGradient>
<radialGradient id="paint2_radial_1903_8540" cx="0" cy="0" r="1" gradientUnits="userSpaceOnUse" gradientTransform="translate(56.4393 56.3343) rotate(-28.9129) scale(25.3073)">
<stop offset="0.475962" stop-color="#0069BD"/>
<stop offset="0.942308" stop-color="#D9D9D9" stop-opacity="0"/>
</radialGradient>
<radialGradient id="paint3_radial_1903_8540" cx="0" cy="0" r="1" gradientUnits="userSpaceOnUse" gradientTransform="translate(56.439 56.3342) rotate(-23.9129) scale(25.3073)">
<stop offset="0.475962" stop-color="#0069BD"/>
<stop offset="0.942308" stop-color="#D9D9D9" stop-opacity="0"/>
</radialGradient>
<radialGradient id="paint4_radial_1903_8540" cx="0" cy="0" r="1" gradientUnits="userSpaceOnUse" gradientTransform="translate(56.4373 56.3353) rotate(-18.9129) scale(25.3073)">
<stop offset="0.475962" stop-color="#0069BD"/>
<stop offset="0.942308" stop-color="#D9D9D9" stop-opacity="0"/>
</radialGradient>
<radialGradient id="paint5_radial_1903_8540" cx="0" cy="0" r="1" gradientUnits="userSpaceOnUse" gradientTransform="translate(56.4379 56.3352) rotate(-13.9129) scale(25.3073)">
<stop offset="0.475962" stop-color="#0069BD"/>
<stop offset="0.942308" stop-color="#D9D9D9" stop-opacity="0"/>
</radialGradient>
<radialGradient id="paint6_radial_1903_8540" cx="0" cy="0" r="1" gradientUnits="userSpaceOnUse" gradientTransform="translate(56.4393 56.3332) rotate(-8.9129) scale(25.3073)">
<stop offset="0.475962" stop-color="#0069BD"/>
<stop offset="0.942308" stop-color="#D9D9D9" stop-opacity="0"/>
</radialGradient>
<radialGradient id="paint7_radial_1903_8540" cx="0" cy="0" r="1" gradientUnits="userSpaceOnUse" gradientTransform="translate(56.4376 56.3358) rotate(-3.91289) scale(25.3073)">
<stop offset="0.475962" stop-color="#0069BD"/>
<stop offset="0.942308" stop-color="#D9D9D9" stop-opacity="0"/>
</radialGradient>
<radialGradient id="paint8_radial_1903_8540" cx="0" cy="0" r="1" gradientUnits="userSpaceOnUse" gradientTransform="translate(56.4425 56.3327) rotate(1.08711) scale(25.3073)">
<stop offset="0.475962" stop-color="#0069BD"/>
<stop offset="0.942308" stop-color="#D9D9D9" stop-opacity="0"/>
</radialGradient>
<radialGradient id="paint9_radial_1903_8540" cx="0" cy="0" r="1" gradientUnits="userSpaceOnUse" gradientTransform="translate(56.4411 56.333) rotate(6.08711) scale(25.3073)">
<stop offset="0.475962" stop-color="#0069BD"/>
<stop offset="0.942308" stop-color="#D9D9D9" stop-opacity="0"/>
</radialGradient>
<radialGradient id="paint10_radial_1903_8540" cx="0" cy="0" r="1" gradientUnits="userSpaceOnUse" gradientTransform="translate(56.4382 56.3344) rotate(11.0871) scale(25.3073)">
<stop offset="0.475962" stop-color="#0069BD"/>
<stop offset="0.942308" stop-color="#D9D9D9" stop-opacity="0"/>
</radialGradient>
<radialGradient id="paint11_radial_1903_8540" cx="0" cy="0" r="1" gradientUnits="userSpaceOnUse" gradientTransform="translate(56.44 56.3333) rotate(16.0871) scale(25.3073)">
<stop offset="0.475962" stop-color="#0069BD"/>
<stop offset="0.942308" stop-color="#D9D9D9" stop-opacity="0"/>
</radialGradient>
<radialGradient id="paint12_radial_1903_8540" cx="0" cy="0" r="1" gradientUnits="userSpaceOnUse" gradientTransform="translate(56.439 56.3345) rotate(21.0871) scale(25.3073)">
<stop offset="0.475962" stop-color="#0069BD"/>
<stop offset="0.942308" stop-color="#D9D9D9" stop-opacity="0"/>
</radialGradient>
<radialGradient id="paint13_radial_1903_8540" cx="0" cy="0" r="1" gradientUnits="userSpaceOnUse" gradientTransform="translate(56.4365 56.3357) rotate(26.0871) scale(25.3073)">
<stop offset="0.475962" stop-color="#0069BD"/>
<stop offset="0.942308" stop-color="#D9D9D9" stop-opacity="0"/>
</radialGradient>
<radialGradient id="paint14_radial_1903_8540" cx="0" cy="0" r="1" gradientUnits="userSpaceOnUse" gradientTransform="translate(56.4407 56.3341) rotate(31.0871) scale(25.3073)">
<stop offset="0.475962" stop-color="#0069BD"/>
<stop offset="0.942308" stop-color="#D9D9D9" stop-opacity="0"/>
</radialGradient>
<radialGradient id="paint15_radial_1903_8540" cx="0" cy="0" r="1" gradientUnits="userSpaceOnUse" gradientTransform="translate(56.4413 56.3338) rotate(36.0871) scale(25.3073)">
<stop offset="0.475962" stop-color="#0069BD"/>
<stop offset="0.942308" stop-color="#D9D9D9" stop-opacity="0"/>
</radialGradient>
<radialGradient id="paint16_radial_1903_8540" cx="0" cy="0" r="1" gradientUnits="userSpaceOnUse" gradientTransform="translate(56.4357 56.3359) rotate(41.0871) scale(25.3073)">
<stop offset="0.475962" stop-color="#0069BD"/>
<stop offset="0.942308" stop-color="#D9D9D9" stop-opacity="0"/>
</radialGradient>
<radialGradient id="paint17_radial_1903_8540" cx="0" cy="0" r="1" gradientUnits="userSpaceOnUse" gradientTransform="translate(56.1857 56.3305) rotate(-50.3121) scale(15.8918 15.2099)">
<stop offset="0.475962" stop-color="#0069BD"/>
<stop offset="0.942308" stop-color="#D9D9D9" stop-opacity="0"/>
</radialGradient>
<radialGradient id="paint18_radial_1903_8540" cx="0" cy="0" r="1" gradientUnits="userSpaceOnUse" gradientTransform="translate(56.4416 56.8191) rotate(-50.3121) scale(27.1284 27.295)">
<stop offset="0.475962" stop-color="#0069BD"/>
<stop offset="0.942308" stop-color="#D9D9D9" stop-opacity="0"/>
</radialGradient>
</defs>
</svg>
