<svg width="40" height="40" viewBox="0 0 40 40" fill="none" xmlns="http://www.w3.org/2000/svg">
<g clip-path="url(#clip0_3182_5004)">
<path d="M21.9432 32.0779L36.725 26.4869L29.5242 12.421L17.2926 2.41511L8.71061 15.6861L6.16219 31.2804L21.9432 32.0779Z" stroke="url(#paint0_radial_3182_5004)" stroke-width="0.36266"/>
<path d="M20.8897 32.1935L36.1025 27.9121L30.155 13.2721L18.842 2.23825L9.13603 14.7108L5.23817 30.0237L20.8897 32.1935Z" stroke="url(#paint1_radial_3182_5004)" stroke-width="0.36266"/>
<path d="M19.8277 32.2183L35.3558 29.279L30.7069 14.1764L20.3986 2.19854L9.64253 13.7777L4.4249 28.6926L19.8277 32.2183Z" stroke="url(#paint2_radial_3182_5004)" stroke-width="0.36266"/>
<path d="M18.7685 32.155L34.4936 30.5803L31.1788 15.13L21.9536 2.29926L10.2293 12.8969L3.73157 27.3003L18.7685 32.155Z" stroke="url(#paint3_radial_3182_5004)" stroke-width="0.36266"/>
<path d="M17.7181 31.9979L33.5207 31.7996L31.565 16.1192L23.4932 2.5333L10.8899 12.0688L3.16157 25.851L17.7181 31.9979Z" stroke="url(#paint4_radial_3182_5004)" stroke-width="0.36266"/>
<path d="M16.6876 31.7461L32.4473 32.9259L31.8657 17.1347L25.0087 2.89695L11.6222 11.2977L2.72212 24.3539L16.6876 31.7461Z" stroke="url(#paint5_radial_3182_5004)" stroke-width="0.36266"/>
<path d="M15.6825 31.408L31.2794 33.9569L32.0764 18.1751L26.4864 3.39395L12.4186 10.596L2.41449 22.8269L15.6825 31.408Z" stroke="url(#paint6_radial_3182_5004)" stroke-width="0.36266"/>
<path d="M14.7109 30.9848L30.0242 34.8825L32.1936 19.2302L27.9131 4.01808L13.2732 9.96554L2.23919 21.279L14.7109 30.9848Z" stroke="url(#paint7_radial_3182_5004)" stroke-width="0.36266"/>
<path d="M13.7801 30.4735L28.6975 35.692L32.2228 20.2883L29.2844 4.76103L14.1798 9.41084L2.20378 19.7187L13.7801 30.4735Z" stroke="url(#paint8_radial_3182_5004)" stroke-width="0.36266"/>
<path d="M12.8957 29.8876L27.3015 36.3864L32.1559 21.3486L30.582 5.62433L15.1296 8.93999L2.30076 18.1648L12.8957 29.8876Z" stroke="url(#paint9_radial_3182_5004)" stroke-width="0.36266"/>
<path d="M12.0661 29.2288L25.8489 36.9571L31.9954 22.3996L31.798 6.59797L16.1176 8.55368L2.53141 16.6259L12.0661 29.2288Z" stroke="url(#paint10_radial_3182_5004)" stroke-width="0.36266"/>
<path d="M11.2984 28.4933L24.3552 37.3935L31.7471 23.4271L32.9276 7.66836L17.1364 8.24998L2.89839 15.1074L11.2984 28.4933Z" stroke="url(#paint11_radial_3182_5004)" stroke-width="0.36266"/>
<path d="M10.5943 27.697L22.8271 37.7028L31.4082 24.4338L33.9577 8.83798L18.1737 8.04129L3.3944 13.6315L10.5943 27.697Z" stroke="url(#paint12_radial_3182_5004)" stroke-width="0.36266"/>
<path d="M9.96283 26.8452L21.2771 37.8792L30.982 25.4086L34.881 10.0943L19.2265 7.92494L4.01625 12.2057L9.96283 26.8452Z" stroke="url(#paint13_radial_3182_5004)" stroke-width="0.36266"/>
<path d="M9.41333 25.9389L19.7229 37.9169L30.4777 26.3396L35.6967 11.4234L20.2908 7.89795L4.7653 10.8368L9.41333 25.9389Z" stroke="url(#paint14_radial_3182_5004)" stroke-width="0.36266"/>
<path d="M8.9414 24.9897L18.1677 37.8207L29.8907 27.2248L36.3898 12.8202L21.3498 7.96549L5.62728 9.54L8.9414 24.9897Z" stroke="url(#paint15_radial_3182_5004)" stroke-width="0.36266"/>
<path d="M8.55022 23.9997L16.6232 37.586L29.225 28.0521L36.9548 14.2688L22.3952 8.12172L6.59525 8.31993L8.55022 23.9997Z" stroke="url(#paint16_radial_3182_5004)" stroke-width="0.36266"/>
<path d="M11.2113 27.3461C14.9374 32.2508 22.0847 32.2586 26.6126 28.471L26.612 28.4702L26.6203 28.4649C31.3939 25.5079 32.2706 18.3798 28.8763 14.0911L28.8532 14.062L28.867 14.0275C29.0055 13.6945 28.9772 13.2834 28.6507 12.8979C26.3302 10.2032 23.5864 8.99197 20.8981 8.86106C18.2082 8.73013 15.5697 9.68021 13.4641 11.3161C9.25297 14.5879 7.18486 20.5904 11.0899 26.1475L11.1107 26.1784L11.095 26.2121C10.943 26.5249 10.9465 26.9022 11.1242 27.2157L11.2113 27.3461ZM11.8482 25.5887C8.7515 20.7182 10.5587 15.5153 14.1323 12.728C15.9194 11.3342 18.1514 10.5416 20.4364 10.6964C22.7216 10.8512 25.054 11.9539 27.0446 14.3381L27.0453 14.3375C27.3716 14.6831 27.7518 14.7666 28.0848 14.6899L28.1264 14.6794L28.1507 14.7149C29.5066 16.6537 29.9669 19.1632 29.5576 21.4868C29.1487 23.8073 27.8714 25.948 25.7455 27.1508C23.8951 28.6613 21.411 29.4292 19.0323 29.2999C16.6531 29.1704 14.3729 28.1434 12.9389 26.0575C12.6969 25.7198 12.2968 25.5638 11.9116 25.6183L11.8707 25.6233L11.8482 25.5887Z" fill="#009400" stroke="url(#paint17_radial_3182_5004)" stroke-width="0.127687"/>
<path d="M23.0146 37.6101C22.4895 38.03 21.7097 38.1687 21.031 38.0185C20.3931 37.8772 19.8307 37.4767 19.6555 36.7996L19.626 36.6622C19.5451 36.2655 19.2112 35.9836 18.8269 35.9508C16.6387 35.7695 14.5038 35.1247 12.5815 34.0612L12.5779 34.0595C12.4184 33.9612 12.2709 33.9344 12.1308 33.9499C11.989 33.9656 11.8502 34.025 11.7099 34.1069C11.5686 34.1894 11.4321 34.2901 11.2907 34.3872C11.1865 34.4588 11.0799 34.5286 10.971 34.5813L10.861 34.6283C10.4244 34.8024 9.99976 34.7422 9.61109 34.567C9.2234 34.3921 8.86709 34.1014 8.56273 33.8086C7.7911 33.2333 7.74303 32.1889 8.22594 31.4023L8.22656 31.4015C8.41734 31.0983 8.37929 30.7141 8.15997 30.4541C6.73293 28.7726 5.67611 26.7824 5.07193 24.6605C4.97807 24.3326 4.68264 24.1149 4.35908 24.102C3.02729 24.0954 2.24687 22.8605 2.493 21.6498L2.5559 21.4089C2.83369 20.5212 3.47206 19.737 4.01706 18.9692C4.66298 17.9759 5.00936 16.846 5.28181 15.685C5.55247 14.5316 5.75184 13.3407 6.1011 12.2418C6.12401 11.3385 5.73295 10.9785 5.56366 10.5192C5.47838 10.2876 5.46036 10.0438 5.59703 9.72199C5.73159 9.40536 6.01548 9.01339 6.52637 8.47672L6.52699 8.47597C6.62767 8.37204 6.74573 8.28888 6.8762 8.22643L6.8802 8.22467C7.19096 8.10117 7.51204 8.05577 7.83834 8.03502C8.00129 8.02467 8.16673 8.02006 8.33307 8.01538C8.49986 8.01068 8.66792 8.0059 8.83805 7.99408C10.1035 7.85287 11.2707 7.30009 12.4259 6.69234C13.4341 6.16192 14.4355 5.58814 15.4752 5.22152L15.9236 5.07718C16.1436 4.98432 16.2625 4.83205 16.3408 4.6417C16.4223 4.44372 16.4572 4.2136 16.5149 3.96252C16.5715 3.71597 16.649 3.45749 16.8168 3.22706C16.9857 2.99517 17.2426 2.79647 17.6493 2.66282L17.654 2.66168C18.4353 2.47888 18.973 2.40957 19.3637 2.43198C19.7581 2.45461 20.0054 2.5712 20.2025 2.75622C20.3932 2.93543 20.5373 3.18092 20.7222 3.44511C20.9083 3.71113 21.1453 4.01079 21.5309 4.31932C22.5713 4.72491 23.6256 5.09988 24.6993 5.42701C25.0073 5.50024 25.3226 5.59117 25.6402 5.68628C25.9595 5.78191 26.2813 5.88147 26.6047 5.96763C27.2506 6.13976 27.8958 6.26045 28.5205 6.20977C28.6896 6.17558 28.8636 6.1136 29.0419 6.04478C29.2201 5.97602 29.4047 5.89906 29.586 5.84022C29.9037 5.73716 30.2307 5.68249 30.5398 5.81951L30.6704 5.88989L30.6727 5.89176C31.5564 6.51002 32.0602 7.0338 32.327 7.49045C32.5953 7.95004 32.6219 8.33947 32.559 8.68044C32.5278 8.84934 32.4752 9.00526 32.4209 9.14961C32.3659 9.296 32.3112 9.42667 32.2719 9.55391C32.2331 9.67979 32.2126 9.79486 32.2228 9.90524C32.2328 10.0142 32.2736 10.1232 32.3659 10.2359C33.3898 11.4865 33.3082 11.3878 33.8387 12.1955C33.9656 12.3888 34.1662 12.7123 34.4062 12.9659C34.5259 13.0924 34.6521 13.1983 34.7804 13.2612C34.9077 13.3235 35.0342 13.3423 35.1587 13.3023C35.3846 13.2296 35.518 13.1193 35.592 12.9943C35.6664 12.8684 35.6854 12.7193 35.6696 12.5613C35.6379 12.2441 35.465 11.9119 35.3503 11.7151C34.1462 10.0565 35.0241 11.2315 33.7994 9.71495L33.7759 9.68524L33.7892 9.64932C34.2106 8.57102 33.9607 7.49381 33.3635 6.57781C32.7657 5.66098 31.823 4.91083 30.8723 4.49519C30.2336 4.26948 29.4383 4.46111 28.8878 4.67832C28.4753 4.84446 27.9527 4.86093 27.3813 4.78857C26.8087 4.71604 26.1793 4.55282 25.549 4.35558C24.9188 4.15834 24.285 3.92557 23.7033 3.71094C23.1204 3.49586 22.5906 3.30009 22.1659 3.17494L22.1459 3.16848L22.1326 3.15238C22.0111 2.99704 21.8953 2.82868 21.779 2.66096C21.6622 2.49251 21.5442 2.323 21.4178 2.16331C21.1968 1.88401 20.9513 1.63587 20.6432 1.4697L20.5074 1.40396C19.4535 1.01063 18.1963 1.03797 17.1598 1.46347C16.1237 1.88885 15.3144 2.709 15.1415 3.9002L15.1348 3.94035L15.0972 3.95356C14.0742 4.30155 13.1436 4.79175 12.2087 5.2735C11.2751 5.75453 10.3365 6.22744 9.30556 6.53307L9.29943 6.53434C9.01655 6.58994 8.72173 6.61282 8.42524 6.62741C8.12692 6.64209 7.82959 6.64869 7.53333 6.6715C7.01629 6.71132 6.51776 6.80016 6.07308 7.06249L5.88615 7.18528C5.14288 7.73994 4.52954 8.52371 4.2553 9.37377C3.98184 10.2218 4.04551 11.1363 4.65423 11.9637L4.67404 11.9903L4.66323 12.0232C4.36836 12.9142 4.17893 13.9922 3.92279 15.0762C3.66771 16.1558 3.34765 17.2368 2.7932 18.1134L2.79008 18.1172C2.30161 18.7677 1.76852 19.4773 1.39817 20.2425C1.05157 20.9588 0.849867 21.7199 0.959723 22.5234L0.985812 22.6846L0.987203 22.6921C1.09017 24.1278 2.29502 25.313 3.68229 25.5796L3.72106 25.5864L3.7329 25.6242C4.34266 27.574 5.30206 29.416 6.55183 31.0371L6.57628 31.0688L6.55897 31.1065C5.81811 32.6625 6.52554 34.3409 7.7825 35.3896C9.03972 36.4385 10.8201 36.8352 12.2019 35.8553L12.2357 35.8313L12.2715 35.8509C14.0538 36.7829 16.145 37.2266 18.1485 37.4931L18.1871 37.4986L18.2008 37.534C18.8265 39.1174 20.369 39.8137 21.846 39.6834C23.3228 39.5531 24.722 38.5973 25.062 36.8878L25.0673 36.863L25.0874 36.848C26.5625 35.7386 27.8536 34.93 28.9472 34.428C30.039 33.9267 30.9426 33.7271 31.6389 33.8483C31.9808 33.9077 32.334 33.8855 32.5598 33.6607C33.2905 32.933 34.1393 31.8418 34.4594 31.3716C34.6327 31.117 34.6869 30.9213 34.6565 30.7624C34.6263 30.6045 34.5083 30.4621 34.2863 30.3232C34.0923 30.2019 33.8659 30.2743 33.6698 30.3978C33.5739 30.4582 33.4908 30.5276 33.4317 30.5823C33.4022 30.6095 33.3782 30.6326 33.3623 30.649C33.3547 30.6569 33.3493 30.6637 33.3453 30.668L33.3402 30.6726C33.0712 30.9996 32.8595 31.2848 32.6734 31.5266C32.4882 31.7672 32.3273 31.9669 32.1646 32.1183C32.0007 32.2708 31.8316 32.3765 31.6295 32.4267C31.4282 32.4768 31.1998 32.4703 30.9183 32.4089C30.7926 32.3815 30.6222 32.3862 30.4126 32.422C30.2039 32.4577 29.9607 32.5238 29.6919 32.6145C29.1543 32.7959 28.5182 33.0751 27.8543 33.4068C26.5263 34.0702 25.0927 34.9394 24.1223 35.6422L24.1196 35.6438C23.7998 35.8544 23.6463 36.1886 23.5128 36.554C23.3819 36.9126 23.2691 37.3092 23.0235 37.6009L23.0242 37.6015L23.0146 37.6101Z" fill="#009400" stroke="url(#paint18_radial_3182_5004)" stroke-width="0.132244"/>
<path d="M22.4706 14.3184L20.6482 14.7994L19.4251 14.3184L17.4277 20.9816H19.5351L17.69 25.9559L22.2088 19.293H19.4887L22.4706 14.3184Z" fill="#0069BD"/>
</g>
<defs>
<radialGradient id="paint0_radial_3182_5004" cx="0" cy="0" r="1" gradientUnits="userSpaceOnUse" gradientTransform="translate(20.0604 20.0611) rotate(-38.9129) scale(18.133)">
<stop offset="0.475962" stop-color="#0069BD"/>
<stop offset="0.942308" stop-color="#D9D9D9" stop-opacity="0"/>
</radialGradient>
<radialGradient id="paint1_radial_3182_5004" cx="0" cy="0" r="1" gradientUnits="userSpaceOnUse" gradientTransform="translate(20.0613 20.0583) rotate(-33.9129) scale(18.133)">
<stop offset="0.475962" stop-color="#0069BD"/>
<stop offset="0.942308" stop-color="#D9D9D9" stop-opacity="0"/>
</radialGradient>
<radialGradient id="paint2_radial_3182_5004" cx="0" cy="0" r="1" gradientUnits="userSpaceOnUse" gradientTransform="translate(20.0602 20.0571) rotate(-28.9129) scale(18.133)">
<stop offset="0.475962" stop-color="#0069BD"/>
<stop offset="0.942308" stop-color="#D9D9D9" stop-opacity="0"/>
</radialGradient>
<radialGradient id="paint3_radial_3182_5004" cx="0" cy="0" r="1" gradientUnits="userSpaceOnUse" gradientTransform="translate(20.06 20.0603) rotate(-23.9129) scale(18.133)">
<stop offset="0.475962" stop-color="#0069BD"/>
<stop offset="0.942308" stop-color="#D9D9D9" stop-opacity="0"/>
</radialGradient>
<radialGradient id="paint4_radial_3182_5004" cx="0" cy="0" r="1" gradientUnits="userSpaceOnUse" gradientTransform="translate(20.0588 20.0617) rotate(-18.9129) scale(18.133)">
<stop offset="0.475962" stop-color="#0069BD"/>
<stop offset="0.942308" stop-color="#D9D9D9" stop-opacity="0"/>
</radialGradient>
<radialGradient id="paint5_radial_3182_5004" cx="0" cy="0" r="1" gradientUnits="userSpaceOnUse" gradientTransform="translate(20.0597 20.0594) rotate(-13.9129) scale(18.133)">
<stop offset="0.475962" stop-color="#0069BD"/>
<stop offset="0.942308" stop-color="#D9D9D9" stop-opacity="0"/>
</radialGradient>
<radialGradient id="paint6_radial_3182_5004" cx="0" cy="0" r="1" gradientUnits="userSpaceOnUse" gradientTransform="translate(20.0603 20.0597) rotate(-8.9129) scale(18.133)">
<stop offset="0.475962" stop-color="#0069BD"/>
<stop offset="0.942308" stop-color="#D9D9D9" stop-opacity="0"/>
</radialGradient>
<radialGradient id="paint7_radial_3182_5004" cx="0" cy="0" r="1" gradientUnits="userSpaceOnUse" gradientTransform="translate(20.0591 20.0604) rotate(-3.91289) scale(18.133)">
<stop offset="0.475962" stop-color="#0069BD"/>
<stop offset="0.942308" stop-color="#D9D9D9" stop-opacity="0"/>
</radialGradient>
<radialGradient id="paint8_radial_3182_5004" cx="0" cy="0" r="1" gradientUnits="userSpaceOnUse" gradientTransform="translate(20.0621 20.0577) rotate(1.08711) scale(18.133)">
<stop offset="0.475962" stop-color="#0069BD"/>
<stop offset="0.942308" stop-color="#D9D9D9" stop-opacity="0"/>
</radialGradient>
<radialGradient id="paint9_radial_3182_5004" cx="0" cy="0" r="1" gradientUnits="userSpaceOnUse" gradientTransform="translate(20.0615 20.0591) rotate(6.08711) scale(18.133)">
<stop offset="0.475962" stop-color="#0069BD"/>
<stop offset="0.942308" stop-color="#D9D9D9" stop-opacity="0"/>
</radialGradient>
<radialGradient id="paint10_radial_3182_5004" cx="0" cy="0" r="1" gradientUnits="userSpaceOnUse" gradientTransform="translate(20.0595 20.0609) rotate(11.0871) scale(18.133)">
<stop offset="0.475962" stop-color="#0069BD"/>
<stop offset="0.942308" stop-color="#D9D9D9" stop-opacity="0"/>
</radialGradient>
<radialGradient id="paint11_radial_3182_5004" cx="0" cy="0" r="1" gradientUnits="userSpaceOnUse" gradientTransform="translate(20.0604 20.057) rotate(16.0871) scale(18.133)">
<stop offset="0.475962" stop-color="#0069BD"/>
<stop offset="0.942308" stop-color="#D9D9D9" stop-opacity="0"/>
</radialGradient>
<radialGradient id="paint12_radial_3182_5004" cx="0" cy="0" r="1" gradientUnits="userSpaceOnUse" gradientTransform="translate(20.0597 20.058) rotate(21.0871) scale(18.133)">
<stop offset="0.475962" stop-color="#0069BD"/>
<stop offset="0.942308" stop-color="#D9D9D9" stop-opacity="0"/>
</radialGradient>
<radialGradient id="paint13_radial_3182_5004" cx="0" cy="0" r="1" gradientUnits="userSpaceOnUse" gradientTransform="translate(20.0581 20.0603) rotate(26.0871) scale(18.133)">
<stop offset="0.475962" stop-color="#0069BD"/>
<stop offset="0.942308" stop-color="#D9D9D9" stop-opacity="0"/>
</radialGradient>
<radialGradient id="paint14_radial_3182_5004" cx="0" cy="0" r="1" gradientUnits="userSpaceOnUse" gradientTransform="translate(20.0615 20.0596) rotate(31.0871) scale(18.133)">
<stop offset="0.475962" stop-color="#0069BD"/>
<stop offset="0.942308" stop-color="#D9D9D9" stop-opacity="0"/>
</radialGradient>
<radialGradient id="paint15_radial_3182_5004" cx="0" cy="0" r="1" gradientUnits="userSpaceOnUse" gradientTransform="translate(20.0615 20.0608) rotate(36.0871) scale(18.133)">
<stop offset="0.475962" stop-color="#0069BD"/>
<stop offset="0.942308" stop-color="#D9D9D9" stop-opacity="0"/>
</radialGradient>
<radialGradient id="paint16_radial_3182_5004" cx="0" cy="0" r="1" gradientUnits="userSpaceOnUse" gradientTransform="translate(20.0576 20.0588) rotate(41.0871) scale(18.133)">
<stop offset="0.475962" stop-color="#0069BD"/>
<stop offset="0.942308" stop-color="#D9D9D9" stop-opacity="0"/>
</radialGradient>
<radialGradient id="paint17_radial_3182_5004" cx="0" cy="0" r="1" gradientUnits="userSpaceOnUse" gradientTransform="translate(19.8782 20.0562) rotate(-38.4057) scale(11.3867 10.8981)">
<stop offset="0.475962" stop-color="#0069BD"/>
<stop offset="0.942308" stop-color="#D9D9D9" stop-opacity="0"/>
</radialGradient>
<radialGradient id="paint18_radial_3182_5004" cx="0" cy="0" r="1" gradientUnits="userSpaceOnUse" gradientTransform="translate(20.0612 20.4062) rotate(-50.3121) scale(19.4378 19.5572)">
<stop offset="0.475962" stop-color="#0069BD"/>
<stop offset="0.942308" stop-color="#D9D9D9" stop-opacity="0"/>
</radialGradient>
<clipPath id="clip0_3182_5004">
<rect width="40" height="40" fill="white"/>
</clipPath>
</defs>
</svg>
