<svg width="61" height="61" viewBox="0 0 61 61" fill="none" xmlns="http://www.w3.org/2000/svg">
<path d="M24.8773 27.5945C26.4556 27.5945 27.7351 26.315 27.7351 24.7367C27.7351 23.1584 26.4556 21.8789 24.8773 21.8789C23.299 21.8789 22.0195 23.1584 22.0195 24.7367C22.0195 26.315 23.299 27.5945 24.8773 27.5945Z" fill="white"/>
<path d="M8.35221 39.2758L4.92381 42.6358C4.75314 42.8025 4.63607 43.0163 4.58756 43.2499C4.53904 43.4835 4.5613 43.7263 4.65149 43.9471C4.74167 44.168 4.89567 44.357 5.09382 44.4899C5.29196 44.6228 5.52523 44.6936 5.76381 44.6932C6.06681 44.6932 6.37041 44.5792 6.60381 44.3506L10.0322 40.9906C10.2596 40.7678 10.3892 40.4638 10.3925 40.1455C10.3957 39.8271 10.2724 39.5206 10.0496 39.2932C9.82683 39.0658 9.52284 38.9362 9.20451 38.9329C8.88619 38.9297 8.57961 39.053 8.35221 39.2758ZM15.2084 32.5564L11.78 35.9164C11.6093 36.0831 11.4923 36.2969 11.4438 36.5305C11.3952 36.7641 11.4175 37.0069 11.5077 37.2277C11.5979 37.4486 11.7519 37.6376 11.95 37.7705C12.1482 37.9034 12.3814 37.9742 12.62 37.9738C12.923 37.9738 13.2266 37.8598 13.46 37.6312L16.8884 34.2712C17.1158 34.0484 17.2454 33.7444 17.2487 33.4261C17.2519 33.1078 17.1286 32.8012 16.9058 32.5738C16.683 32.3464 16.379 32.2168 16.0607 32.2135C15.7424 32.2103 15.4358 32.3336 15.2084 32.5564ZM28.925 22.4374L29.012 22.3894L30.6008 20.8324C30.828 20.6096 30.9575 20.3057 30.9606 19.9875C30.9638 19.6692 30.8404 19.3628 30.6176 19.1356C30.5073 19.0231 30.3759 18.9334 30.2309 18.8716C30.086 18.8099 29.9303 18.7773 29.7727 18.7758C29.4545 18.7726 29.148 18.896 28.9208 19.1188L27.2636 20.743C27.9536 21.1558 28.5258 21.7393 28.925 22.4374ZM33.1892 17.8156C33.4922 17.8156 33.7958 17.7016 34.0286 17.473L37.457 14.1136C37.6844 13.8909 37.814 13.587 37.8173 13.2687C37.8207 12.9504 37.6974 12.6439 37.4747 12.4165C37.3644 12.3039 37.2331 12.2141 37.0881 12.1523C36.9431 12.0905 36.7874 12.0578 36.6298 12.0561C36.3116 12.0528 36.005 12.1761 35.7776 12.3988L32.3492 15.7582C32.1788 15.925 32.062 16.1388 32.0137 16.3723C31.9653 16.6058 31.9877 16.8484 32.0778 17.0692C32.1679 17.2899 32.3218 17.4788 32.5197 17.6118C32.7177 17.7447 32.9508 17.8157 33.1892 17.8156ZM40.046 11.0962C40.349 11.0962 40.6526 10.9822 40.8854 10.753L44.3138 7.39297C44.4307 7.28373 44.5245 7.15222 44.5898 7.00619C44.6551 6.86016 44.6905 6.70255 44.694 6.54262C44.6975 6.3827 44.669 6.22369 44.6101 6.07494C44.5513 5.9262 44.4633 5.79072 44.3513 5.67647C44.2394 5.56223 44.1057 5.47152 43.9581 5.40969C43.8106 5.34785 43.6522 5.31614 43.4923 5.31641C43.3323 5.31668 43.174 5.34893 43.0267 5.41126C42.8794 5.47359 42.746 5.56475 42.6344 5.67937L39.206 9.03937C39.0358 9.20624 38.9192 9.41999 38.871 9.65338C38.8228 9.88678 38.8452 10.1292 38.9353 10.3499C39.0254 10.5705 39.1791 10.7593 39.3769 10.8922C39.5748 11.0251 39.8077 11.0961 40.046 11.0962Z" fill="white"/>
<path d="M56.4631 26.7181C48.9643 19.2193 37.4467 17.7007 29.0101 22.3891L28.9375 22.4605C29.3298 23.1548 29.5359 23.9388 29.5357 24.7363C29.5357 24.7795 29.5303 24.8215 29.5291 24.8647C37.0999 20.2147 47.8309 21.4795 54.7663 28.4143C54.9931 28.6298 55.2952 28.7483 55.6081 28.7443C55.921 28.7404 56.22 28.6143 56.4414 28.3931C56.6627 28.1719 56.7888 27.8729 56.7929 27.56C56.7969 27.2471 56.6786 26.945 56.4631 26.7181Z" fill="white"/>
<path d="M28.9392 22.462L29.0118 22.3906L28.9248 22.4386L28.9392 22.462ZM26.3274 55.3342C22.6278 51.6346 20.5908 46.672 20.5908 41.3602C20.5908 36.952 21.9984 32.7862 24.5904 29.3812C23.8611 29.3371 23.1527 29.1206 22.5234 28.7494C22.4199 28.6895 22.3188 28.6254 22.2204 28.5574C21.6528 28.1609 21.1801 27.6435 20.8362 27.0424L18.6366 29.1982C18.524 29.3085 18.4342 29.4399 18.3724 29.5849C18.3106 29.7299 18.278 29.8857 18.2764 30.0433C18.2747 30.2009 18.3042 30.3573 18.363 30.5036C18.4218 30.6498 18.5089 30.783 18.6192 30.8956C18.7295 31.0082 18.8609 31.098 19.0059 31.1598C19.1509 31.2216 19.3067 31.2542 19.4643 31.2559C19.6219 31.2575 19.7783 31.228 19.9246 31.1692C20.0708 31.1104 20.204 31.0233 20.3166 30.913L21.3198 29.9302C19.281 33.3316 18.1914 37.2538 18.1914 41.3608C18.1914 47.314 20.4786 52.879 24.6312 57.0316C24.8652 57.2662 25.1724 57.3832 25.4796 57.3832C25.7868 57.3832 26.094 57.2662 26.328 57.0316C26.4394 56.9201 26.5278 56.7878 26.5881 56.6422C26.6484 56.4965 26.6794 56.3404 26.6793 56.1828C26.6793 56.0252 26.6482 55.8691 26.5878 55.7235C26.5274 55.5779 26.4389 55.4456 26.3274 55.3342ZM25.9728 24.475C26.0904 24.5122 26.211 24.5362 26.3328 24.5362C26.6358 24.5362 26.9394 24.4222 27.1728 24.193L27.5682 23.8054C27.5197 23.6662 27.4604 23.5309 27.3906 23.401C26.9022 23.7377 26.4292 24.0961 25.9728 24.475Z" fill="white"/>
</svg>
