<svg width="60" height="61" viewBox="0 0 60 61" fill="none" xmlns="http://www.w3.org/2000/svg">
<path d="M60 52.6836H7.5V48.9336H56.25V22.6836H60V52.6836Z" fill="white"/>
<path d="M48.75 15.1836V41.4336H3.75V15.1836H48.75ZM52.5 11.4336H0V45.1836H52.5V11.4336Z" fill="white"/>
<path d="M11.25 22.6836H7.5V33.9336H11.25V37.6836H26.25C23.7636 37.6836 21.379 36.6959 19.6209 34.9377C17.8627 33.1796 16.875 30.795 16.875 28.3086C16.875 25.8222 17.8627 23.4376 19.6209 21.6795C21.379 19.9213 23.7636 18.9336 26.25 18.9336H11.25V22.6836ZM41.25 22.6836V18.9336H26.25C28.7364 18.9336 31.121 19.9213 32.8791 21.6795C34.6373 23.4376 35.625 25.8222 35.625 28.3086C35.625 30.795 34.6373 33.1796 32.8791 34.9377C31.121 36.6959 28.7364 37.6836 26.25 37.6836H41.25V33.9336H45V22.6836H41.25Z" fill="white"/>
</svg>
