<svg width="60" height="61" viewBox="0 0 60 61" fill="none" xmlns="http://www.w3.org/2000/svg">
<path d="M33 12.9375C35.8052 12.9382 38.5714 13.5946 41.0779 14.8542C43.5844 16.1138 45.7619 17.9419 47.4364 20.1924C49.111 22.443 50.2364 25.0538 50.7228 27.8165C51.2091 30.5793 51.0431 33.4174 50.2378 36.1046C49.4325 38.7917 48.0104 41.2535 46.0848 43.2934C44.1591 45.3333 41.7834 46.8949 39.1471 47.8537C36.5108 48.8124 33.6869 49.1416 30.9007 48.8152C28.1146 48.4888 25.4433 47.5157 23.1 45.9735V45.9375H23.046C19.8234 43.7998 17.3749 40.6812 16.0631 37.0433C14.7513 33.4054 14.646 29.4418 15.7628 25.7394C16.8796 22.037 19.159 18.7927 22.2636 16.4869C25.3682 14.1812 29.1328 12.9366 33 12.9375ZM15.765 42.9375C16.515 44.0175 17.367 45.0195 18.303 45.9375H4.5C4.10218 45.9375 3.72064 46.0955 3.43934 46.3768C3.15804 46.6581 3 47.0397 3 47.4375C3 47.8353 3.15804 48.2169 3.43934 48.4982C3.72064 48.7795 4.10218 48.9375 4.5 48.9375H22.176C25.3624 50.8523 28.9999 51.8869 32.717 51.9357C36.4341 51.9845 40.0976 51.0457 43.3331 49.2152C46.5686 47.3847 49.2603 44.7282 51.1331 41.517C53.0059 38.3057 53.9927 34.6549 53.9927 30.9375C53.9927 27.2201 53.0059 23.5693 51.1331 20.358C49.2603 17.1468 46.5686 14.4903 43.3331 12.6598C40.0976 10.8293 36.4341 9.89052 32.717 9.93931C28.9999 9.9881 25.3624 11.0227 22.176 12.9375H7.5C7.10218 12.9375 6.72064 13.0955 6.43934 13.3768C6.15804 13.6581 6 14.0397 6 14.4375C6 14.8353 6.15804 15.2169 6.43934 15.4982C6.72064 15.7795 7.10218 15.9375 7.5 15.9375H18.303C16.3046 17.8906 14.7173 20.224 13.6348 22.8002C12.5523 25.3764 11.9965 28.1431 12 30.9375C12 34.1595 12.726 37.2075 14.022 39.9375H10.5C10.1022 39.9375 9.72064 40.0955 9.43934 40.3768C9.15804 40.6581 9 41.0397 9 41.4375C9 41.8353 9.15804 42.2169 9.43934 42.4982C9.72064 42.7795 10.1022 42.9375 10.5 42.9375H15.765ZM24.591 24.6495C23.2304 26.4632 22.4965 28.6702 22.5 30.9375C22.5 33.2955 23.28 35.4735 24.591 37.2255L27.831 33.9855C27.2855 33.0625 26.9984 32.0097 27 30.9375C27 29.8275 27.303 28.7835 27.831 27.8895L24.591 24.6495ZM26.712 22.5285L29.952 25.7685C30.8749 25.2228 31.9278 24.9358 33 24.9375C34.11 24.9375 35.154 25.2405 36.048 25.7685L39.288 22.5285C37.4743 21.1679 35.2673 20.434 33 20.4375C30.642 20.4375 28.464 21.2175 26.712 22.5285ZM41.412 24.6495L38.172 27.8895C38.7162 28.8132 39.0029 29.8658 39.0024 30.9379C39.0018 32.01 38.7141 33.0623 38.169 33.9855L41.409 37.2255C42.723 35.4735 43.5 33.2955 43.5 30.9375C43.5 28.5795 42.723 26.4015 41.412 24.6495ZM39.288 39.3495L36.048 36.1095C35.1247 36.654 34.0719 36.94 33 36.9375C31.89 36.9375 30.846 36.6345 29.952 36.1065L26.712 39.3465C28.464 40.6605 30.642 41.4375 33 41.4375C35.358 41.4375 37.536 40.6605 39.288 39.3495ZM19.5 30.9375C19.5 29.1647 19.8492 27.4092 20.5276 25.7713C21.2061 24.1334 22.2005 22.6452 23.4541 21.3916C24.7076 20.138 26.1959 19.1436 27.8338 18.4651C29.4717 17.7867 31.2272 17.4375 33 17.4375C34.7728 17.4375 36.5283 17.7867 38.1662 18.4651C39.8041 19.1436 41.2924 20.138 42.5459 21.3916C43.7995 22.6452 44.7939 24.1334 45.4724 25.7713C46.1508 27.4092 46.5 29.1647 46.5 30.9375C46.5 34.5179 45.0777 37.9517 42.5459 40.4834C40.0142 43.0152 36.5804 44.4375 33 44.4375C29.4196 44.4375 25.9858 43.0152 23.4541 40.4834C20.9223 37.9517 19.5 34.5179 19.5 30.9375ZM30 30.9375C30 31.7331 30.3161 32.4962 30.8787 33.0588C31.4413 33.6214 32.2044 33.9375 33 33.9375C33.7956 33.9375 34.5587 33.6214 35.1213 33.0588C35.6839 32.4962 36 31.7331 36 30.9375C36 30.1419 35.6839 29.3788 35.1213 28.8162C34.5587 28.2536 33.7956 27.9375 33 27.9375C32.2044 27.9375 31.4413 28.2536 30.8787 28.8162C30.3161 29.3788 30 30.1419 30 30.9375Z" fill="white"/>
</svg>
