<svg width="60" height="61" viewBox="0 0 60 61" fill="none" xmlns="http://www.w3.org/2000/svg">
<path d="M43.1335 49.9751C47.769 46.9041 51.18 42.3041 52.7722 36.9764C54.3644 31.6488 54.0368 25.9314 51.8465 20.8205C49.6562 15.7096 45.7421 11.5293 40.7862 9.00789C35.8303 6.48649 30.1467 5.78392 24.726 7.02261M43.136 42.6826V49.9726L51.251 49.9751M16.806 10.4326C12.1839 13.5141 8.78821 18.1184 7.2096 23.4445C5.63099 28.7707 5.96934 34.4816 8.1658 39.5841C10.3623 44.6866 14.2778 48.8577 19.2315 51.3719C24.1851 53.8861 29.8633 54.5843 35.2785 53.3451M16.806 10.4326V17.6826M16.806 10.4326H8.75101" stroke="white" stroke-width="3.75" stroke-linecap="round" stroke-linejoin="round"/>
<path d="M31.25 17.6816L22.5 30.1816H37.5L28.75 42.6816" stroke="white" stroke-width="3.75" stroke-linecap="round" stroke-linejoin="round"/>
</svg>
