<svg width="61" height="61" viewBox="0 0 61 61" fill="none" xmlns="http://www.w3.org/2000/svg">
<g clip-path="url(#clip0_2898_9758)">
<path d="M60.7148 52.6836H8.21484V48.9336H56.9648V22.6836H60.7148V52.6836Z" fill="white"/>
<path d="M49.4648 15.1836V41.4336H4.46484V15.1836H49.4648ZM53.2148 11.4336H0.714844V45.1836H53.2148V11.4336Z" fill="white"/>
<path d="M11.9648 22.6836H8.21484V33.9336H11.9648V37.6836H26.9648C24.4784 37.6836 22.0939 36.6959 20.3357 34.9377C18.5776 33.1796 17.5898 30.795 17.5898 28.3086C17.5898 25.8222 18.5776 23.4376 20.3357 21.6795C22.0939 19.9213 24.4784 18.9336 26.9648 18.9336H11.9648V22.6836ZM41.9648 22.6836V18.9336H26.9648C29.4512 18.9336 31.8358 19.9213 33.594 21.6795C35.3521 23.4376 36.3398 25.8222 36.3398 28.3086C36.3398 30.795 35.3521 33.1796 33.594 34.9377C31.8358 36.6959 29.4512 37.6836 26.9648 37.6836H41.9648V33.9336H45.7148V22.6836H41.9648Z" fill="white"/>
</g>
<defs>
<clipPath id="clip0_2898_9758">
<rect width="60" height="60" fill="white" transform="translate(0.714844 0.183594)"/>
</clipPath>
</defs>
</svg>
